SplineFontDB: 3.0
FontName: RujisHandwritingFontv.2.0
FullName: Ruji's Handwriting Font v.2.0
FamilyName: Ruji's Handwriting Font v.2.0
Weight: Medium
Copyright: Created by Ruji Chapnik (http://rujic.net) with the Open Font License.
Version: 2.0
ItalicAngle: 0
UnderlinePosition: -100
UnderlineWidth: 50
Ascent: 800
Descent: 200
sfntRevision: 0x00010000
LayerCount: 2
Layer: 0 1 "Back"  1
Layer: 1 1 "Fore"  0
XUID: [1021 972 697809129 5871990]
FSType: 0
OS2Version: 4
OS2_WeightWidthSlopeOnly: 0
OS2_UseTypoMetrics: 1
CreationTime: 1382044179
ModificationTime: 1382049149
PfmFamily: 17
TTFWeight: 500
TTFWidth: 5
LineGap: 90
VLineGap: 0
Panose: 2 0 6 3 0 0 0 0 0 0
OS2TypoAscent: 800
OS2TypoAOffset: 0
OS2TypoDescent: -200
OS2TypoDOffset: 0
OS2TypoLinegap: 90
OS2WinAscent: 880
OS2WinAOffset: 0
OS2WinDescent: 250
OS2WinDOffset: 0
HheadAscent: 881
HheadAOffset: 0
HheadDescent: -250
HheadDOffset: 0
OS2SubXSize: 650
OS2SubYSize: 700
OS2SubXOff: 0
OS2SubYOff: 140
OS2SupXSize: 650
OS2SupYSize: 700
OS2SupXOff: 0
OS2SupYOff: 480
OS2StrikeYSize: 49
OS2StrikeYPos: 258
OS2Vendor: 'PfEd'
OS2CodePages: 00000001.00000000
OS2UnicodeRanges: 80000087.00000000.00000000.00000000
MarkAttachClasses: 1
DEI: 91125
ShortTable: cvt  2
  33
  633
EndShort
ShortTable: maxp 16
  1
  0
  175
  258
  5
  0
  0
  2
  0
  1
  1
  0
  64
  46
  0
  0
EndShort

StartChar: .notdef
Encoding: 65536 -1 0
Width: 364
Flags: W
LayerCount: 2
Fore
SplineSet
33 0 m 1,0,-1
 33 666 l 1,1,-1
 298 666 l 1,2,-1
 298 0 l 1,3,-1
 33 0 l 1,0,-1
66 33 m 1,4,-1
 265 33 l 1,5,-1
 265 633 l 1,6,-1
 66 633 l 1,7,-1
 66 33 l 1,4,-1
EndSplineSet
Validated: 1
EndChar

StartChar: exclam
Encoding: 33 33 4
Width: 231
Flags: W
LayerCount: 2
Fore
SplineSet
55 69 m 0,0,1
 63 104 63 104 84 114 c 2,2,-1
 93 118 l 1,3,4
 105 125 105 125 119 122 c 1,5,-1
 124 123 l 1,6,7
 140 128 140 128 154.5 119.5 c 128,-1,8
 169 111 169 111 173 95 c 0,9,10
 175 87 175 87 174 80 c 1,11,12
 180 65 180 65 178 55 c 0,13,14
 174 37 174 37 158.5 24.5 c 128,-1,15
 143 12 143 12 125 11 c 2,16,-1
 116 10 l 1,17,18
 105 6 105 6 94 7 c 0,19,20
 77 10 77 10 63 27.5 c 128,-1,21
 49 45 49 45 54 66 c 0,22,23
 55 67 55 67 54.5 67 c 128,-1,24
 54 67 54 67 55 69 c 0,0,1
132.5 217 m 128,-1,26
 116 215 116 215 102.5 225.5 c 128,-1,27
 89 236 89 236 87 252 c 2,28,-1
 85 267 l 2,29,30
 83 282 83 282 82 298 c 256,31,32
 81 314 81 314 80 353 c 0,33,34
 79 393 79 393 82 418 c 0,35,36
 84 441 84 441 88 476 c 0,37,38
 91 509 91 509 92 537 c 256,39,40
 93 565 93 565 93 572 c 0,41,42
 93 577 93 577 92 591 c 0,43,44
 91 604 91 604 90 615 c 0,45,46
 89 625 89 625 89 633 c 1,47,-1
 87 636 l 2,48,49
 78 650 78 650 82 666.5 c 128,-1,50
 86 683 86 683 100 691.5 c 128,-1,51
 114 700 114 700 130.5 696 c 128,-1,52
 147 692 147 692 156 678 c 2,53,-1
 160 672 l 1,54,55
 169 656 169 656 169 638 c 0,56,57
 169 633 169 633 170 624 c 0,58,59
 172 612 172 612 173 596 c 256,60,61
 174 580 174 580 174 572 c 0,62,63
 174 565 174 565 173 534 c 256,64,65
 172 503 172 503 168.5 467.5 c 128,-1,66
 165 432 165 432 162 410 c 0,67,68
 160 390 160 390 161 354 c 0,69,70
 162 317 162 317 163 304 c 0,71,72
 164 290 164 290 165 277 c 2,73,-1
 167 263 l 2,74,75
 169 246 169 246 159 232.5 c 128,-1,25
 149 219 149 219 132.5 217 c 128,-1,26
EndSplineSet
Validated: 33
EndChar

StartChar: quotedbl
Encoding: 34 34 5
Width: 421
Flags: W
LayerCount: 2
Fore
SplineSet
145 528 m 1,0,1
 132 524 132 524 122 524 c 0,2,3
 107 523 107 523 90 535 c 128,-1,4
 73 547 73 547 71 567 c 0,5,6
 69 586 69 586 84 612 c 0,7,8
 93 629 93 629 99 638 c 0,9,10
 108 650 108 650 124 660 c 1,11,12
 137 670 137 670 156.5 669.5 c 128,-1,13
 176 669 176 669 190 659 c 0,14,15
 208 645 208 645 216 622 c 0,16,17
 220 612 220 612 223 600 c 1,18,19
 232 614 232 614 245 623 c 0,20,21
 248 625 248 625 252 627 c 0,22,23
 266 635 266 635 280 637 c 0,24,25
 294 638 294 638 310 634 c 2,26,-1
 318 632 l 2,27,28
 332 628 332 628 341 617 c 0,29,30
 354 603 354 603 352 584 c 0,31,32
 352 583 352 583 352 583 c 1,33,34
 361 568 361 568 365 554 c 0,35,36
 373 527 373 527 364 501 c 0,37,38
 359 485 359 485 350 465 c 0,39,40
 342 445 342 445 335 434 c 0,41,42
 328 421 328 421 311 401 c 0,43,44
 295 382 295 382 280 368 c 0,45,46
 268 356 268 356 265 352 c 2,47,-1
 260 346 l 2,48,49
 249 333 249 333 232.5 331 c 128,-1,50
 216 329 216 329 203 339.5 c 128,-1,51
 190 350 190 350 188 367 c 128,-1,52
 186 384 186 384 196 396 c 1,53,-1
 201 403 l 1,54,55
 208 411 208 411 224 427 c 1,56,57
 237 438 237 438 249 454 c 1,58,59
 258 464 258 464 263 472 c 1,60,61
 248 478 248 478 241 493 c 2,62,-1
 237 501 l 2,63,64
 235 505 235 505 233 509 c 0,65,66
 229 515 229 515 227 520 c 1,67,68
 227 520 227 520 226 520 c 1,69,70
 226 519 226 519 226 517 c 0,71,72
 220 489 220 489 206 466 c 0,73,74
 193 445 193 445 172 425 c 0,75,76
 155 408 155 408 137 393 c 2,77,-1
 119 378 l 2,78,79
 107 368 107 368 90 369 c 128,-1,80
 73 370 73 370 62.5 383 c 128,-1,81
 52 396 52 396 53.5 412.5 c 128,-1,82
 55 429 55 429 67 440 c 2,83,-1
 84 455 l 2,84,85
 100 468 100 468 116 483 c 0,86,87
 129 496 129 496 137 509 c 0,88,89
 143 517 143 517 145 528 c 1,0,1
EndSplineSet
Validated: 33
EndChar

StartChar: numbersign
Encoding: 35 35 6
Width: 759
Flags: W
LayerCount: 2
Fore
SplineSet
69 181.5 m 128,-1,1
 66 198 66 198 76 211.5 c 128,-1,2
 86 225 86 225 102 228 c 2,3,-1
 129 232 l 2,4,5
 151 236 151 236 202 245 c 1,6,7
 217 295 217 295 236 341 c 0,8,9
 245 364 245 364 255 387 c 1,10,11
 253 387 253 387 252 387 c 0,12,13
 148 373 148 373 122 371 c 2,14,-1
 97 369 l 2,15,16
 80 367 80 367 67.5 378 c 128,-1,17
 55 389 55 389 53.5 405.5 c 128,-1,18
 52 422 52 422 63 435 c 128,-1,19
 74 448 74 448 90 450 c 2,20,-1
 115 452 l 2,21,22
 140 454 140 454 241 467 c 0,23,24
 266 470 266 470 290 473 c 1,25,26
 306 511 306 511 313 528 c 0,27,28
 321 547 321 547 331 578 c 0,29,30
 340 605 340 605 341 613 c 2,31,-1
 342 621 l 2,32,33
 344 637 344 637 357.5 647.5 c 128,-1,34
 371 658 371 658 387.5 656 c 128,-1,35
 404 654 404 654 414.5 640.5 c 128,-1,36
 425 627 425 627 423 611 c 2,37,-1
 422 602 l 2,38,39
 420 590 420 590 408 553 c 0,40,41
 397 519 397 519 387 496 c 0,42,43
 384 488 384 488 379 477 c 1,44,45
 414 476 414 476 447 474 c 0,46,47
 478 472 478 472 501 470 c 1,48,49
 508 488 508 488 515 503 c 0,50,51
 546 575 546 575 550 586 c 2,52,-1
 554 597 l 1,53,54
 561 612 561 612 576.5 619 c 128,-1,55
 592 626 592 626 607.5 620 c 128,-1,56
 623 614 623 614 629.5 598 c 128,-1,57
 636 582 636 582 630 567 c 2,58,-1
 625 556 l 2,59,60
 620 544 620 544 589 471 c 0,61,62
 587 467 587 467 586 463 c 1,63,64
 593 463 593 463 602 463 c 0,65,66
 623 462 623 462 631 462 c 2,67,-1
 640 462 l 1,68,69
 657 463 657 463 669 451 c 128,-1,70
 681 439 681 439 681 422.5 c 128,-1,71
 681 406 681 406 669.5 394 c 128,-1,72
 658 382 658 382 641 381 c 1,73,-1
 633 381 l 2,74,75
 623 381 623 381 600 382 c 0,76,77
 577 382 577 382 557 384 c 1,78,79
 544 340 544 340 531 287 c 0,80,81
 526 268 526 268 522 251 c 1,82,83
 579 244 579 244 608 238 c 0,84,85
 640 231 640 231 655 225 c 0,86,87
 668 220 668 220 676 216 c 2,88,-1
 683 212 l 1,89,90
 698 206 698 206 704 190 c 128,-1,91
 710 174 710 174 703 159 c 128,-1,92
 696 144 696 144 680 138 c 128,-1,93
 664 132 664 132 649 139 c 2,94,-1
 642 142 l 2,95,96
 636 145 636 145 625 150 c 0,97,98
 616 153 616 153 591 159 c 1,99,100
 564 164 564 164 506 171 c 0,101,102
 505 171 505 171 505 171 c 1,103,104
 499 138 499 138 496 117 c 0,105,106
 490 63 490 63 490 26 c 2,107,-1
 489 -12 l 2,108,109
 489 -29 489 -29 476.5 -40.5 c 128,-1,110
 464 -52 464 -52 447.5 -52 c 128,-1,111
 431 -52 431 -52 419.5 -39.5 c 128,-1,112
 408 -27 408 -27 408 -11 c 2,113,-1
 409 28 l 1,114,115
 409 68 409 68 416 126 c 0,116,117
 418 148 418 148 424 177 c 1,118,119
 401 178 401 178 376 179 c 0,120,121
 321 180 321 180 267 173 c 1,122,123
 256 126 256 126 248 86 c 2,124,-1
 238 35 l 2,125,126
 235 19 235 19 221 9.5 c 128,-1,127
 207 0 207 0 190.5 3 c 128,-1,128
 174 6 174 6 164.5 20 c 128,-1,129
 155 34 155 34 158 50 c 2,130,-1
 168 101 l 2,131,132
 174 129 174 129 181 159 c 1,133,134
 156 155 156 155 142 153 c 2,135,-1
 116 148 l 2,136,137
 99 145 99 145 85.5 155 c 128,-1,0
 72 165 72 165 69 181.5 c 128,-1,1
475 391 m 1,138,139
 460 392 460 392 441 393 c 0,140,141
 394 397 394 397 345 395 c 1,142,143
 328 353 328 353 311 311 c 0,144,145
 300 284 300 284 291 257 c 1,146,147
 334 261 334 261 378 260 c 0,148,149
 410 259 410 259 441 258 c 1,150,151
 446 280 446 280 452 306 c 0,152,153
 463 352 463 352 475 391 c 1,138,139
EndSplineSet
Validated: 33
EndChar

StartChar: dollar
Encoding: 36 36 7
Width: 538
Flags: W
LayerCount: 2
Fore
SplineSet
400.5 692 m 128,-1,1
 416 688 416 688 424.5 673 c 128,-1,2
 433 658 433 658 429 642 c 2,3,-1
 426 632 l 2,4,5
 424 625 424 625 417 596 c 1,6,7
 424 591 424 591 430 584 c 0,8,9
 449 565 449 565 462 527 c 0,10,11
 474 495 474 495 478 476 c 2,12,-1
 482 460 l 2,13,14
 485 444 485 444 476 429.5 c 128,-1,15
 467 415 467 415 450.5 412 c 128,-1,16
 434 409 434 409 420 418 c 128,-1,17
 406 427 406 427 402 443 c 2,18,-1
 399 459 l 2,19,20
 397 467 397 467 393 481 c 1,21,22
 388 454 388 454 383 422 c 0,23,24
 372 345 372 345 366 300 c 1,25,26
 379 294 379 294 389 287 c 0,27,28
 409 274 409 274 426 257 c 128,-1,29
 443 240 443 240 460 213 c 0,30,31
 479 182 479 182 483 155 c 0,32,33
 488 128 488 128 482 106 c 0,34,35
 477 86 477 86 464 68.5 c 128,-1,36
 451 51 451 51 428 36 c 0,37,38
 406 21 406 21 380 12 c 0,39,40
 367 7 367 7 349 3 c 1,41,42
 349 1 349 1 349 0 c 0,43,44
 349 -18 349 -18 348 -41 c 0,45,46
 347 -63 347 -63 347 -73 c 0,47,48
 346 -83 346 -83 346 -94 c 0,49,50
 346 -107 346 -107 346 -115 c 1,51,-1
 345 -122 l 1,52,53
 344 -138 344 -138 331 -149.5 c 128,-1,54
 318 -161 318 -161 301.5 -159.5 c 128,-1,55
 285 -158 285 -158 274 -145.5 c 128,-1,56
 263 -133 263 -133 264 -116 c 1,57,-1
 265 -110 l 2,58,59
 265 -104 265 -104 265 -94 c 0,60,61
 265 -81 265 -81 266 -70 c 0,62,63
 266 -59 266 -59 267 -37 c 0,64,65
 268 -23 268 -23 268 -12 c 1,66,67
 262 -12 262 -12 256 -13 c 0,68,69
 251 -13 251 -13 245 -13 c 1,70,71
 245 -22 245 -22 244 -27 c 0,72,73
 243 -37 243 -37 243 -54 c 2,74,-1
 243 -74 l 2,75,76
 243 -91 243 -91 231 -102.5 c 128,-1,77
 219 -114 219 -114 202.5 -114 c 128,-1,78
 186 -114 186 -114 174 -102 c 128,-1,79
 162 -90 162 -90 162 -74 c 2,80,-1
 162 -54 l 2,81,82
 162 -33 162 -33 164 -19 c 0,83,84
 164 -14 164 -14 165 4 c 1,85,86
 153 9 153 9 139 18 c 0,87,88
 103 39 103 39 88 58 c 0,89,90
 72 77 72 77 63 112 c 0,91,92
 55 141 55 141 54 152 c 2,93,-1
 53 161 l 2,94,95
 51 177 51 177 62 190 c 128,-1,96
 73 203 73 203 89.5 205 c 128,-1,97
 106 207 106 207 119 196.5 c 128,-1,98
 132 186 132 186 134 169 c 2,99,-1
 135 161 l 2,100,101
 135 155 135 155 141 133 c 0,102,103
 146 115 146 115 151 109 c 0,104,105
 154 105 154 105 167 96 c 1,106,107
 168 97 168 97 168 99 c 0,108,109
 169 130 169 130 173 198 c 0,110,111
 175 244 175 244 179 306 c 1,112,113
 148 328 148 328 134 345 c 0,114,115
 120 363 120 363 109 385 c 1,116,117
 99 409 99 409 97 431 c 0,118,119
 95 452 95 452 102 479 c 0,120,121
 110 507 110 507 133 536 c 0,122,123
 154 563 154 563 179 581 c 0,124,125
 188 588 188 588 198 594 c 1,126,127
 200 631 200 631 201 653 c 2,128,-1
 203 687 l 2,129,130
 204 703 204 703 216.5 714.5 c 128,-1,131
 229 726 229 726 245.5 725 c 128,-1,132
 262 724 262 724 273.5 711.5 c 128,-1,133
 285 699 285 699 284 683 c 2,134,-1
 282 649 l 2,135,136
 282 641 282 641 281 630 c 1,137,138
 288 630 288 630 295 631 c 1,139,140
 318 631 318 631 341 627 c 1,141,142
 346 646 346 646 348 653 c 2,143,-1
 351 664 l 2,144,145
 355 680 355 680 370 688 c 128,-1,0
 385 696 385 696 400.5 692 c 128,-1,1
258 260 m 1,146,147
 255 223 255 223 254 194 c 0,148,149
 250 126 250 126 248 95 c 0,150,151
 248 82 248 82 247 68 c 1,152,153
 249 68 249 68 251 68 c 0,154,155
 259 69 259 69 270 70 c 1,156,157
 272 109 272 109 274 168 c 0,158,159
 276 214 276 214 280 250 c 1,160,161
 268 255 268 255 258 260 c 1,146,147
358 210 m 1,162,163
 356 189 356 189 355 164 c 0,164,165
 353 121 353 121 352 88 c 1,166,167
 353 88 353 88 353 89 c 0,168,169
 370 94 370 94 383 103 c 0,170,171
 394 111 394 111 398 116.5 c 128,-1,172
 402 122 402 122 404 128 c 0,173,174
 405 132 405 132 404 142 c 0,175,176
 402 153 402 153 391 170 c 0,177,178
 379 190 379 190 368 200 c 0,179,180
 363 205 363 205 358 210 c 1,162,163
289 334 m 1,181,182
 294 374 294 374 303 434 c 0,183,184
 313 502 313 502 322 548 c 1,185,186
 309 550 309 550 295 550 c 0,187,188
 288 550 288 550 276 544 c 1,189,190
 276 544 276 544 276 543 c 128,-1,191
 276 542 276 542 276 541 c 0,192,193
 272 468 272 468 265 364 c 0,194,195
 264 356 264 356 263 348 c 1,196,197
 280 338 280 338 289 334 c 1,181,182
187 412 m 1,198,199
 189 446 189 446 191 478 c 1,200,201
 183 467 183 467 180 458 c 0,202,203
 177 445 177 445 177 438 c 0,204,205
 178 430 178 430 183 418 c 0,206,207
 185 415 185 415 187 412 c 1,198,199
EndSplineSet
Validated: 33
EndChar

StartChar: percent
Encoding: 37 37 8
Width: 583
Flags: W
LayerCount: 2
Fore
SplineSet
422 159 m 1,0,1
 421 156 421 156 420.5 150.5 c 128,-1,2
 420 145 420 145 420 141 c 1,3,4
 421 141 421 141 421 140 c 0,5,6
 422 139 422 139 425 139 c 1,7,8
 430 137 430 137 435 138 c 0,9,10
 439 139 439 139 441 141 c 0,11,12
 444 145 444 145 447 152 c 0,13,14
 448 153 448 153 448 155 c 1,15,16
 445 156 445 156 439 158 c 0,17,18
 434 160 434 160 431 160 c 2,19,-1
 425 159 l 2,20,21
 424 159 424 159 422 159 c 1,0,1
464 235 m 1,22,23
 485 229 485 229 500 217 c 256,24,25
 515 205 515 205 524 187 c 0,26,27
 538 159 538 159 522 121 c 0,28,29
 508 89 508 89 489 75 c 0,30,31
 472 63 472 63 450.5 59 c 128,-1,32
 429 55 429 55 406 60 c 0,33,34
 380 66 380 66 363 84 c 0,35,36
 346 101 346 101 342 122 c 1,37,38
 338 137 338 137 340 156 c 0,39,40
 341 175 341 175 348 191 c 0,41,42
 354 206 354 206 366 219 c 0,43,44
 379 232 379 232 400 241 c 1,45,-1
 414 248 l 2,46,47
 427 254 427 254 441 250.5 c 128,-1,48
 455 247 455 247 464 235 c 1,22,23
147 482 m 1,49,50
 145 480 145 480 144 479 c 0,51,52
 143 475 143 475 142 472 c 1,53,54
 143 475 143 475 144 476 c 0,55,56
 146 479 146 479 147 482 c 1,49,50
157 561 m 1,57,58
 191 564 191 564 212 541 c 0,59,60
 232 520 232 520 232 497 c 0,61,62
 232 487 232 487 229 473 c 256,63,64
 226 459 226 459 216 439 c 0,65,66
 207 422 207 422 201 412 c 1,67,68
 189 397 189 397 169 387 c 0,69,70
 146 376 146 376 126 380 c 0,71,72
 105 384 105 384 87 405 c 0,73,74
 74 420 74 420 68 436 c 256,75,76
 62 452 62 452 61 468 c 0,77,78
 60 488 60 488 70 510 c 0,79,80
 81 536 81 536 105 551 c 2,81,-1
 118 559 l 2,82,83
 137 571 137 571 157 561 c 1,57,58
76 -24.5 m 128,-1,85
 61 -17 61 -17 55.5 -1 c 128,-1,86
 50 15 50 15 57 30 c 2,87,-1
 68 52 l 2,88,89
 79 75 79 75 114 143 c 256,90,91
 149 211 149 211 208 308 c 256,92,93
 267 405 267 405 310.5 468.5 c 128,-1,94
 354 532 354 532 368 552 c 0,95,96
 383 572 383 572 394 584 c 0,97,98
 402 594 402 594 413.5 610 c 128,-1,99
 425 626 425 626 431 636 c 256,100,101
 437 646 437 646 440 654 c 0,102,103
 442 658 442 658 443 660 c 2,104,-1
 444 666 l 1,105,106
 448 682 448 682 462 691 c 128,-1,107
 476 700 476 700 492 696.5 c 128,-1,108
 508 693 508 693 517.5 678.5 c 128,-1,109
 527 664 527 664 523 648 c 2,110,-1
 521 641 l 1,111,112
 519 630 519 630 513 619 c 0,113,114
 508 608 508 608 501 595 c 0,115,116
 493 582 493 582 479.5 563.5 c 128,-1,117
 466 545 466 545 456 532 c 0,118,119
 447 521 447 521 433 503 c 0,120,121
 420 485 420 485 378 423 c 128,-1,122
 336 361 336 361 277 266 c 1,123,124
 220 171 220 171 186 105 c 256,125,126
 152 39 152 39 141 17 c 2,127,-1
 130 -6 l 2,128,129
 123 -21 123 -21 107 -26.5 c 128,-1,84
 91 -32 91 -32 76 -24.5 c 128,-1,85
EndSplineSet
Validated: 33
EndChar

StartChar: ampersand
Encoding: 38 38 9
Width: 565
Flags: W
LayerCount: 2
Fore
SplineSet
200 265 m 1,0,1
 191 254 191 254 186 247 c 0,2,3
 173 229 173 229 158 199 c 0,4,5
 144 170 144 170 140 151 c 0,6,7
 135 130 135 130 134 118 c 0,8,9
 133 109 133 109 139 87 c 1,10,11
 144 64 144 64 149 55 c 0,12,13
 150 54 150 54 151 53 c 1,14,15
 165 57 165 57 200 75 c 1,16,17
 248 98 248 98 285 122 c 0,18,19
 295 128 295 128 304 136 c 1,20,21
 286 158 286 158 272 174 c 0,22,23
 246 205 246 205 225 232 c 0,24,25
 213 247 213 247 200 265 c 1,0,1
213 393 m 1,26,27
 222 400 222 400 229 406 c 0,28,29
 250 421 250 421 274 440 c 1,30,31
 300 459 300 459 313 469 c 0,32,33
 322 475 322 475 332 486 c 0,34,35
 341 496 341 496 346 505 c 0,36,37
 349 510 349 510 351 528 c 0,38,39
 354 551 354 551 353 565 c 0,40,41
 353 575 353 575 346 588 c 1,42,43
 339 604 339 604 335 609 c 0,44,45
 334 610 334 610 333 611 c 0,46,47
 322 613 322 613 290 618 c 0,48,49
 251 623 251 623 237 622 c 0,50,51
 222 620 222 620 210 616 c 0,52,53
 198 613 198 613 187 607 c 0,54,55
 180 603 180 603 178 600 c 0,56,57
 172 590 172 590 166 580 c 0,58,59
 161 571 161 571 157 564 c 1,60,61
 156 560 156 560 155 550 c 1,62,63
 155 537 155 537 157 524 c 256,64,65
 159 511 159 511 166 492 c 0,66,67
 174 470 174 470 187 445 c 1,68,69
 199 418 199 418 210 399 c 0,70,71
 211 396 211 396 213 393 c 1,26,27
363 192 m 1,72,73
 384 219 384 219 402 252 c 0,74,75
 418 282 418 282 423 295 c 1,76,77
 423 302 423 302 423 307 c 2,78,-1
 423 314 l 2,79,80
 423 330 423 330 435 342 c 128,-1,81
 447 354 447 354 463.5 354 c 128,-1,82
 480 354 480 354 492 342 c 128,-1,83
 504 330 504 330 504 314 c 2,84,-1
 504 307 l 2,85,86
 504 299 504 299 503 288 c 0,87,88
 503 280 503 280 502 273.5 c 128,-1,89
 501 267 501 267 497.5 260 c 128,-1,90
 494 253 494 253 491.5 248 c 128,-1,91
 489 243 489 243 483 232 c 128,-1,92
 477 221 477 221 473 214 c 0,93,94
 448 166 448 166 415 129 c 1,95,96
 443 96 443 96 468 70 c 2,97,-1
 502 34 l 2,98,99
 513 22 513 22 512.5 5.5 c 128,-1,100
 512 -11 512 -11 500 -22.5 c 128,-1,101
 488 -34 488 -34 471 -33.5 c 128,-1,102
 454 -33 454 -33 443 -21 c 2,103,-1
 409 14 l 2,104,105
 384 41 384 41 356 73 c 1,106,107
 343 63 343 63 329 54 c 0,108,109
 288 27 288 27 236 2 c 0,110,111
 179 -26 179 -26 158 -28 c 0,112,113
 132 -30 132 -30 111 -19 c 0,114,115
 92 -8 92 -8 78 16 c 0,116,117
 68 35 68 35 60 68 c 0,118,119
 52 103 52 103 53 124 c 1,120,121
 55 142 55 142 61 169 c 0,122,123
 67 197 67 197 85 235 c 0,124,125
 103 271 103 271 120 294 c 0,126,127
 132 310 132 310 153 334 c 1,128,129
 144 350 144 350 138 361 c 0,130,131
 127 382 127 382 114 410 c 0,132,133
 100 438 100 438 91 463 c 1,134,135
 80 490 80 490 77 511 c 0,136,137
 73 533 73 533 74 554 c 0,138,139
 76 577 76 577 83 594 c 0,140,141
 88 607 88 607 95.5 620 c 128,-1,142
 103 633 103 633 111 645 c 0,143,144
 124 665 124 665 148 678 c 0,145,146
 167 688 167 688 186 694 c 0,147,148
 206 700 206 700 228 702 c 0,149,150
 252 705 252 705 301.5 698 c 128,-1,151
 351 691 351 691 364 686 c 0,152,153
 383 678 383 678 397 661 c 0,154,155
 408 648 408 648 420 622 c 0,156,157
 432 595 432 595 434 570 c 0,158,159
 435 548 435 548 432 519 c 0,160,161
 428 485 428 485 417 465 c 0,162,163
 407 448 407 448 391 431 c 0,164,165
 376 414 376 414 360 402 c 0,166,167
 348 394 348 394 324 376 c 0,168,169
 299 356 299 356 277 340 c 0,170,171
 268 334 268 334 258 324 c 1,172,173
 275 300 275 300 289 282 c 0,174,175
 309 256 309 256 333 227 c 0,176,177
 346 212 346 212 363 192 c 1,72,73
EndSplineSet
Validated: 33
EndChar

StartChar: quotesingle
Encoding: 39 39 10
Width: 258
Flags: W
LayerCount: 2
Fore
SplineSet
93 560 m 0,0,1
 75 564 75 564 61 585 c 128,-1,2
 47 606 47 606 57 628 c 0,3,4
 66 646 66 646 86 661 c 0,5,6
 113 682 113 682 139 677 c 1,7,8
 159 672 159 672 174 657 c 0,9,10
 184 647 184 647 191.5 633 c 128,-1,11
 199 619 199 619 202.5 599 c 128,-1,12
 206 579 206 579 205 566 c 0,13,14
 204 557 204 557 201 547 c 128,-1,15
 198 537 198 537 195 530 c 128,-1,16
 192 523 192 523 183 505 c 128,-1,17
 174 487 174 487 168 475 c 2,18,-1
 136 406 l 2,19,20
 129 391 129 391 113 385 c 128,-1,21
 97 379 97 379 82 386 c 128,-1,22
 67 393 67 393 61.5 409 c 128,-1,23
 56 425 56 425 63 440 c 2,24,-1
 95 509 l 2,25,26
 109 538 109 538 117 557 c 1,27,28
 107 557 107 557 93 560 c 0,0,1
EndSplineSet
Validated: 33
EndChar

StartChar: parenleft
Encoding: 40 40 11
Width: 453
Flags: W
LayerCount: 2
Fore
SplineSet
393.5 753 m 128,-1,1
 403 739 403 739 399.5 722.5 c 128,-1,2
 396 706 396 706 382 697 c 2,3,-1
 371 690 l 2,4,5
 360 682 360 682 348 674 c 0,6,7
 337 667 337 667 317 652 c 0,8,9
 298 638 298 638 279 621 c 0,10,11
 259 603 259 603 244 588 c 0,12,13
 230 574 230 574 215 552 c 0,14,15
 199 530 199 530 186.5 504.5 c 128,-1,16
 174 479 174 479 167 460 c 1,17,18
 161 439 161 439 155 420 c 0,19,20
 150 404 150 404 146 382 c 128,-1,21
 142 360 142 360 137 314 c 0,22,23
 133 268 133 268 134 248 c 0,24,25
 135 225 135 225 137.5 205.5 c 128,-1,26
 140 186 140 186 146 154.5 c 128,-1,27
 152 123 152 123 158 100 c 256,28,29
 164 77 164 77 171 57 c 0,30,31
 177 38 177 38 182 26 c 0,32,33
 188 14 188 14 197 1 c 0,34,35
 208 -15 208 -15 219 -28 c 0,36,37
 229 -41 229 -41 236 -46 c 1,38,39
 247 -57 247 -57 262 -77 c 0,40,41
 273 -93 273 -93 281 -102 c 0,42,43
 288 -111 288 -111 294 -117 c 0,44,45
 300 -122 300 -122 306 -127 c 0,46,47
 313 -134 313 -134 320 -140 c 2,48,-1
 327 -145 l 1,49,50
 339 -156 339 -156 340 -173 c 128,-1,51
 341 -190 341 -190 330 -202.5 c 128,-1,52
 319 -215 319 -215 302 -216 c 128,-1,53
 285 -217 285 -217 273 -206 c 2,54,-1
 266 -200 l 2,55,56
 260 -195 260 -195 253 -189 c 0,57,58
 244 -181 244 -181 236 -173 c 0,59,60
 229 -166 229 -166 220 -155 c 0,61,62
 210 -144 210 -144 196 -125 c 0,63,64
 186 -111 186 -111 180 -106 c 0,65,66
 170 -96 170 -96 157 -80 c 256,67,68
 144 -64 144 -64 131 -46 c 0,69,70
 117 -26 117 -26 109 -8 c 0,71,72
 101 9 101 9 94 33 c 0,73,74
 87 54 87 54 80 79 c 256,75,76
 73 104 73 104 66.5 139 c 128,-1,77
 60 174 60 174 57 196.5 c 128,-1,78
 54 219 54 219 53 244 c 0,79,80
 52 270 52 270 57 321 c 0,81,82
 61 371 61 371 66 397 c 128,-1,83
 71 423 71 423 77 444 c 0,84,85
 83 463 83 463 90 485 c 0,86,87
 98 510 98 510 114 541 c 128,-1,88
 130 572 130 572 149 599 c 0,89,90
 168 627 168 627 187 645 c 1,91,92
 203 662 203 662 225 681 c 0,93,94
 247 701 247 701 269 717 c 0,95,96
 290 733 290 733 303 742 c 0,97,98
 315 750 315 750 327 757 c 1,99,-1
 337 764 l 2,100,101
 351 774 351 774 367.5 770.5 c 128,-1,0
 384 767 384 767 393.5 753 c 128,-1,1
EndSplineSet
Validated: 33
EndChar

StartChar: parenright
Encoding: 41 41 12
Width: 425
Flags: W
LayerCount: 2
Fore
SplineSet
106.5 -242.5 m 128,-1,1
 93 -233 93 -233 90.5 -216 c 128,-1,2
 88 -199 88 -199 98 -186 c 2,3,-1
 117 -159 l 2,4,5
 135 -133 135 -133 150 -108 c 256,6,7
 165 -83 165 -83 186 -42 c 256,8,9
 207 -1 207 -1 217 17 c 0,10,11
 227 34 227 34 249 72 c 0,12,13
 269 108 269 108 273 118 c 0,14,15
 276 128 276 128 279 141 c 1,16,17
 281 156 281 156 284 179 c 256,18,19
 287 202 287 202 289 232 c 1,20,21
 292 261 292 261 292 278 c 0,22,23
 291 297 291 297 291 320 c 0,24,25
 291 342 291 342 289 364 c 0,26,27
 288 385 288 385 285 402 c 0,28,29
 281 422 281 422 275 445 c 0,30,31
 269 466 269 466 259 486 c 0,32,33
 246 511 246 511 237 532 c 0,34,35
 230 548 230 548 220 561 c 0,36,37
 208 578 208 578 192 599 c 0,38,39
 176 619 176 619 168 627 c 0,40,41
 159 636 159 636 147 648 c 0,42,43
 135 659 135 659 116.5 673.5 c 128,-1,44
 98 688 98 688 86 696 c 2,45,-1
 72 704 l 2,46,47
 58 713 58 713 54 729 c 128,-1,48
 50 745 50 745 58.5 759.5 c 128,-1,49
 67 774 67 774 83.5 778 c 128,-1,50
 100 782 100 782 115 773 c 2,51,-1
 128 765 l 2,52,53
 144 755 144 755 166.5 737.5 c 128,-1,54
 189 720 189 720 203 706 c 0,55,56
 216 694 216 694 226 683 c 0,57,58
 237 672 237 672 255 649 c 256,59,60
 273 626 273 626 285 609 c 0,61,62
 300 589 300 589 311 565 c 0,63,64
 319 546 319 546 331 523 c 0,65,66
 345 495 345 495 353 465 c 0,67,68
 360 439 360 439 364 419 c 0,69,70
 368 396 368 396 370 370 c 0,71,72
 372 345 372 345 372 321 c 0,73,74
 372 298 372 298 373 279 c 1,75,76
 373 258 373 258 370 225 c 0,77,78
 367 194 367 194 364 169 c 128,-1,79
 361 144 361 144 358 127 c 0,80,81
 355 107 355 107 349 90 c 0,82,83
 342 73 342 73 319 32 c 1,84,85
 297 -5 297 -5 288 -23 c 1,86,87
 278 -39 278 -39 258 -80 c 1,88,89
 236 -121 236 -121 220 -149 c 256,90,91
 204 -177 204 -177 183 -206 c 2,92,-1
 163 -233 l 2,93,94
 154 -246 154 -246 137 -249 c 128,-1,0
 120 -252 120 -252 106.5 -242.5 c 128,-1,1
EndSplineSet
Validated: 33
EndChar

StartChar: asterisk
Encoding: 42 42 13
Width: 538
Flags: W
LayerCount: 2
Fore
SplineSet
264 340 m 1,0,1
 269 342 269 342 274 344 c 0,2,3
 286 349 286 349 298 355 c 1,4,5
 297 358 297 358 297 362 c 1,6,7
 296 362 296 362 295 362 c 0,8,9
 288 363 288 363 279 363 c 1,10,11
 272 352 272 352 264 340 c 1,0,1
103 152 m 1,12,13
 81 147 81 147 64 163 c 1,14,15
 53 175 53 175 53 192 c 128,-1,16
 53 209 53 209 65 221 c 2,17,-1
 77 232 l 2,18,19
 83 238 83 238 91 244 c 0,20,21
 103 253 103 253 122 265 c 1,22,23
 131 281 131 281 143 301 c 1,24,25
 128 311 128 311 122 314 c 0,26,27
 106 321 106 321 90 332 c 0,28,29
 71 346 71 346 69 362.5 c 128,-1,30
 67 379 67 379 78 392 c 128,-1,31
 89 405 89 405 99 413 c 128,-1,32
 109 421 109 421 113 423 c 0,33,34
 147 437 147 437 205 442 c 0,35,36
 220 443 220 443 236 444 c 1,37,38
 239 449 239 449 242 452 c 0,39,40
 257 471 257 471 267 484 c 1,41,42
 276 494 276 494 279 499 c 0,43,44
 284 506 284 506 293 516 c 1,45,46
 293 516 293 516 293.5 517.5 c 128,-1,47
 294 519 294 519 295 520.5 c 128,-1,48
 296 522 296 522 298 524.5 c 128,-1,49
 300 527 300 527 302.5 528.5 c 128,-1,50
 305 530 305 530 309 531.5 c 128,-1,51
 313 533 313 533 318.5 534 c 128,-1,52
 324 535 324 535 330 535 c 0,53,54
 354 534 354 534 364 522 c 128,-1,55
 374 510 374 510 372 498 c 2,56,-1
 370 486 l 2,57,58
 369 477 369 477 370 448 c 0,59,60
 370 442 370 442 371 435 c 1,61,62
 400 431 400 431 419 425 c 0,63,64
 447 417 447 417 454 415 c 0,65,66
 476 409 476 409 482.5 397.5 c 128,-1,67
 489 386 489 386 483 374 c 128,-1,68
 477 362 477 362 468 351 c 128,-1,69
 459 340 459 340 450 333 c 2,70,-1
 442 326 l 1,71,72
 423 318 423 318 388 304 c 1,73,74
 391 285 391 285 394 266 c 0,75,76
 402 218 402 218 404 206 c 0,77,78
 406 195 406 195 407 186 c 0,79,80
 409 163 409 163 391.5 153.5 c 128,-1,81
 374 144 374 144 354.5 146 c 128,-1,82
 335 148 335 148 331 153 c 0,83,84
 324 160 324 160 306 177 c 128,-1,85
 288 194 288 194 273 207 c 0,86,87
 260 218 260 218 236 237 c 1,88,89
 233 236 233 236 232 235 c 0,90,91
 207 222 207 222 184 208 c 1,92,93
 182 204 182 204 181 202 c 2,94,-1
 165 167 l 2,95,96
 158 152 158 152 142 146.5 c 128,-1,97
 126 141 126 141 111 148 c 0,98,99
 108 149 108 149 103 152 c 1,12,13
EndSplineSet
Validated: 33
EndChar

StartChar: plus
Encoding: 43 43 14
Width: 549
Flags: W
LayerCount: 2
Fore
SplineSet
53 282.5 m 128,-1,1
 53 299 53 299 65 311 c 128,-1,2
 77 323 77 323 94 322 c 1,3,-1
 109 322 l 2,4,5
 122 322 122 322 201 332 c 0,6,7
 224 335 224 335 245 338 c 1,8,9
 246 369 246 369 245 393 c 0,10,11
 244 446 244 446 241 487 c 2,12,-1
 237 530 l 2,13,14
 236 546 236 546 247 559 c 128,-1,15
 258 572 258 572 274.5 573.5 c 128,-1,16
 291 575 291 575 304 564 c 128,-1,17
 317 553 317 553 318 536 c 2,18,-1
 322 494 l 1,19,20
 325 450 325 450 326 394 c 0,21,22
 327 372 327 372 326 345 c 1,23,24
 332 345 332 345 337 345 c 0,25,26
 388 347 388 347 422 347 c 1,27,-1
 455 348 l 2,28,29
 472 349 472 349 484 337 c 128,-1,30
 496 325 496 325 496.5 308.5 c 128,-1,31
 497 292 497 292 485 280 c 128,-1,32
 473 268 473 268 457 267 c 2,33,-1
 423 266 l 2,34,35
 390 266 390 266 340 264 c 0,36,37
 332 264 332 264 323 263 c 1,38,39
 322 257 322 257 322 251 c 0,40,41
 316 163 316 163 310 129 c 0,42,43
 304 98 304 98 303 92 c 2,44,-1
 301 85 l 1,45,46
 298 68 298 68 284 58.5 c 128,-1,47
 270 49 270 49 254 52.5 c 128,-1,48
 238 56 238 56 228.5 70 c 128,-1,49
 219 84 219 84 222 100 c 2,50,-1
 223 107 l 2,51,52
 224 114 224 114 230 145 c 0,53,54
 236 173 236 173 241 256 c 1,55,56
 227 254 227 254 211 252 c 0,57,58
 127 241 127 241 108 241 c 2,59,-1
 93 241 l 1,60,61
 77 242 77 242 65 254 c 128,-1,0
 53 266 53 266 53 282.5 c 128,-1,1
EndSplineSet
Validated: 33
EndChar

StartChar: comma
Encoding: 44 44 15
Width: 296
Flags: W
LayerCount: 2
Fore
SplineSet
129 0 m 0,0,1
 129 1 129 1 129 1 c 1,2,-1
 107 26 l 2,3,4
 96 37 96 37 96 53 c 1,5,6
 94 58 94 58 93 63 c 0,7,8
 90 84 90 84 103 108 c 0,9,10
 117 133 117 133 143 142 c 0,11,12
 161 149 161 149 180 148 c 0,13,14
 208 146 208 146 227 122 c 0,15,16
 245 100 245 100 243 67 c 0,17,18
 242 40 242 40 216 -10 c 0,19,20
 192 -55 192 -55 172 -81 c 0,21,22
 154 -104 154 -104 140 -123 c 2,23,-1
 126 -143 l 2,24,25
 117 -156 117 -156 100 -159 c 128,-1,26
 83 -162 83 -162 69.5 -152 c 128,-1,27
 56 -142 56 -142 53.5 -125.5 c 128,-1,28
 51 -109 51 -109 60 -95 c 1,29,-1
 75 -76 l 1,30,31
 89 -56 89 -56 108 -32 c 1,32,33
 117 -19 117 -19 129 0 c 0,0,1
EndSplineSet
Validated: 33
EndChar

StartChar: hyphen
Encoding: 45 45 16
Width: 474
Flags: W
LayerCount: 2
Fore
SplineSet
53.5 266.5 m 128,-1,1
 51 283 51 283 61 296.5 c 128,-1,2
 71 310 71 310 87 313 c 2,3,-1
 118 318 l 2,4,5
 152 324 152 324 212 325 c 0,6,7
 271 326 271 326 316 322 c 0,8,9
 357 318 357 318 368 317 c 1,10,-1
 382 317 l 2,11,12
 398 317 398 317 410 305 c 128,-1,13
 422 293 422 293 422 276.5 c 128,-1,14
 422 260 422 260 409.5 248 c 128,-1,15
 397 236 397 236 381 236 c 2,16,-1
 368 236 l 1,17,18
 352 237 352 237 308 241 c 0,19,20
 268 245 268 245 214 244 c 256,21,22
 160 243 160 243 131 238 c 2,23,-1
 100 233 l 2,24,25
 84 230 84 230 70 240 c 128,-1,0
 56 250 56 250 53.5 266.5 c 128,-1,1
EndSplineSet
Validated: 33
EndChar

StartChar: period
Encoding: 46 46 17
Width: 267
Flags: W
LayerCount: 2
Fore
SplineSet
60 72 m 1,0,1
 65 96 65 96 88 103 c 2,2,-1
 101 107 l 2,3,4
 121 114 121 114 142 112 c 0,5,6
 171 110 171 110 192 89 c 0,7,8
 216 65 216 65 214 40 c 0,9,10
 212 20 212 20 195 -1 c 1,11,12
 176 -22 176 -22 146 -27 c 256,13,14
 116 -32 116 -32 89 -14 c 0,15,16
 64 2 64 2 57 23 c 1,17,18
 47 48 47 48 60 72 c 1,0,1
EndSplineSet
Validated: 33
EndChar

StartChar: slash
Encoding: 47 47 18
Width: 512
Flags: W
LayerCount: 2
Fore
SplineSet
88.5 -152 m 128,-1,1
 72 -150 72 -150 61.5 -137 c 128,-1,2
 51 -124 51 -124 53 -107 c 2,3,-1
 57 -76 l 2,4,5
 61 -42 61 -42 81 29 c 0,6,7
 100 100 100 100 129.5 169.5 c 128,-1,8
 159 239 159 239 207 323 c 0,9,10
 254 404 254 404 277 449 c 0,11,12
 301 494 301 494 313.5 522.5 c 128,-1,13
 326 551 326 551 330 563 c 1,14,15
 336 577 336 577 347.5 604 c 128,-1,16
 359 631 359 631 367 647 c 0,17,18
 374 660 374 660 377 670 c 1,19,-1
 382 681 l 1,20,21
 387 696 387 696 402.5 703 c 128,-1,22
 418 710 418 710 433.5 704.5 c 128,-1,23
 449 699 449 699 456 683.5 c 128,-1,24
 463 668 463 668 457 652 c 2,25,-1
 453 641 l 2,26,27
 448 628 448 628 440 611 c 0,28,29
 432 596 432 596 421.5 571.5 c 128,-1,30
 411 547 411 547 406 535 c 0,31,32
 401 521 401 521 387.5 490 c 128,-1,33
 374 459 374 459 349 412 c 0,34,35
 325 365 325 365 278 283 c 0,36,37
 232 203 232 203 204.5 138 c 128,-1,38
 177 73 177 73 159 8 c 256,39,40
 141 -57 141 -57 137 -85 c 1,41,-1
 134 -117 l 2,42,43
 132 -133 132 -133 118.5 -143.5 c 128,-1,0
 105 -154 105 -154 88.5 -152 c 128,-1,1
EndSplineSet
Validated: 33
EndChar

StartChar: zero
Encoding: 48 48 19
Width: 647
Flags: W
LayerCount: 2
Fore
SplineSet
61 126 m 128,-1,1
 51 139 51 139 53.5 156 c 128,-1,2
 56 173 56 173 69 183 c 2,3,-1
 98 204 l 2,4,5
 107 210 107 210 118 218 c 1,6,7
 118 220 118 220 118 223 c 0,8,9
 115 241 115 241 113.5 257.5 c 128,-1,10
 112 274 112 274 111 291 c 0,11,12
 110 309 110 309 110 328 c 1,13,14
 111 346 111 346 114 379 c 0,15,16
 117 410 117 410 119 426 c 0,17,18
 121 445 121 445 127 464 c 0,19,20
 132 480 132 480 139 500 c 0,21,22
 147 521 147 521 151 530 c 0,23,24
 157 543 157 543 178 567 c 0,25,26
 197 588 197 588 220 609 c 0,27,28
 236 623 236 623 252 634 c 0,29,30
 258 638 258 638 264 642 c 1,31,32
 275 653 275 653 287 658 c 0,33,34
 292 660 292 660 299 662 c 1,35,36
 305 666 305 666 310 668 c 2,37,-1
 327 676 l 2,38,39
 342 683 342 683 358 677.5 c 128,-1,40
 374 672 374 672 381 657 c 1,41,42
 388 654 388 654 394 652 c 0,43,44
 408 646 408 646 423 638 c 0,45,46
 439 629 439 629 460 614 c 0,47,48
 486 594 486 594 497 574 c 0,49,50
 505 559 505 559 510 542 c 0,51,52
 514 527 514 527 520 494 c 0,53,54
 526 462 526 462 529 439 c 1,55,-1
 530 440 l 1,56,57
 543 449 543 449 560 446.5 c 128,-1,58
 577 444 577 444 586.5 431 c 128,-1,59
 596 418 596 418 593.5 401 c 128,-1,60
 591 384 591 384 578 374 c 2,61,-1
 566 365 l 1,62,63
 555 358 555 358 539 347 c 1,64,65
 539 341 539 341 540 336 c 0,66,67
 542 321 542 321 544 299 c 0,68,69
 547 276 547 276 548 254 c 0,70,71
 548 233 548 233 548 215 c 0,72,73
 548 198 548 198 548 182 c 0,74,75
 547 165 547 165 545 149 c 0,76,77
 543 131 543 131 538 108 c 0,78,79
 532 82 532 82 522.5 63 c 128,-1,80
 513 44 513 44 492 21 c 0,81,82
 474 1 474 1 460 -12 c 0,83,84
 445 -27 445 -27 431 -35 c 0,85,86
 419 -43 419 -43 406 -48 c 0,87,88
 394 -53 394 -53 380 -57 c 0,89,90
 364 -61 364 -61 342 -63 c 0,91,92
 318 -65 318 -65 298 -60 c 0,93,94
 279 -55 279 -55 267 -48 c 0,95,96
 259 -43 259 -43 242 -31 c 0,97,98
 222 -18 222 -18 206 -1 c 1,99,100
 187 17 187 17 176 38 c 0,101,102
 168 54 168 54 161 68 c 0,103,104
 154 84 154 84 149 99 c 256,105,106
 144 114 144 114 139 131 c 0,107,108
 139 132 139 132 138 133 c 1,109,-1
 117 118 l 2,110,111
 104 108 104 108 87.5 110.5 c 128,-1,0
 71 113 71 113 61 126 c 128,-1,1
317 580 m 1,112,-1
 310 570 l 2,113,114
 299 556 299 556 280 554 c 1,115,116
 277 551 277 551 274 548 c 0,117,118
 255 531 255 531 239 513 c 0,119,120
 228 501 228 501 224 495 c 1,121,122
 221 488 221 488 215 473 c 0,123,124
 209 455 209 455 205 440 c 0,125,126
 201 428 201 428 199 415 c 0,127,128
 197 401 197 401 194 371 c 0,129,130
 191 342 191 342 191 326 c 256,131,132
 191 310 191 310 192 296 c 0,133,134
 193 281 193 281 194 265 c 0,135,136
 194 264 194 264 194 262 c 1,137,138
 204 267 204 267 214 273 c 0,139,140
 297 318 297 318 380 356 c 1,141,142
 423 377 423 377 452 391 c 1,143,144
 450 410 450 410 448 430 c 128,-1,145
 446 450 446 450 441 480 c 1,146,147
 435 509 435 509 432 519 c 0,148,149
 430 528 430 528 425 536 c 0,150,151
 422 541 422 541 412 548 c 0,152,153
 395 561 395 561 383 567 c 0,154,155
 372 573 372 573 364 577 c 1,156,157
 355 580 355 580 343 584 c 0,158,159
 334 586 334 586 329 587 c 1,160,161
 326 585 326 585 322 583 c 0,162,163
 320 582 320 582 317 580 c 1,112,-1
462 306 m 1,164,165
 442 296 442 296 414 283 c 0,166,167
 333 246 333 246 252 202 c 0,168,169
 229 189 229 189 210 178 c 1,170,171
 213 164 213 164 217 153 c 1,172,173
 221 138 221 138 225 126 c 128,-1,174
 229 114 229 114 235 102 c 256,175,176
 241 90 241 90 248 76 c 0,177,178
 253 66 253 66 263 56 c 0,179,180
 274 45 274 45 288 35 c 0,181,182
 303 25 303 25 309 22 c 0,183,184
 311 20 311 20 318 19 c 0,185,186
 325 17 325 17 336 18 c 0,187,188
 351 19 351 19 358 21 c 0,189,190
 368 24 368 24 375 27 c 256,191,192
 382 30 382 30 389 34 c 0,193,194
 395 38 395 38 404 46 c 0,195,196
 416 57 416 57 432 76 c 1,197,198
 446 91 446 91 450.5 100 c 128,-1,199
 455 109 455 109 459 125 c 0,200,201
 463 144 463 144 464 158 c 0,202,203
 466 172 466 172 467 186 c 0,204,205
 467 199 467 199 467 215 c 0,206,207
 467 232 467 232 467 251 c 0,208,209
 466 271 466 271 464 290 c 0,210,211
 463 299 463 299 462 306 c 1,164,165
EndSplineSet
Validated: 33
EndChar

StartChar: one
Encoding: 49 49 20
Width: 399
Flags: W
LayerCount: 2
Fore
SplineSet
53 11.5 m 128,-1,1
 52 28 52 28 63 41 c 128,-1,2
 74 54 74 54 91 55 c 2,3,-1
 131 58 l 2,4,5
 143 59 143 59 155 59 c 1,6,7
 157 70 157 70 158.5 114 c 128,-1,8
 160 158 160 158 162 197 c 0,9,10
 163 234 163 234 167 272 c 0,11,12
 171 309 171 309 177 346 c 0,13,14
 182 383 182 383 188 427.5 c 128,-1,15
 194 472 194 472 199 517 c 0,16,17
 202 539 202 539 203 558 c 1,18,19
 190 552 190 552 175 544 c 2,20,-1
 146 529 l 2,21,22
 132 522 132 522 115.5 527 c 128,-1,23
 99 532 99 532 91.5 547 c 128,-1,24
 84 562 84 562 89.5 578 c 128,-1,25
 95 594 95 594 109 601 c 2,26,-1
 138 616 l 2,27,28
 169 632 169 632 192 641 c 0,29,30
 209 647 209 647 214 650 c 0,31,32
 234 661 234 661 247 659 c 128,-1,33
 260 657 260 657 267.5 646 c 128,-1,34
 275 635 275 635 279 622.5 c 128,-1,35
 283 610 283 610 284 600 c 2,36,-1
 285 590 l 1,37,38
 286 555 286 555 280 507 c 0,39,40
 274 462 274 462 268 417 c 128,-1,41
 262 372 262 372 257 335 c 0,42,43
 252 299 252 299 248 263 c 0,44,45
 244 228 244 228 243 194 c 0,46,47
 241 157 241 157 240 111 c 1,48,49
 238 72 238 72 236 57 c 1,50,51
 250 56 250 56 260 55 c 0,52,53
 275 54 275 54 283 54 c 0,54,55
 297 54 297 54 307 52 c 2,56,-1
 313 51 l 2,57,58
 330 48 330 48 339.5 34 c 128,-1,59
 349 20 349 20 346 3.5 c 128,-1,60
 343 -13 343 -13 329 -22.5 c 128,-1,61
 315 -32 315 -32 298 -29 c 1,62,-1
 292 -27 l 2,63,64
 289 -27 289 -27 283 -27 c 0,65,66
 272 -27 272 -27 253 -25 c 0,67,68
 238 -24 238 -24 211 -23 c 1,69,70
 198 -31 198 -31 183 -29 c 0,71,72
 173 -28 173 -28 165 -22 c 1,73,74
 151 -22 151 -22 137 -23 c 2,75,-1
 96 -26 l 2,76,77
 80 -27 80 -27 67 -16 c 128,-1,0
 54 -5 54 -5 53 11.5 c 128,-1,1
EndSplineSet
Validated: 33
EndChar

StartChar: two
Encoding: 50 50 21
Width: 561
Flags: W
LayerCount: 2
Fore
SplineSet
138 400.5 m 128,-1,1
 122 404 122 404 112.5 418 c 128,-1,2
 103 432 103 432 107 449 c 2,3,-1
 113 474 l 1,4,5
 118 500 118 500 137.5 520.5 c 128,-1,6
 157 541 157 541 195 570 c 0,7,8
 266 623 266 623 315 626 c 0,9,10
 362 628 362 628 402 611 c 0,11,12
 444 594 444 594 471 556 c 0,13,14
 496 520 496 520 504 481 c 0,15,16
 512 441 512 441 506 411 c 0,17,18
 499 380 499 380 463 332 c 1,19,20
 431 291 431 291 397 252 c 0,21,22
 363 212 363 212 332 182 c 0,23,24
 302 154 302 154 262 118 c 0,25,26
 240 98 240 98 221 81 c 1,27,28
 298 92 298 92 336 93 c 0,29,30
 375 95 375 95 391.5 94 c 128,-1,31
 408 93 408 93 425 90 c 0,32,33
 438 88 438 88 443 87 c 1,34,-1
 450 87 l 1,35,36
 466 85 466 85 477 72 c 128,-1,37
 488 59 488 59 486.5 42.5 c 128,-1,38
 485 26 485 26 472 15 c 128,-1,39
 459 4 459 4 442 6 c 1,40,-1
 435 6 l 1,41,42
 427 7 427 7 411 10 c 0,43,44
 398 12 398 12 386 13 c 128,-1,45
 374 14 374 14 339 12 c 0,46,47
 304 11 304 11 226 0 c 1,48,49
 145 -10 145 -10 116 -11 c 1,50,51
 112 -10 112 -10 105 -7.5 c 128,-1,52
 98 -5 98 -5 83.5 2.5 c 128,-1,53
 69 10 69 10 61 18.5 c 128,-1,54
 53 27 53 27 54 40.5 c 128,-1,55
 55 54 55 54 72 68 c 0,56,57
 82 76 82 76 102 89 c 0,58,59
 118 100 118 100 143 121 c 0,60,61
 169 143 169 143 208 178 c 128,-1,62
 247 213 247 213 276 241 c 0,63,64
 304 268 304 268 336 305 c 256,65,66
 368 342 368 342 398 381 c 0,67,68
 424 414 424 414 426 428 c 0,69,70
 429 442 429 442 425 465 c 1,71,72
 420 487 420 487 405 509 c 0,73,74
 391 528 391 528 370 537 c 0,75,76
 347 546 347 546 320 545 c 0,77,78
 295 544 295 544 243 505 c 0,79,80
 199 472 199 472 191 456 c 1,81,-1
 186 431 l 2,82,83
 182 415 182 415 168 406 c 128,-1,0
 154 397 154 397 138 400.5 c 128,-1,1
EndSplineSet
Validated: 33
EndChar

StartChar: three
Encoding: 51 51 22
Width: 582
Flags: W
LayerCount: 2
Fore
SplineSet
55 556 m 128,-1,1
 50 572 50 572 58 587 c 128,-1,2
 66 602 66 602 82 607 c 2,3,-1
 98 612 l 2,4,5
 119 618 119 618 204 625 c 0,6,7
 291 633 291 633 347 621 c 0,8,9
 400 610 400 610 427 601 c 256,10,11
 454 592 454 592 465 586 c 0,12,13
 487 574 487 574 491 558.5 c 128,-1,14
 495 543 495 543 484.5 529.5 c 128,-1,15
 474 516 474 516 460.5 504.5 c 128,-1,16
 447 493 447 493 435 486 c 2,17,-1
 424 480 l 1,18,19
 371 446 371 446 336 428 c 0,20,21
 308 414 308 414 277 394 c 1,22,23
 322 387 322 387 377 366 c 0,24,25
 451 337 451 337 483 301 c 0,26,27
 516 264 516 264 525 227 c 0,28,29
 534 191 534 191 525 146 c 0,30,31
 516 100 516 100 496 75 c 0,32,33
 479 54 479 54 442 28 c 128,-1,34
 405 2 405 2 373 -9 c 0,35,36
 341 -21 341 -21 290 -25 c 0,37,38
 236 -29 236 -29 197 -16 c 0,39,40
 159 -4 159 -4 126 23 c 0,41,42
 93 49 93 49 77 73 c 0,43,44
 58 101 58 101 57 135 c 1,45,-1
 57 157 l 1,46,47
 56 173 56 173 67.5 185.5 c 128,-1,48
 79 198 79 198 95.5 198.5 c 128,-1,49
 112 199 112 199 124.5 187.5 c 128,-1,50
 137 176 137 176 138 159 c 1,51,-1
 138 137 l 1,52,53
 139 127 139 127 144 118 c 1,54,55
 153 105 153 105 177 86 c 0,56,57
 199 69 199 69 223 61 c 0,58,59
 246 53 246 53 284 56 c 0,60,61
 324 59 324 59 346 67 c 0,62,63
 367 75 367 75 395 94.5 c 128,-1,64
 423 114 423 114 433 126 c 0,65,66
 440 135 440 135 446 162 c 0,67,68
 451 189 451 189 447 208 c 1,69,70
 442 225 442 225 423 247 c 256,71,72
 404 269 404 269 347 290 c 1,73,74
 288 314 288 314 246 316 c 0,75,76
 203 318 203 318 177 313 c 0,77,78
 175 313 175 313 171 311.5 c 128,-1,79
 167 310 167 310 157.5 309 c 128,-1,80
 148 308 148 308 140 310.5 c 128,-1,81
 132 313 132 313 124.5 323 c 128,-1,82
 117 333 117 333 115 349 c 0,83,84
 113 362 113 362 115.5 372 c 128,-1,85
 118 382 118 382 124 388 c 128,-1,86
 130 394 130 394 135 397.5 c 128,-1,87
 140 401 140 401 146 404 c 128,-1,88
 152 407 152 407 153 407 c 0,89,90
 192 434 192 434 227 458 c 0,91,92
 264 483 264 483 300 501 c 0,93,94
 324 513 324 513 360 535 c 1,95,96
 347 538 347 538 331 542 c 0,97,98
 286 551 286 551 211 545 c 256,99,100
 136 539 136 539 122 535 c 2,101,-1
 105 529 l 1,102,103
 90 525 90 525 75 532.5 c 128,-1,0
 60 540 60 540 55 556 c 128,-1,1
EndSplineSet
Validated: 33
EndChar

StartChar: four
Encoding: 52 52 23
Width: 497
Flags: W
LayerCount: 2
Fore
SplineSet
333 659.5 m 128,-1,1
 349 655 349 655 357 640.5 c 128,-1,2
 365 626 365 626 361 610 c 2,3,-1
 358 599 l 2,4,5
 356 590 356 590 338 507 c 0,6,7
 321 424 321 424 311 366 c 0,8,9
 308 353 308 353 306 337 c 1,10,11
 326 336 326 336 336 336 c 1,12,13
 352 334 352 334 363 335 c 1,14,15
 377 335 377 335 390 336 c 1,16,-1
 403 336 l 2,17,18
 420 336 420 336 432 324.5 c 128,-1,19
 444 313 444 313 444.5 296.5 c 128,-1,20
 445 280 445 280 433.5 267.5 c 128,-1,21
 422 255 422 255 405 255 c 2,22,-1
 392 255 l 1,23,24
 380 254 380 254 367 254 c 0,25,26
 351 253 351 253 329 255 c 0,27,28
 320 256 320 256 297 257 c 1,29,30
 296 242 296 242 294 226 c 0,31,32
 287 140 287 140 286 109 c 0,33,34
 285 76 285 76 283 53 c 0,35,36
 282 31 282 31 281 7 c 256,37,38
 280 -17 280 -17 280 -26 c 2,39,-1
 280 -35 l 2,40,41
 280 -52 280 -52 268 -64 c 128,-1,42
 256 -76 256 -76 239.5 -76 c 128,-1,43
 223 -76 223 -76 211 -64 c 128,-1,44
 199 -52 199 -52 199 -35 c 2,45,-1
 199 -26 l 2,46,47
 199 -16 199 -16 200 9 c 0,48,49
 201 35 201 35 202 58 c 0,50,51
 204 81 204 81 205 112 c 0,52,53
 207 145 207 145 214 232 c 0,54,55
 215 247 215 247 216 261 c 1,56,57
 180 263 180 263 164 264 c 0,58,59
 140 266 140 266 111 272 c 0,60,61
 55 285 55 285 53 327 c 0,62,63
 52 342 52 342 63 399 c 0,64,65
 72 450 72 450 78 487 c 0,66,67
 85 526 85 526 92 570 c 2,68,-1
 100 615 l 1,69,70
 102 632 102 632 116 641.5 c 128,-1,71
 130 651 130 651 146.5 648.5 c 128,-1,72
 163 646 163 646 172.5 632 c 128,-1,73
 182 618 182 618 180 602 c 2,74,-1
 172 556 l 2,75,76
 164 507 164 507 158 474 c 0,77,78
 152 436 152 436 142 384 c 0,79,80
 139 364 139 364 136 350 c 1,81,82
 155 346 155 346 170 345 c 128,-1,83
 185 344 185 344 225 342 c 1,84,85
 228 362 228 362 231 380 c 0,86,87
 241 439 241 439 259 524 c 0,88,89
 277 610 277 610 280 621 c 2,90,-1
 283 631 l 2,91,92
 287 647 287 647 302 655.5 c 128,-1,0
 317 664 317 664 333 659.5 c 128,-1,1
EndSplineSet
Validated: 33
EndChar

StartChar: five
Encoding: 53 53 24
Width: 558
Flags: W
LayerCount: 2
Fore
SplineSet
505.5 585.5 m 128,-1,1
 504 569 504 569 491 558.5 c 128,-1,2
 478 548 478 548 461 549 c 2,3,-1
 452 550 l 2,4,5
 444 551 444 551 403 551 c 0,6,7
 361 551 361 551 329 549 c 256,8,9
 297 547 297 547 262.5 541 c 128,-1,10
 228 535 228 535 216 531 c 0,11,12
 209 529 209 529 203 528 c 1,13,14
 198 514 198 514 192 491 c 0,15,16
 181 454 181 454 176 420 c 0,17,18
 171 384 171 384 169 374 c 0,19,20
 169 372 169 372 168 368 c 1,21,22
 196 377 196 377 227 383 c 0,23,24
 263 389 263 389 299 388 c 1,25,26
 339 388 339 388 371 376 c 0,27,28
 402 365 402 365 425 348 c 0,29,30
 452 328 452 328 468 287 c 128,-1,31
 484 246 484 246 475 204 c 1,32,33
 469 168 469 168 457 140 c 1,34,35
 446 111 446 111 434.5 94 c 128,-1,36
 423 77 423 77 399 55 c 0,37,38
 373 31 373 31 349 22 c 0,39,40
 327 14 327 14 283 11 c 256,41,42
 239 8 239 8 205 17 c 1,43,44
 172 27 172 27 138 48 c 0,45,46
 105 69 105 69 87 88 c 1,47,48
 70 108 70 108 62 125 c 0,49,50
 53 145 53 145 53 170 c 2,51,-1
 53 186 l 1,52,53
 54 202 54 202 66 214 c 128,-1,54
 78 226 78 226 94.5 225.5 c 128,-1,55
 111 225 111 225 123 213 c 128,-1,56
 135 201 135 201 134 185 c 1,57,-1
 134 169 l 2,58,59
 134 162 134 162 136 159 c 0,60,61
 138 153 138 153 148 142 c 256,62,63
 158 131 158 131 181 116 c 0,64,65
 205 101 205 101 226 95 c 0,66,67
 247 90 247 90 278 92 c 0,68,69
 310 94 310 94 321 98 c 0,70,71
 330 101 330 101 344 114 c 0,72,73
 361 130 361 130 367.5 139.5 c 128,-1,74
 374 149 374 149 382 170 c 256,75,76
 390 191 390 191 396 219 c 0,77,78
 400 239 400 239 392.5 258 c 128,-1,79
 385 277 385 277 376 283 c 1,80,81
 364 293 364 293 343 300 c 0,82,83
 324 307 324 307 298 307 c 0,84,85
 269 308 269 308 242 303 c 0,86,87
 214 298 214 298 190 290 c 0,88,89
 158 279 158 279 138 277 c 0,90,91
 118 276 118 276 98.5 291.5 c 128,-1,92
 79 307 79 307 82 332 c 0,93,94
 83 345 83 345 85 362 c 1,95,96
 88 376 88 376 89 385 c 0,97,98
 90 395 90 395 96 432 c 0,99,100
 102 471 102 471 114 513 c 0,101,102
 126 553 126 553 129 564 c 0,103,104
 133 580 133 580 146.5 592 c 128,-1,105
 160 604 160 604 178 605 c 0,106,107
 183 606 183 606 193 609 c 0,108,109
 209 614 209 614 248 621 c 128,-1,110
 287 628 287 628 324 630 c 0,111,112
 359 632 359 632 403 632 c 0,113,114
 448 632 448 632 459 631 c 2,115,-1
 469 630 l 2,116,117
 485 629 485 629 496 615.5 c 128,-1,0
 507 602 507 602 505.5 585.5 c 128,-1,1
EndSplineSet
Validated: 33
EndChar

StartChar: six
Encoding: 54 54 25
Width: 541
Flags: W
LayerCount: 2
Fore
SplineSet
136 273 m 1,0,1
 148 282 148 282 165 294 c 0,2,3
 189 312 189 312 221 325 c 0,4,5
 252 337 252 337 282 342 c 256,6,7
 312 347 312 347 334 347 c 0,8,9
 357 346 357 346 380.5 339.5 c 128,-1,10
 404 333 404 333 424 322 c 0,11,12
 448 309 448 309 460 292 c 0,13,14
 469 278 469 278 476 262 c 128,-1,15
 483 246 483 246 487 225 c 0,16,17
 491 202 491 202 487 170 c 0,18,19
 483 144 483 144 481 135 c 0,20,21
 479 122 479 122 470 99 c 0,22,23
 460 73 460 73 440 46 c 0,24,25
 418 18 418 18 392 2 c 0,26,27
 372 -11 372 -11 346 -24 c 0,28,29
 315 -40 315 -40 297 -42 c 0,30,31
 280 -44 280 -44 259 -39 c 0,32,33
 239 -34 239 -34 218 -23 c 0,34,35
 200 -14 200 -14 180 -1 c 0,36,37
 159 13 159 13 143 27 c 0,38,39
 127 42 127 42 118 56 c 1,40,41
 109 68 109 68 102 83 c 0,42,43
 94 98 94 98 88 116 c 0,44,45
 83 132 83 132 77 157 c 0,46,47
 71 181 71 181 66.5 204.5 c 128,-1,48
 62 228 62 228 58 248 c 0,49,50
 54 271 54 271 53 298 c 256,51,52
 52 325 52 325 55 354 c 0,53,54
 57 383 57 383 64 408 c 1,55,56
 70 434 70 434 87 471 c 0,57,58
 104 506 104 506 120 528 c 0,59,60
 136 551 136 551 156 570 c 0,61,62
 175 588 175 588 195 604 c 0,63,64
 219 623 219 623 243 632 c 0,65,66
 265 640 265 640 289 644 c 0,67,68
 311 647 311 647 345 646 c 1,69,70
 380 646 380 646 405 641 c 1,71,72
 433 634 433 634 452 622 c 1,73,-1
 464 613 l 1,74,75
 478 604 478 604 481.5 587.5 c 128,-1,76
 485 571 485 571 475.5 557 c 128,-1,77
 466 543 466 543 449.5 540 c 128,-1,78
 433 537 433 537 419 546 c 1,79,-1
 407 555 l 2,80,81
 401 559 401 559 388 562 c 0,82,83
 371 565 371 565 345 565 c 0,84,85
 316 566 316 566 300 563 c 0,86,87
 285 561 285 561 272 556 c 0,88,89
 260 552 260 552 246 541 c 0,90,91
 229 527 229 527 212 511 c 0,92,93
 197 497 197 497 186 481 c 256,94,95
 175 465 175 465 160 435 c 0,96,97
 147 407 147 407 142 389 c 0,98,99
 137 370 137 370 136 347 c 0,100,101
 134 323 134 323 134 301 c 1,102,103
 135 286 135 286 136 273 c 1,0,1
156 174 m 1,104,105
 161 153 161 153 165 141 c 256,106,107
 169 129 169 129 174 119 c 256,108,109
 179 109 179 109 184 101 c 1,110,111
 189 95 189 95 198 87 c 0,112,113
 208 77 208 77 224 67 c 0,114,115
 241 56 241 56 255 48 c 0,116,117
 267 42 267 42 277 40 c 0,118,119
 284 38 284 38 288 38 c 1,120,121
 295 41 295 41 309 48 c 0,122,123
 332 59 332 59 350 71 c 0,124,125
 363 79 363 79 375 95 c 0,126,127
 389 113 389 113 395 128 c 0,128,129
 401 144 401 144 402 149 c 0,130,131
 403 157 403 157 406 181 c 0,132,133
 409 200 409 200 407 210 c 0,134,135
 405 223 405 223 401 231 c 0,136,137
 398 239 398 239 394 245 c 0,138,139
 391 248 391 248 385 251 c 0,140,141
 373 258 373 258 359 262 c 128,-1,142
 345 266 345 266 332 266 c 0,143,144
 318 266 318 266 296 263 c 0,145,146
 274 259 274 259 251.5 250 c 128,-1,147
 229 241 229 241 213 229 c 0,148,149
 193 215 193 215 182 206 c 0,150,151
 174 199 174 199 166.5 189 c 128,-1,152
 159 179 159 179 156 174 c 1,104,105
EndSplineSet
Validated: 33
EndChar

StartChar: seven
Encoding: 55 55 26
Width: 577
Flags: W
LayerCount: 2
Fore
SplineSet
166 326.5 m 128,-1,1
 166 343 166 343 178.5 355 c 128,-1,2
 191 367 191 367 207 367 c 2,3,-1
 225 366 l 2,4,5
 240 366 240 366 311 376 c 0,6,7
 321 377 321 377 330 378 c 1,8,9
 338 393 338 393 346 408 c 0,10,11
 376 462 376 462 407 519 c 0,12,13
 419 541 419 541 428 557 c 1,14,15
 423 558 423 558 419 558 c 0,16,17
 395 560 395 560 358 562 c 0,18,19
 322 564 322 564 242 563 c 0,20,21
 159 561 159 561 125 562 c 1,22,-1
 93 562 l 2,23,24
 76 562 76 562 64.5 574 c 128,-1,25
 53 586 53 586 53 603 c 128,-1,26
 53 620 53 620 65.5 631.5 c 128,-1,27
 78 643 78 643 94 643 c 2,28,-1
 127 643 l 1,29,30
 158 642 158 642 240 644 c 1,31,32
 324 645 324 645 363 643 c 0,33,34
 401 641 401 641 425 639 c 0,35,36
 450 637 450 637 469 635 c 0,37,38
 514 630 514 630 523 595 c 0,39,40
 529 570 529 570 515 546 c 0,41,42
 509 536 509 536 478 480 c 0,43,44
 450 429 450 429 427 386 c 1,45,46
 444 386 444 386 452 386 c 2,47,-1
 461 386 l 2,48,49
 478 386 478 386 490 374.5 c 128,-1,50
 502 363 502 363 502 346 c 128,-1,51
 502 329 502 329 490 317 c 128,-1,52
 478 305 478 305 461 305 c 2,53,-1
 452 305 l 2,54,55
 442 305 442 305 416 305 c 0,56,57
 406 305 406 305 383 303 c 1,58,59
 373 282 373 282 362 260 c 0,60,61
 336 203 336 203 318 159 c 0,62,63
 300 117 300 117 292 91 c 0,64,65
 283 62 283 62 280 53 c 0,66,67
 277 43 277 43 273 31 c 2,68,-1
 269 18 l 1,69,70
 263 3 263 3 248 -4.5 c 128,-1,71
 233 -12 233 -12 217.5 -7 c 128,-1,72
 202 -2 202 -2 194.5 13.5 c 128,-1,73
 187 29 187 29 192 44 c 2,74,-1
 196 56 l 2,75,76
 200 68 200 68 203 77 c 128,-1,77
 206 86 206 86 214 114 c 0,78,79
 224 145 224 145 243 191 c 0,80,81
 261 234 261 234 287 291 c 1,82,83
 242 285 242 285 224 285 c 2,84,-1
 206 286 l 2,85,86
 189 286 189 286 177.5 298 c 128,-1,0
 166 310 166 310 166 326.5 c 128,-1,1
EndSplineSet
Validated: 33
EndChar

StartChar: eight
Encoding: 56 56 27
Width: 514
Flags: W
LayerCount: 2
Fore
SplineSet
258 406 m 1,0,1
 262 408 262 408 265 410 c 0,2,3
 278 416 278 416 289 422 c 0,4,5
 300 429 300 429 320 441 c 0,6,7
 338 451 338 451 345 458 c 1,8,9
 351 462 351 462 355 467 c 0,10,11
 361 476 361 476 367 487 c 0,12,13
 373 499 373 499 378 509 c 0,14,15
 380 514 380 514 381 522 c 1,16,17
 381 531 381 531 377 543 c 0,18,19
 373 556 373 556 366 566 c 0,20,21
 357 578 357 578 347 587 c 0,22,23
 337 595 337 595 325 600 c 0,24,25
 314 604 314 604 299 603 c 0,26,27
 280 602 280 602 257 594 c 128,-1,28
 234 586 234 586 214 571 c 0,29,30
 197 558 197 558 179 523 c 0,31,32
 166 498 166 498 164 487 c 1,33,34
 166 478 166 478 172 470 c 0,35,36
 181 458 181 458 197 444 c 0,37,38
 214 430 214 430 244 414 c 0,39,40
 251 410 251 410 258 406 c 1,0,1
232 303 m 1,41,42
 221 295 221 295 207 282 c 0,43,44
 182 260 182 260 168 244 c 0,45,46
 157 231 157 231 148 212 c 0,47,48
 140 193 140 193 136.5 170 c 128,-1,49
 133 147 133 147 134 137 c 0,50,51
 136 127 136 127 140 116 c 0,52,53
 144 103 144 103 151 89 c 0,54,55
 159 74 159 74 167 61 c 0,56,57
 171 55 171 55 173 53 c 0,58,59
 180 48 180 48 191 44 c 0,60,61
 203 39 203 39 222 35 c 0,62,63
 239 31 239 31 250 32 c 0,64,65
 261 32 261 32 277 36.5 c 128,-1,66
 293 41 293 41 306 48 c 0,67,68
 320 56 320 56 331 63 c 0,69,70
 339 69 339 69 353 86 c 0,71,72
 367 102 367 102 372 116 c 0,73,74
 378 131 378 131 378 140 c 1,75,76
 379 148 379 148 377 154 c 0,77,78
 374 165 374 165 367 184 c 0,79,80
 362 199 362 199 357 206 c 0,81,82
 351 215 351 215 342 227 c 0,83,84
 335 236 335 236 322.5 248 c 128,-1,85
 310 260 310 260 295 270 c 1,86,87
 278 280 278 280 262 288 c 0,88,89
 245 297 245 297 236 301 c 2,90,-1
 232 303 l 1,41,42
174 361 m 1,91,92
 158 372 158 372 145 382 c 0,93,94
 121 402 121 402 107 422 c 0,95,96
 89 446 89 446 84 473 c 0,97,98
 80 494 80 494 86 513 c 128,-1,99
 92 532 92 532 107 561 c 0,100,101
 134 612 134 612 166 636 c 0,102,103
 195 658 195 658 229.5 670.5 c 128,-1,104
 264 683 264 683 294 684 c 0,105,106
 327 686 327 686 354 676 c 0,107,108
 380 666 380 666 399 649 c 0,109,110
 417 634 417 634 432 613 c 256,111,112
 447 592 447 592 455 567 c 0,113,114
 463 541 463 541 461 517 c 0,115,116
 460 494 460 494 451 475 c 0,117,118
 445 462 445 462 438 448 c 0,119,120
 430 434 430 434 421 421 c 0,121,122
 410 406 410 406 396 394 c 0,123,124
 384 385 384 385 361 371 c 0,125,126
 343 360 343 360 332 354 c 1,127,128
 336 346 336 346 340 339 c 2,129,-1
 342 336 l 1,130,131
 361 323 361 323 377 308 c 0,132,133
 395 291 395 291 407 275 c 0,134,135
 418 261 418 261 425 251 c 0,136,137
 434 237 434 237 443 212 c 0,138,139
 451 191 451 191 455 176 c 0,140,141
 461 156 461 156 459 134 c 0,142,143
 457 113 457 113 448 87 c 0,144,145
 438 61 438 61 416 34 c 1,146,147
 394 9 394 9 377 -3 c 0,148,149
 363 -13 363 -13 344 -23 c 0,150,151
 323 -34 323 -34 299 -41 c 128,-1,152
 275 -48 275 -48 254 -49 c 0,153,154
 233 -51 233 -51 205 -45 c 0,155,156
 179 -39 179 -39 160 -31 c 256,157,158
 141 -23 141 -23 128 -14 c 0,159,160
 111 -2 111 -2 98 19 c 0,161,162
 89 34 89 34 79 52 c 0,163,164
 69 71 69 71 63 89 c 0,165,166
 56 108 56 108 54 127 c 0,167,168
 51 147 51 147 56 181 c 128,-1,169
 61 215 61 215 74 245 c 0,170,171
 88 275 88 275 107 297 c 0,172,173
 124 317 124 317 154 343 c 0,174,175
 164 352 164 352 174 361 c 1,91,92
EndSplineSet
Validated: 33
EndChar

StartChar: nine
Encoding: 57 57 28
Width: 501
Flags: W
LayerCount: 2
Fore
SplineSet
354 397 m 1,0,1
 355 401 355 401 355 405 c 0,2,3
 360 439 360 439 365 470 c 1,4,5
 370 493 370 493 365 520 c 0,6,7
 361 543 361 543 357 550 c 1,8,9
 351 558 351 558 337 569 c 0,10,11
 322 581 322 581 305 588 c 0,12,13
 295 592 295 592 282 590 c 0,14,15
 260 586 260 586 237 576 c 1,16,17
 216 568 216 568 195 549 c 0,18,19
 172 528 172 528 159 507 c 0,20,21
 144 484 144 484 138 471 c 0,22,23
 134 463 134 463 134 450 c 0,24,25
 134 436 134 436 138 424 c 0,26,27
 143 408 143 408 148 401 c 0,28,29
 153 393 153 393 162 382 c 1,30,31
 170 374 170 374 185 366 c 0,32,33
 204 357 204 357 223 352 c 128,-1,34
 242 347 242 347 259 346 c 0,35,36
 274 345 274 345 286 349 c 0,37,38
 295 351 295 351 299 354 c 0,39,40
 310 362 310 362 323 369 c 0,41,42
 326 371 326 371 330 374 c 0,43,44
 335 378 335 378 340 383 c 0,45,46
 349 391 349 391 354 397 c 1,0,1
431 364 m 0,47,48
 426 341 426 341 419 315 c 0,49,50
 407 269 407 269 385 221 c 1,51,52
 364 172 364 172 340 133 c 0,53,54
 315 92 315 92 285 58 c 0,55,56
 256 26 256 26 224 -4 c 0,57,58
 190 -35 190 -35 176 -44 c 2,59,-1
 165 -51 l 2,60,61
 151 -59 151 -59 134.5 -55 c 128,-1,62
 118 -51 118 -51 109 -37 c 128,-1,63
 100 -23 100 -23 104 -6.5 c 128,-1,64
 108 10 108 10 122 18 c 2,65,-1
 133 25 l 2,66,67
 141 30 141 30 168 56 c 1,68,69
 198 83 198 83 224 112 c 256,70,71
 250 141 250 141 271 175 c 0,72,73
 292 210 292 210 311 253 c 0,74,75
 316 264 316 264 320 275 c 1,76,77
 314 273 314 273 308 271 c 0,78,79
 284 264 284 264 256 265 c 0,80,81
 230 266 230 266 202.5 273 c 128,-1,82
 175 280 175 280 149 294 c 0,83,84
 120 309 120 309 102 328 c 0,85,86
 88 344 88 344 79 359 c 0,87,88
 69 374 69 374 61 398 c 0,89,90
 52 424 52 424 53 452 c 0,91,92
 54 482 54 482 64 505 c 1,93,94
 73 523 73 523 90 551 c 1,95,96
 109 580 109 580 140 608 c 0,97,98
 172 638 172 638 206 652 c 1,99,100
 238 664 238 664 268 669 c 0,101,102
 305 676 305 676 338 662 c 0,103,104
 363 651 363 651 387 633 c 256,105,106
 411 615 411 615 423 597 c 0,107,108
 437 576 437 576 445 534 c 0,109,110
 452 493 452 493 445 455 c 0,111,112
 441 433 441 433 438 409 c 1,113,114
 444 393 444 393 437 377 c 1,115,-1
 433 370 l 2,116,117
 432 368 432 368 431 364 c 0,47,48
EndSplineSet
Validated: 33
EndChar

StartChar: colon
Encoding: 58 58 29
Width: 251
Flags: W
LayerCount: 2
Fore
SplineSet
90 27 m 0,0,1
 89 29 89 29 79 45.5 c 128,-1,2
 69 62 69 62 68 63 c 0,3,4
 66 65 66 65 63 69 c 0,5,6
 54 83 54 83 57 99.5 c 128,-1,7
 60 116 60 116 73 125 c 2,8,-1
 80 130 l 1,9,10
 103 145 103 145 131 136 c 0,11,12
 143 132 143 132 154 122 c 1,13,14
 190 109 190 109 197 78 c 0,15,16
 202 57 202 57 194 38 c 0,17,18
 182 8 182 8 148 4 c 0,19,20
 119 1 119 1 95 23 c 0,21,22
 94 25 94 25 93 25 c 128,-1,23
 92 25 92 25 90 27 c 0,0,1
169 387 m 1,24,25
 182 369 182 369 181 350 c 1,26,27
 183 334 183 334 175 318 c 128,-1,28
 167 302 167 302 152 295 c 1,29,30
 134 288 134 288 107 291 c 1,31,32
 82 295 82 295 69.5 314 c 128,-1,33
 57 333 57 333 55 354 c 0,34,35
 53 367 53 367 54 380 c 1,36,37
 52 390 52 390 54 401 c 1,38,39
 59 419 59 419 76 427 c 1,40,-1
 86 438 l 2,41,42
 98 450 98 450 114.5 450.5 c 128,-1,43
 131 451 131 451 143.5 440 c 128,-1,44
 156 429 156 429 156 411 c 1,45,-1
 161 405 l 2,46,47
 167 397 167 397 169 387 c 1,24,25
EndSplineSet
Validated: 33
EndChar

StartChar: less
Encoding: 60 60 31
Width: 591
Flags: W
LayerCount: 2
Fore
SplineSet
538 430.5 m 128,-1,1
 541 414 541 414 531 400.5 c 128,-1,2
 521 387 521 387 505 384 c 2,3,-1
 493 382 l 2,4,5
 482 380 482 380 462 375 c 0,6,7
 445 371 445 371 401 352 c 0,8,9
 354 332 354 332 321 315 c 1,10,11
 286 299 286 299 244 277 c 0,12,13
 205 257 205 257 190 250 c 1,14,15
 201 246 201 246 215 241 c 0,16,17
 265 223 265 223 321 201 c 0,18,19
 378 179 378 179 412 162 c 256,20,21
 446 145 446 145 460 137 c 128,-1,22
 474 129 474 129 482 124 c 2,23,-1
 488 120 l 2,24,25
 502 111 502 111 505.5 94.5 c 128,-1,26
 509 78 509 78 500.5 64 c 128,-1,27
 492 50 492 50 475.5 46.5 c 128,-1,28
 459 43 459 43 445 52 c 2,29,-1
 438 56 l 2,30,31
 433 59 433 59 420.5 66.5 c 128,-1,32
 408 74 408 74 376 89 c 1,33,34
 345 105 345 105 291 126 c 0,35,36
 236 148 236 148 188 165 c 0,37,38
 141 182 141 182 119 185 c 1,39,40
 92 190 92 190 82 193 c 256,41,42
 72 196 72 196 62.5 211 c 128,-1,43
 53 226 53 226 53.5 244 c 128,-1,44
 54 262 54 262 69 272 c 0,45,46
 75 277 75 277 105 295 c 0,47,48
 137 315 137 315 153 322 c 0,49,50
 165 328 165 328 207 349 c 0,51,52
 250 371 250 371 285 388 c 256,53,54
 320 405 320 405 368 426 c 0,55,56
 419 449 419 449 444 454 c 0,57,58
 466 459 466 459 479 461 c 1,59,-1
 491 464 l 1,60,61
 507 466 507 466 521 456.5 c 128,-1,0
 535 447 535 447 538 430.5 c 128,-1,1
EndSplineSet
Validated: 33
EndChar

StartChar: equal
Encoding: 61 61 32
Width: 586
Flags: W
LayerCount: 2
Fore
SplineSet
76.5 218.5 m 128,-1,1
 73 235 73 235 82 249 c 128,-1,2
 91 263 91 263 108 266 c 1,3,-1
 120 269 l 2,4,5
 134 272 134 272 183 278 c 1,6,7
 234 283 234 283 305 280 c 1,8,9
 372 276 372 276 402 274 c 1,10,11
 430 271 430 271 458 268 c 0,12,13
 484 265 484 265 489 265 c 2,14,-1
 495 265 l 1,15,16
 512 264 512 264 523.5 251.5 c 128,-1,17
 535 239 535 239 534 222.5 c 128,-1,18
 533 206 533 206 520.5 194.5 c 128,-1,19
 508 183 508 183 491 184 c 1,20,-1
 485 184 l 2,21,22
 477 184 477 184 449 187 c 0,23,24
 422 190 422 190 394 193 c 0,25,26
 367 196 367 196 300 199 c 0,27,28
 237 202 237 202 193 197 c 0,29,30
 147 192 147 192 137 190 c 2,31,-1
 125 187 l 1,32,33
 108 184 108 184 94 193 c 128,-1,0
 80 202 80 202 76.5 218.5 c 128,-1,1
53 415.5 m 128,-1,35
 51 432 51 432 62 445 c 128,-1,36
 73 458 73 458 89 460 c 2,37,-1
 107 462 l 2,38,39
 124 464 124 464 173 469 c 0,40,41
 224 475 224 475 281 476 c 0,42,43
 338 478 338 478 380 477 c 0,44,45
 423 476 423 476 438 473 c 0,46,47
 450 471 450 471 459 469 c 2,48,-1
 467 467 l 2,49,50
 484 463 484 463 492.5 448.5 c 128,-1,51
 501 434 501 434 497.5 418 c 128,-1,52
 494 402 494 402 479.5 393 c 128,-1,53
 465 384 465 384 449 388 c 2,54,-1
 441 390 l 2,55,56
 433 391 433 391 423 393 c 0,57,58
 414 395 414 395 378 396 c 0,59,60
 338 397 338 397 284 395 c 1,61,62
 229 394 229 394 182 389 c 0,63,64
 133 384 133 384 116 382 c 2,65,-1
 98 380 l 2,66,67
 82 378 82 378 68.5 388.5 c 128,-1,34
 55 399 55 399 53 415.5 c 128,-1,35
EndSplineSet
Validated: 33
EndChar

StartChar: greater
Encoding: 62 62 33
Width: 563
Flags: W
LayerCount: 2
Fore
SplineSet
58 449.5 m 128,-1,1
 66 464 66 464 82.5 468.5 c 128,-1,2
 99 473 99 473 113 465 c 2,3,-1
 142 449 l 2,4,5
 170 434 170 434 190 424 c 0,6,7
 209 415 209 415 250 400 c 0,8,9
 293 385 293 385 310 378 c 0,10,11
 326 372 326 372 350 361 c 0,12,13
 373 351 373 351 381 348 c 0,14,15
 391 344 391 344 409 336.5 c 128,-1,16
 427 329 427 329 437 324 c 256,17,18
 447 319 447 319 458 313 c 0,19,20
 472 305 472 305 482 297 c 0,21,22
 490 290 490 290 497 282 c 0,23,24
 507 271 507 271 509.5 254 c 128,-1,25
 512 237 512 237 503 220 c 0,26,27
 499 214 499 214 494.5 209 c 128,-1,28
 490 204 490 204 484 200.5 c 128,-1,29
 478 197 478 197 474.5 195.5 c 128,-1,30
 471 194 471 194 463 191.5 c 128,-1,31
 455 189 455 189 453 188 c 0,32,33
 427 179 427 179 401 169 c 0,34,35
 375 160 375 160 341 147 c 128,-1,36
 307 134 307 134 271 121 c 1,37,38
 236 107 236 107 209 94 c 0,39,40
 183 82 183 82 169 73 c 0,41,42
 154 63 154 63 148 58 c 2,43,-1
 140 52 l 2,44,45
 127 42 127 42 110.5 44 c 128,-1,46
 94 46 94 46 83.5 58.5 c 128,-1,47
 73 71 73 71 75 88 c 128,-1,48
 77 105 77 105 90 115 c 2,49,-1
 97 121 l 2,50,51
 106 129 106 129 124 140 c 1,52,53
 143 153 143 153 174 168 c 0,54,55
 204 182 204 182 242 196 c 0,56,57
 278 210 278 210 312.5 223 c 128,-1,58
 347 236 347 236 373 245 c 0,59,60
 385 250 385 250 396 254 c 1,61,62
 388 257 388 257 377 262 c 0,63,64
 361 269 361 269 352 272 c 0,65,66
 342 276 342 276 318 287 c 0,67,68
 295 297 295 297 280 303 c 256,69,70
 265 309 265 309 223 324 c 0,71,72
 177 340 177 340 154 351 c 0,73,74
 133 362 133 362 103 378 c 1,75,-1
 74 395 l 2,76,77
 59 403 59 403 54.5 419 c 128,-1,0
 50 435 50 435 58 449.5 c 128,-1,1
EndSplineSet
Validated: 33
EndChar

StartChar: question
Encoding: 63 63 34
Width: 507
Flags: W
LayerCount: 2
Fore
SplineSet
276 65 m 1,0,1
 293 44 293 44 282 20 c 0,2,3
 276 8 276 8 263 2 c 128,-1,4
 250 -4 250 -4 236 -1 c 1,5,6
 219 -4 219 -4 203 1 c 0,7,8
 196 3 196 3 189 7 c 1,9,10
 180 9 180 9 172 13 c 0,11,12
 162 18 162 18 155.5 35.5 c 128,-1,13
 149 53 149 53 154 71.5 c 128,-1,14
 159 90 159 90 177 95 c 0,15,16
 188 99 188 99 204 101 c 0,17,18
 236 107 236 107 258 89 c 0,19,20
 269 80 269 80 276 65 c 1,0,1
98 448 m 1,21,22
 82 447 82 447 69 457.5 c 128,-1,23
 56 468 56 468 54 485 c 2,24,-1
 53 491 l 1,25,26
 52 506 52 506 56.5 518 c 128,-1,27
 61 530 61 530 66.5 536 c 128,-1,28
 72 542 72 542 83 551.5 c 128,-1,29
 94 561 94 561 99 566 c 0,30,31
 137 607 137 607 168 626 c 0,32,33
 200 646 200 646 235 656 c 0,34,35
 271 667 271 667 310 664 c 0,36,37
 346 661 346 661 371 652 c 0,38,39
 401 642 401 642 418 624 c 0,40,41
 432 609 432 609 439 595 c 0,42,43
 445 582 445 582 450 559.5 c 128,-1,44
 455 537 455 537 454 518 c 1,45,46
 454 497 454 497 448 482 c 256,47,48
 442 467 442 467 426 450 c 0,49,50
 414 437 414 437 395 420 c 256,51,52
 376 403 376 403 354 389 c 0,53,54
 337 377 337 377 324 366 c 0,55,56
 310 353 310 353 298 341 c 0,57,58
 287 329 287 329 277 315 c 0,59,60
 268 302 268 302 262 291 c 0,61,62
 258 282 258 282 254 265 c 1,63,64
 251 246 251 246 251 235 c 0,65,66
 250 222 250 222 251 204 c 256,67,68
 252 186 252 186 254 168 c 2,69,-1
 257 148 l 1,70,71
 258 132 258 132 247.5 118.5 c 128,-1,72
 237 105 237 105 220.5 103.5 c 128,-1,73
 204 102 204 102 191 112.5 c 128,-1,74
 178 123 178 123 176 139 c 2,75,-1
 174 159 l 2,76,77
 172 179 172 179 171 200 c 1,78,79
 169 220 169 220 170 236 c 1,80,81
 170 254 170 254 175 280 c 0,82,83
 180 308 180 308 190 327 c 0,84,85
 198 344 198 344 212 363 c 0,86,87
 225 381 225 381 240 397 c 0,88,89
 254 411 254 411 270 426 c 0,90,91
 287 441 287 441 309 456 c 0,92,93
 326 467 326 467 342 481 c 0,94,95
 357 495 357 495 366 505 c 1,96,97
 371 509 371 509 373 513 c 0,98,99
 373 515 373 515 373 520 c 0,100,101
 374 529 374 529 371 542 c 256,102,103
 368 555 368 555 366 560 c 0,104,105
 364 563 364 563 359 568 c 0,106,107
 356 572 356 572 345 576 c 0,108,109
 330 581 330 581 303 583 c 0,110,111
 279 585 279 585 257 578 c 1,112,113
 233 572 233 572 212 558 c 0,114,115
 189 543 189 543 157 510 c 0,116,117
 143 495 143 495 135 485 c 1,118,119
 133 470 133 470 123 460 c 128,-1,120
 113 450 113 450 98 448 c 1,21,22
EndSplineSet
Validated: 33
EndChar

StartChar: at
Encoding: 64 64 35
Width: 850
Flags: W
LayerCount: 2
Fore
SplineSet
568 220 m 0,0,1
 565 197 565 197 563 171 c 0,2,3
 561 154 561 154 560 139 c 0,4,5
 557 97 557 97 559 79 c 0,6,7
 561 60 561 60 567 50 c 0,8,9
 571 44 571 44 582 39 c 0,10,11
 590 35 590 35 600 38 c 0,12,13
 617 43 617 43 636 58 c 1,14,15
 658 77 658 77 676 100 c 0,16,17
 693 122 693 122 705 155 c 0,18,19
 717 187 717 187 717 227 c 0,20,21
 716 271 716 271 712 307 c 0,22,23
 708 340 708 340 700 361 c 0,24,25
 691 386 691 386 681 407 c 0,26,27
 672 424 672 424 656 443 c 0,28,29
 639 463 639 463 615 480 c 256,30,31
 591 497 591 497 552 513 c 0,32,33
 513 530 513 530 474 536 c 0,34,35
 437 542 437 542 392 535 c 0,36,37
 347 527 347 527 302 501 c 1,38,39
 256 473 256 473 219 431 c 1,40,41
 182 391 182 391 159 329 c 0,42,43
 136 265 136 265 134 213 c 1,44,45
 133 159 133 159 145 111 c 0,46,47
 158 58 158 58 168 31 c 1,48,49
 176 6 176 6 193 -22 c 0,50,51
 211 -51 211 -51 221 -62.5 c 128,-1,52
 231 -74 231 -74 247 -87 c 256,53,54
 263 -100 263 -100 287 -115 c 1,55,56
 315 -130 315 -130 332 -140 c 1,57,58
 345 -146 345 -146 367 -149 c 0,59,60
 392 -153 392 -153 412 -154 c 0,61,62
 430 -155 430 -155 455 -152 c 0,63,64
 478 -150 478 -150 504 -141 c 0,65,66
 534 -130 534 -130 560 -118 c 1,67,68
 585 -108 585 -108 600 -99 c 1,69,70
 616 -88 616 -88 639 -72 c 1,71,72
 658 -57 658 -57 664 -50 c 0,73,74
 668 -46 668 -46 669 -41 c 2,75,-1
 673 -28 l 2,76,77
 677 -12 677 -12 691.5 -3.5 c 128,-1,78
 706 5 706 5 722 0.5 c 128,-1,79
 738 -4 738 -4 746.5 -19 c 128,-1,80
 755 -34 755 -34 751 -50 c 2,81,-1
 747 -63 l 2,82,83
 741 -84 741 -84 727 -102 c 1,84,85
 714 -117 714 -117 687 -137 c 0,86,87
 662 -155 662 -155 643 -167 c 0,88,89
 622 -180 622 -180 592 -193 c 0,90,91
 563 -205 563 -205 532 -217 c 0,92,93
 497 -230 497 -230 463 -233 c 0,94,95
 433 -236 433 -236 408 -235 c 0,96,97
 385 -234 385 -234 354 -230 c 1,98,99
 320 -224 320 -224 295 -211 c 0,100,101
 276 -201 276 -201 247 -185 c 0,102,103
 216 -167 216 -167 195 -150 c 0,104,105
 174 -132 174 -132 160 -116 c 128,-1,106
 146 -100 146 -100 124 -64 c 256,107,108
 102 -28 102 -28 91 5 c 0,109,110
 81 35 81 35 66 91 c 0,111,112
 51 150 51 150 53 215 c 0,113,114
 55 281 55 281 83 357 c 0,115,116
 112 433 112 433 159 485 c 0,117,118
 204 536 204 536 261 570 c 0,119,120
 318 605 318 605 378 615 c 256,121,122
 438 625 438 625 488 616 c 0,123,124
 535 608 535 608 583 588 c 0,125,126
 631 569 631 569 663 546 c 0,127,128
 694 523 694 523 717 496 c 256,129,130
 740 469 740 469 753 442 c 0,131,132
 765 418 765 418 776 390 c 0,133,134
 788 359 788 359 793 316 c 0,135,136
 797 276 797 276 798 227 c 1,137,138
 798 173 798 173 782 127 c 1,139,140
 765 82 765 82 740 50 c 0,141,142
 717 20 717 20 687 -4 c 1,143,144
 655 -31 655 -31 623 -40 c 0,145,146
 584 -51 584 -51 548 -35 c 0,147,148
 515 -20 515 -20 498 9 c 1,149,150
 483 32 483 32 479 67 c 1,151,152
 452 33 452 33 415 -2 c 0,153,154
 374 -40 374 -40 345 -53 c 0,155,156
 306 -71 306 -71 272 -56 c 0,157,158
 242 -42 242 -42 218 3 c 0,159,160
 195 48 195 48 208 137 c 1,161,162
 222 224 222 224 276 288 c 1,163,164
 326 349 326 349 370 378 c 0,165,166
 413 407 413 407 464 424 c 0,167,168
 522 443 522 443 554 431 c 1,169,-1
 572 425 l 2,170,171
 587 419 587 419 594 405 c 128,-1,172
 601 391 601 391 597 375 c 0,173,174
 597 373 597 373 597 370 c 0,175,176
 596 357 596 357 593 337 c 128,-1,177
 590 317 590 317 582 285 c 0,178,179
 575 255 575 255 571 235 c 0,180,181
 570 228 570 228 568 220 c 0,0,1
508 352 m 1,182,183
 499 350 499 350 489 347 c 0,184,185
 449 334 449 334 415 311 c 256,186,187
 381 288 381 288 338 237 c 0,188,189
 298 189 298 189 288 125 c 0,190,191
 279 63 279 63 290 40 c 1,192,193
 299 24 299 24 305 18 c 1,194,195
 308 19 308 19 312 20 c 0,196,197
 329 28 329 28 360 57 c 0,198,199
 393 88 393 88 416 118 c 0,200,201
 440 149 440 149 460 179 c 0,202,203
 478 207 478 207 483 220 c 0,204,205
 486 227 486 227 488 235 c 0,206,207
 493 274 493 274 499 307 c 0,208,209
 504 334 504 334 508 352 c 1,182,183
EndSplineSet
Validated: 33
EndChar

StartChar: A
Encoding: 65 65 36
Width: 605
Flags: W
LayerCount: 2
Fore
SplineSet
113 238 m 0,0,1
 111 261 111 261 131 275 c 1,2,3
 151 322 151 322 175 370 c 0,4,5
 224 467 224 467 248 507 c 0,6,7
 271 545 271 545 286 572 c 0,8,9
 301 598 301 598 310 615 c 0,10,11
 320 634 320 634 336 642 c 0,12,13
 359 653 359 653 376 641 c 128,-1,14
 393 629 393 629 399 617 c 0,15,16
 406 601 406 601 417 571 c 0,17,18
 428 542 428 542 452 462 c 0,19,20
 476 380 476 380 491 286 c 0,21,22
 506 195 506 195 513 160 c 0,23,24
 519 126 519 126 528 98 c 1,25,26
 536 69 536 69 543 49 c 2,27,-1
 550 29 l 2,28,29
 556 13 556 13 549 -2.5 c 128,-1,30
 542 -18 542 -18 526.5 -23.5 c 128,-1,31
 511 -29 511 -29 495.5 -22 c 128,-1,32
 480 -15 480 -15 474 1 c 2,33,-1
 467 22 l 2,34,35
 459 44 459 44 450 76 c 256,36,37
 441 108 441 108 433 145 c 0,38,39
 430 162 430 162 425 190 c 1,40,41
 421 191 421 191 412.5 191.5 c 128,-1,42
 404 192 404 192 399 192 c 0,43,44
 360 194 360 194 283 200 c 0,45,46
 218 205 218 205 189 204 c 1,47,48
 180 178 180 178 171 153 c 0,49,50
 141 64 141 64 137 46 c 2,51,-1
 133 25 l 2,52,53
 130 8 130 8 116 -1 c 128,-1,54
 102 -10 102 -10 85.5 -7 c 128,-1,55
 69 -4 69 -4 60 10 c 128,-1,56
 51 24 51 24 54 41 c 2,57,-1
 58 62 l 2,58,59
 63 86 63 86 94 179 c 0,60,61
 103 205 103 205 114 232 c 1,62,63
 113 235 113 235 113 238 c 0,0,1
224 285 m 1,64,65
 249 284 249 284 289 281 c 0,66,67
 366 275 366 275 402 273 c 0,68,69
 407 273 407 273 412 272 c 1,70,71
 411 273 411 273 411 273 c 1,72,73
 397 362 397 362 374 439 c 0,74,75
 359 490 359 490 350 520 c 1,76,77
 336 496 336 496 317 465 c 0,78,79
 294 428 294 428 247 334 c 0,80,81
 235 309 235 309 224 285 c 1,64,65
EndSplineSet
Validated: 33
EndChar

StartChar: B
Encoding: 66 66 37
Width: 536
Flags: W
LayerCount: 2
Fore
SplineSet
166 375 m 1,0,1
 187 380 187 380 221 386 c 0,2,3
 294 400 294 400 329 406 c 0,4,5
 360 412 360 412 378 420 c 0,6,7
 386 424 386 424 389 432 c 0,8,9
 395 446 395 446 393 457 c 0,10,11
 391 470 391 470 373 496 c 0,12,13
 354 523 354 523 332 537 c 0,14,15
 312 550 312 550 283 555 c 0,16,17
 250 560 250 560 220 561 c 0,18,19
 194 561 194 561 168 553 c 0,20,21
 160 551 160 551 154 548 c 1,22,23
 162 503 162 503 164 443 c 0,24,25
 166 405 166 405 166 375 c 1,0,1
166 288 m 1,26,27
 165 259 165 259 161 228 c 0,28,29
 156 183 156 183 156 142 c 0,30,31
 156 100 156 100 156 74 c 1,32,33
 161 72 161 72 168 71 c 0,34,35
 189 68 189 68 214 68 c 0,36,37
 237 68 237 68 256 72 c 0,38,39
 276 76 276 76 295 84 c 0,40,41
 313 92 313 92 326 102 c 0,42,43
 341 113 341 113 360 136 c 0,44,45
 380 159 380 159 393 180 c 1,46,47
 401 195 401 195 402 214 c 0,48,49
 403 226 403 226 390 240 c 0,50,51
 374 257 374 257 366 261 c 1,52,53
 353 265 353 265 311 273 c 0,54,55
 268 281 268 281 232 287 c 0,56,57
 201 292 201 292 178 289 c 0,58,59
 172 289 172 289 166 288 c 1,26,27
76 521 m 1,60,61
 73 523 73 523 71 525 c 0,62,63
 61 535 61 535 59 549.5 c 128,-1,64
 57 564 57 564 65 576 c 1,65,-1
 54 615 l 2,66,67
 50 631 50 631 58.5 645.5 c 128,-1,68
 67 660 67 660 83 664 c 128,-1,69
 99 668 99 668 113.5 659.5 c 128,-1,70
 128 651 128 651 133 635 c 2,71,-1
 135 627 l 1,72,73
 140 629 140 629 144 630 c 0,74,75
 182 642 182 642 221 642 c 1,76,77
 258 641 258 641 297 635 c 0,78,79
 342 627 342 627 376 605 c 0,80,81
 411 583 411 583 439 543 c 0,82,83
 469 501 469 501 473 468 c 1,84,85
 478 436 478 436 465 402 c 1,86,87
 449 364 449 364 412 347 c 0,88,89
 402 342 402 342 390 338 c 1,90,91
 392 338 392 338 392 337 c 0,92,93
 418 329 418 329 449 295 c 0,94,95
 485 256 485 256 483 210 c 0,96,97
 481 171 481 171 462 138 c 0,98,99
 446 112 446 112 422 83 c 0,100,101
 397 54 397 54 375 37 c 0,102,103
 353 21 353 21 326 9 c 1,104,105
 300 -1 300 -1 274 -7 c 0,106,107
 245 -14 245 -14 213 -13 c 0,108,109
 183 -13 183 -13 157 -9 c 0,110,111
 126 -5 126 -5 107 7 c 0,112,113
 75 26 75 26 75 74 c 0,114,115
 75 100 75 100 75 143 c 0,116,117
 76 187 76 187 81 237 c 0,118,119
 86 282 86 282 86 320 c 2,120,-1
 86 332 l 2,121,122
 86 371 86 371 83 440 c 0,123,124
 82 486 82 486 76 521 c 1,60,61
EndSplineSet
Validated: 33
EndChar

StartChar: C
Encoding: 67 67 38
Width: 578
Flags: W
LayerCount: 2
Fore
SplineSet
487.5 416.5 m 128,-1,1
 471 415 471 415 458.5 426.5 c 128,-1,2
 446 438 446 438 445 454 c 2,3,-1
 444 463 l 2,4,5
 443 468 443 468 442 475 c 1,6,7
 439 485 439 485 435 498 c 1,8,9
 433 508 433 508 427 521 c 0,10,11
 424 528 424 528 410 538 c 0,12,13
 394 550 394 550 382 552 c 1,14,15
 368 556 368 556 343 553 c 0,16,17
 320 551 320 551 274 532 c 0,18,19
 229 513 229 513 211 495 c 0,20,21
 191 474 191 474 174 448 c 0,22,23
 157 423 157 423 145 386 c 0,24,25
 133 351 133 351 134 305 c 0,26,27
 135 256 135 256 140 232 c 0,28,29
 145 207 145 207 153 184 c 1,30,31
 163 160 163 160 175 138 c 256,32,33
 187 116 187 116 205 91 c 1,34,35
 223 68 223 68 240 54 c 0,36,37
 252 45 252 45 258 43 c 1,38,39
 265 42 265 42 268 42 c 0,40,41
 278 44 278 44 299 51 c 0,42,43
 320 57 320 57 345 67 c 0,44,45
 369 77 369 77 394 91 c 0,46,47
 419 106 419 106 426 111 c 0,48,49
 428 113 428 113 428 114 c 2,50,-1
 433 124 l 2,51,52
 440 139 440 139 456 145 c 128,-1,53
 472 151 472 151 487 144 c 128,-1,54
 502 137 502 137 507.5 121 c 128,-1,55
 513 105 513 105 506 90 c 2,56,-1
 502 80 l 1,57,58
 493 61 493 61 476 47 c 0,59,60
 465 39 465 39 434.5 21.5 c 128,-1,61
 404 4 404 4 375 -8 c 0,62,63
 348 -19 348 -19 322.5 -27 c 128,-1,64
 297 -35 297 -35 284 -37 c 0,65,66
 264 -41 264 -41 242 -37 c 0,67,68
 218 -32 218 -32 189 -9 c 0,69,70
 165 11 165 11 141 42 c 0,71,72
 118 72 118 72 103 100 c 0,73,74
 89 127 89 127 78 155 c 0,75,76
 67 184 67 184 60 216 c 0,77,78
 54 248 54 248 53 304 c 0,79,80
 52 364 52 364 68 412 c 0,81,82
 84 458 84 458 106 492 c 0,83,84
 127 526 127 526 154 552 c 0,85,86
 184 581 184 581 242 606 c 0,87,88
 299 631 299 631 336 634 c 256,89,90
 373 637 373 637 399 632 c 1,91,92
 428 625 428 625 458 603 c 0,93,94
 489 580 489 580 500 554 c 1,95,96
 509 536 509 536 513 520 c 0,97,98
 517 506 517 506 520 495 c 0,99,100
 524 481 524 481 525 469 c 1,101,-1
 525 460 l 1,102,103
 527 444 527 444 515.5 431 c 128,-1,0
 504 418 504 418 487.5 416.5 c 128,-1,1
EndSplineSet
Validated: 33
EndChar

StartChar: D
Encoding: 68 68 39
Width: 594
Flags: W
LayerCount: 2
Fore
SplineSet
155 543 m 1,0,1
 155 543 155 543 155 541 c 0,2,3
 155 472 155 472 156 423 c 1,4,5
 156 373 156 373 155 331 c 0,6,7
 154 290 154 290 154 247 c 0,8,9
 154 203 154 203 154.5 167 c 128,-1,10
 155 131 155 131 155 97 c 2,11,-1
 155 73 l 1,12,13
 167 74 167 74 185 75 c 0,14,15
 228 78 228 78 254 89 c 0,16,17
 283 101 283 101 306 115 c 0,18,19
 328 129 328 129 355 158 c 0,20,21
 385 189 385 189 399 206 c 0,22,23
 414 224 414 224 425 240 c 0,24,25
 435 254 435 254 443 270 c 0,26,27
 450 284 450 284 454 304 c 0,28,29
 459 326 459 326 460 361 c 0,30,31
 461 394 461 394 456 416 c 0,32,33
 452 436 452 436 446 446 c 0,34,35
 440 457 440 457 434 463 c 0,36,37
 428 470 428 470 415 478 c 0,38,39
 399 488 399 488 384 495 c 0,40,41
 370 502 370 502 356 506 c 0,42,43
 339 512 339 512 315 519 c 1,44,45
 295 526 295 526 275 529 c 0,46,47
 254 533 254 533 225 536 c 256,48,49
 196 539 196 539 167 542 c 0,50,51
 161 542 161 542 155 543 c 1,0,1
73 559 m 1,52,53
 62 566 62 566 56.5 579 c 128,-1,54
 51 592 51 592 54 605 c 1,55,56
 60 624 60 624 78 631 c 1,57,58
 91 651 91 651 113 651 c 0,59,60
 125 651 125 651 135.5 644 c 128,-1,61
 146 637 146 637 151 625 c 1,62,63
 162 624 162 624 176 622 c 0,64,65
 204 619 204 619 234 616 c 0,66,67
 265 613 265 613 288 609 c 0,68,69
 314 605 314 605 340 596 c 0,70,71
 363 589 363 589 380 584 c 0,72,73
 400 578 400 578 420 568 c 0,74,75
 439 559 439 559 458 546 c 1,76,77
 479 533 479 533 492 519.5 c 128,-1,78
 505 506 505 506 517 486 c 0,79,80
 529 464 529 464 535 433 c 0,81,82
 542 402 542 402 541 359 c 0,83,84
 540 317 540 317 534 288 c 0,85,86
 527 256 527 256 515 233 c 0,87,88
 504 212 504 212 491 193 c 0,89,90
 478 175 478 175 462 155 c 256,91,92
 446 135 446 135 414 102 c 0,93,94
 380 66 380 66 349 47 c 1,95,96
 320 28 320 28 285 14 c 0,97,98
 246 -2 246 -2 191 -6 c 256,99,100
 136 -10 136 -10 115 -5 c 1,101,102
 74 8 74 8 74 44 c 2,103,-1
 74 97 l 2,104,105
 74 131 74 131 73.5 167 c 128,-1,106
 73 203 73 203 73 247 c 256,107,108
 73 291 73 291 74 334 c 0,109,110
 75 374 75 374 75 422 c 128,-1,111
 75 470 75 470 74 540 c 1,112,-1
 73 559 l 1,52,53
EndSplineSet
Validated: 33
EndChar

StartChar: E
Encoding: 69 69 40
Width: 514
Flags: W
LayerCount: 2
Fore
SplineSet
86 672 m 256,0,1
 102 675 102 675 116 666 c 1,2,-1
 155 673 l 2,3,4
 220 685 220 685 274 686 c 0,5,6
 328 688 328 688 356 685 c 0,7,8
 383 683 383 683 397 681 c 0,9,10
 410 680 410 680 416 679 c 1,11,-1
 423 679 l 1,12,13
 440 678 440 678 451 665 c 128,-1,14
 462 652 462 652 461 635.5 c 128,-1,15
 460 619 460 619 447.5 608 c 128,-1,16
 435 597 435 597 418 598 c 1,17,-1
 411 599 l 1,18,19
 403 599 403 599 388 601 c 0,20,21
 375 602 375 602 349 604 c 1,22,23
 326 607 326 607 276 605 c 0,24,25
 228 604 228 604 169 593 c 2,26,-1
 141 588 l 1,27,28
 143 566 143 566 145 524 c 0,29,30
 148 456 148 456 145 390 c 0,31,32
 144 384 144 384 144 375 c 1,33,34
 179 380 179 380 218 381 c 1,35,36
 260 381 260 381 286 380 c 1,37,38
 309 378 309 378 316 378 c 2,39,-1
 323 378 l 2,40,41
 339 378 339 378 351 366 c 128,-1,42
 363 354 363 354 363 337.5 c 128,-1,43
 363 321 363 321 351 309 c 128,-1,44
 339 297 339 297 323 297 c 2,45,-1
 316 297 l 2,46,47
 307 297 307 297 281 299 c 0,48,49
 258 300 258 300 219 300 c 1,50,51
 181 299 181 299 148 293 c 1,52,-1
 140 292 l 1,53,54
 140 292 140 292 140 289 c 0,55,56
 138 254 138 254 138 220 c 2,57,-1
 138 168 l 2,58,59
 138 151 138 151 137 109 c 0,60,61
 137 84 137 84 136 63 c 1,62,63
 156 65 156 65 184 69 c 0,64,65
 238 75 238 75 271 76 c 0,66,67
 303 77 303 77 331 77 c 2,68,-1
 376 77 l 2,69,70
 384 77 384 77 388 77 c 1,71,-1
 394 80 l 1,72,73
 410 85 410 85 425.5 78 c 128,-1,74
 441 71 441 71 446.5 55.5 c 128,-1,75
 452 40 452 40 445 24.5 c 128,-1,76
 438 9 438 9 423 4 c 2,77,-1
 415 1 l 2,78,79
 401 -4 401 -4 376 -4 c 2,80,-1
 331 -4 l 2,81,82
 305 -4 305 -4 274 -5 c 0,83,84
 244 -6 244 -6 193 -12 c 0,85,86
 140 -18 140 -18 119 -20 c 0,87,88
 96 -22 96 -22 79 -10 c 0,89,90
 55 8 55 8 55 44 c 0,91,92
 55 68 55 68 56 110 c 256,93,94
 57 152 57 152 57 168 c 2,95,-1
 57 220 l 2,96,97
 57 257 57 257 59 294 c 0,98,99
 61 330 61 330 64 394 c 0,100,101
 66 456 66 456 64 521 c 1,102,103
 61 584 61 584 57 603 c 1,104,-1
 54 625 l 2,105,106
 51 642 51 642 60.5 655.5 c 128,-1,107
 70 669 70 669 86 672 c 256,0,1
EndSplineSet
Validated: 33
EndChar

StartChar: F
Encoding: 70 70 41
Width: 533
Flags: W
LayerCount: 2
Fore
SplineSet
97.5 -32.5 m 128,-1,1
 81 -33 81 -33 68.5 -21.5 c 128,-1,2
 56 -10 56 -10 55 7 c 2,3,-1
 53 59 l 1,4,5
 52 114 52 114 58 189 c 0,6,7
 63 263 63 263 66 302 c 0,8,9
 69 339 69 339 70 379 c 0,10,11
 70 419 70 419 65 456 c 1,12,13
 61 497 61 497 59 518 c 256,14,15
 57 539 57 539 56 555 c 256,16,17
 55 571 55 571 54 589 c 0,18,19
 52 619 52 619 74 639 c 0,20,21
 86 649 86 649 104 654 c 0,22,23
 129 660 129 660 175 660 c 1,24,25
 216 659 216 659 301 654 c 1,26,27
 383 648 383 648 397 648 c 0,28,29
 414 648 414 648 422 648 c 0,30,31
 430 647 430 647 437 647 c 1,32,-1
 443 646 l 1,33,34
 459 645 459 645 470 632.5 c 128,-1,35
 481 620 481 620 480 603.5 c 128,-1,36
 479 587 479 587 466 575.5 c 128,-1,37
 453 564 453 564 437 566 c 1,38,-1
 431 566 l 1,39,40
 425 567 425 567 418 567 c 256,41,42
 411 567 411 567 397 567 c 0,43,44
 381 567 381 567 295 573 c 0,45,46
 213 578 213 578 174 579 c 0,47,48
 151 579 151 579 136 577 c 1,49,50
 137 568 137 568 137 560 c 0,51,52
 138 545 138 545 140 525 c 256,53,54
 142 505 142 505 146 465 c 0,55,56
 151 423 151 423 151 379 c 0,57,58
 151 366 151 366 150 354 c 1,59,60
 176 360 176 360 218 363 c 0,61,62
 271 368 271 368 326 359 c 0,63,64
 377 350 377 350 393 347 c 1,65,66
 408 343 408 343 418 342 c 2,67,-1
 429 340 l 2,68,69
 445 337 445 337 455 323 c 128,-1,70
 465 309 465 309 462 293 c 128,-1,71
 459 277 459 277 445 267 c 128,-1,72
 431 257 431 257 415 260 c 2,73,-1
 404 262 l 2,74,75
 392 264 392 264 375 268 c 0,76,77
 361 271 361 271 313 279 c 0,78,79
 268 286 268 286 224 283 c 0,80,81
 180 279 180 279 160 273 c 2,82,-1
 145 268 l 1,83,84
 142 234 142 234 138 183 c 0,85,86
 133 112 133 112 134 62 c 2,87,-1
 136 10 l 2,88,89
 137 -7 137 -7 125.5 -19.5 c 128,-1,0
 114 -32 114 -32 97.5 -32.5 c 128,-1,1
EndSplineSet
Validated: 33
EndChar

StartChar: G
Encoding: 71 71 42
Width: 659
Flags: W
LayerCount: 2
Fore
SplineSet
503 337 m 1,0,1
 526 335 526 335 534 336 c 0,2,3
 538 336 538 336 540 336 c 1,4,-1
 545 339 l 2,5,6
 559 348 559 348 575.5 343.5 c 128,-1,7
 592 339 592 339 600.5 325 c 128,-1,8
 609 311 609 311 605 294.5 c 128,-1,9
 601 278 601 278 587 270 c 2,10,-1
 580 266 l 2,11,12
 565 257 565 257 540 255 c 0,13,14
 531 254 531 254 518 255 c 1,15,16
 515 238 515 238 510 221 c 0,17,18
 502 197 502 197 490 169 c 256,19,20
 478 141 478 141 461 113 c 0,21,22
 443 84 443 84 409 49 c 0,23,24
 372 11 372 11 348 1 c 0,25,26
 325 -8 325 -8 305 -9 c 0,27,28
 286 -10 286 -10 267 -6 c 256,29,30
 248 -2 248 -2 212 12 c 0,31,32
 170 29 170 29 151 53 c 0,33,34
 136 72 136 72 111 121 c 1,35,36
 88 170 88 170 75 216 c 0,37,38
 62 261 62 261 57 294 c 0,39,40
 51 330 51 330 54 367 c 0,41,42
 58 404 58 404 73 445 c 0,43,44
 89 488 89 488 127 537 c 0,45,46
 167 588 167 588 217 618 c 0,47,48
 269 649 269 649 309 654 c 0,49,50
 348 658 348 658 379 651 c 0,51,52
 411 644 411 644 443 621 c 0,53,54
 474 598 474 598 494 570 c 1,55,56
 512 543 512 543 523 516 c 1,57,-1
 531 494 l 2,58,59
 537 479 537 479 530.5 463.5 c 128,-1,60
 524 448 524 448 508.5 442 c 128,-1,61
 493 436 493 436 477.5 442.5 c 128,-1,62
 462 449 462 449 456 465 c 2,63,-1
 447 487 l 2,64,65
 440 504 440 504 427 523 c 0,66,67
 415 541 415 541 396 555 c 0,68,69
 377 568 377 568 361 572 c 0,70,71
 343 576 343 576 318 573 c 0,72,73
 295 571 295 571 259 549 c 0,74,75
 221 526 221 526 191 488 c 0,76,77
 160 448 160 448 149 417 c 0,78,79
 137 386 137 386 135 359 c 1,80,81
 132 333 132 333 137 307 c 1,82,83
 141 278 141 278 153 238 c 0,84,85
 164 199 164 199 184 157 c 0,86,87
 204 116 204 116 214 104 c 0,88,89
 220 97 220 97 243 87 c 0,90,91
 271 76 271 76 282 74 c 0,92,93
 293 71 293 71 301 72 c 0,94,95
 307 72 307 72 317 76 c 0,96,97
 327 81 327 81 350 105 c 0,98,99
 378 134 378 134 392 156 c 256,100,101
 406 178 406 178 416 201 c 0,102,103
 426 225 426 225 432 245 c 0,104,105
 434 253 434 253 436 261 c 1,106,107
 433 261 433 261 430 261 c 0,108,109
 418 260 418 260 405 260 c 0,110,111
 388 260 388 260 380 260 c 2,112,-1
 364 260 l 2,113,114
 344 260 344 260 370 315 c 1,115,116
 384 342 384 342 388 343 c 1,117,118
 405 343 405 343 426 343 c 1,119,120
 438 345 438 345 455 348 c 0,121,122
 484 352 484 352 503 337 c 1,0,1
EndSplineSet
Validated: 33
EndChar

StartChar: H
Encoding: 72 72 43
Width: 540
Flags: W
LayerCount: 2
Fore
SplineSet
453.5 650.5 m 128,-1,1
 470 648 470 648 480 634.5 c 128,-1,2
 490 621 490 621 487 605 c 2,3,-1
 479 551 l 2,4,5
 471 497 471 497 465 446 c 1,6,7
 459 404 459 404 453 336 c 1,8,9
 467 331 467 331 474.5 317 c 128,-1,10
 482 303 482 303 478 288 c 0,11,12
 472 263 472 263 446 258 c 1,13,14
 442 211 442 211 441 183 c 0,15,16
 440 140 440 140 440 116 c 0,17,18
 441 91 441 91 442 66.5 c 128,-1,19
 443 42 443 42 444 30 c 0,20,21
 445 17 445 17 445 7 c 2,22,-1
 445 -2 l 2,23,24
 445 -18 445 -18 433 -30 c 128,-1,25
 421 -42 421 -42 404.5 -42 c 128,-1,26
 388 -42 388 -42 376 -30 c 128,-1,27
 364 -18 364 -18 364 -2 c 2,28,-1
 364 7 l 2,29,30
 364 14 364 14 363 25 c 0,31,32
 362 38 362 38 361 63.5 c 128,-1,33
 360 89 360 89 359 114 c 1,34,35
 359 140 359 140 360 186 c 0,36,37
 361 217 361 217 365 266 c 1,38,39
 362 267 362 267 347 268 c 0,40,41
 303 271 303 271 251 267 c 0,42,43
 200 263 200 263 170 254 c 2,44,-1
 155 249 l 1,45,46
 154 231 154 231 154 213 c 0,47,48
 154 136 154 136 154 107 c 256,49,50
 154 78 154 78 153 68 c 0,51,52
 153 61 153 61 153 37 c 0,53,54
 154 12 154 12 154 5 c 2,55,-1
 155 -2 l 1,56,57
 156 -18 156 -18 144.5 -31 c 128,-1,58
 133 -44 133 -44 116.5 -45 c 128,-1,59
 100 -46 100 -46 87.5 -35 c 128,-1,60
 75 -24 75 -24 74 -7 c 1,61,-1
 73 0 l 1,62,63
 73 8 73 8 72 36 c 0,64,65
 72 63 72 63 73 73 c 0,66,67
 73 81 73 81 73 108 c 0,68,69
 73 136 73 136 73 213 c 0,70,71
 74 290 74 290 75 375 c 0,72,73
 76 457 76 457 72 531 c 0,74,75
 69 597 69 597 64 612 c 1,76,-1
 56 630 l 1,77,78
 50 646 50 646 56.5 661.5 c 128,-1,79
 63 677 63 677 78 683.5 c 128,-1,80
 93 690 93 690 109 683.5 c 128,-1,81
 125 677 125 677 131 661 c 2,82,-1
 139 642 l 2,83,84
 149 617 149 617 153 535 c 0,85,86
 157 458 157 458 156 373 c 0,87,88
 156 354 156 354 155 334 c 1,89,90
 191 343 191 343 244 348 c 0,91,92
 302 353 302 353 353 349 c 0,93,94
 363 348 363 348 372 347 c 1,95,96
 378 414 378 414 384 457 c 0,97,98
 391 509 391 509 399 563 c 2,99,-1
 407 617 l 2,100,101
 410 633 410 633 423.5 643 c 128,-1,0
 437 653 437 653 453.5 650.5 c 128,-1,1
EndSplineSet
Validated: 33
EndChar

StartChar: I
Encoding: 73 73 44
Width: 522
Flags: W
LayerCount: 2
Fore
SplineSet
109 637.5 m 128,-1,1
 107 654 107 654 117.5 667.5 c 128,-1,2
 128 681 128 681 144 683 c 2,3,-1
 158 685 l 2,4,5
 175 687 175 687 231 687 c 1,6,7
 285 688 285 688 317 686 c 0,8,9
 348 685 348 685 364 684 c 0,10,11
 379 684 379 684 385 684 c 2,12,-1
 429 684 l 2,13,14
 446 684 446 684 458 672 c 128,-1,15
 470 660 470 660 470 643.5 c 128,-1,16
 470 627 470 627 458 615 c 128,-1,17
 446 603 446 603 429 603 c 2,18,-1
 385 603 l 2,19,20
 378 603 378 603 361 603 c 1,21,22
 347 604 347 604 322 605 c 1,23,24
 322 593 322 593 321 555 c 0,25,26
 320 495 320 495 318 434 c 128,-1,27
 316 373 316 373 314 317 c 128,-1,28
 312 261 312 261 310 213 c 0,29,30
 308 164 308 164 307.5 131 c 128,-1,31
 307 98 307 98 307 88 c 0,32,33
 307 84 307 84 307 79 c 1,34,35
 334 80 334 80 350 79 c 0,36,37
 370 78 370 78 379 76 c 1,38,39
 389 75 389 75 401 72 c 0,40,41
 408 70 408 70 410 70 c 2,42,-1
 417 69 l 1,43,44
 433 68 433 68 444 55.5 c 128,-1,45
 455 43 455 43 454 26.5 c 128,-1,46
 453 10 453 10 440 -1.5 c 128,-1,47
 427 -13 427 -13 411 -11 c 1,48,-1
 404 -11 l 1,49,50
 394 -10 394 -10 381 -7 c 0,51,52
 373 -5 373 -5 367 -4 c 256,53,54
 361 -3 361 -3 344 -1 c 1,55,56
 331 -1 331 -1 296 -3 c 1,57,58
 283 -18 283 -18 264 -17 c 0,59,60
 251 -17 251 -17 240 -9 c 1,61,62
 218 -12 218 -12 195 -18 c 0,63,64
 148 -31 148 -31 128 -38 c 2,65,-1
 107 -45 l 2,66,67
 91 -51 91 -51 76 -43.5 c 128,-1,68
 61 -36 61 -36 55.5 -20.5 c 128,-1,69
 50 -5 50 -5 57.5 10.5 c 128,-1,70
 65 26 65 26 80 31 c 2,71,-1
 102 39 l 2,72,73
 124 46 124 46 174 60 c 0,74,75
 200 67 200 67 226 71 c 1,76,77
 226 81 226 81 226 88 c 0,78,79
 226 98 226 98 227 132 c 0,80,81
 227 166 227 166 229 215.5 c 128,-1,82
 231 265 231 265 233 320.5 c 128,-1,83
 235 376 235 376 237 436 c 128,-1,84
 239 496 239 496 240 556 c 0,85,86
 240 569 240 569 240 606 c 1,87,-1
 231 606 l 2,88,89
 181 606 181 606 169 605 c 2,90,-1
 155 603 l 2,91,92
 138 601 138 601 124.5 611 c 128,-1,0
 111 621 111 621 109 637.5 c 128,-1,1
EndSplineSet
Validated: 33
EndChar

StartChar: J
Encoding: 74 74 45
Width: 640
Flags: W
LayerCount: 2
Fore
SplineSet
395 652 m 1,0,1
 401 652 401 652 403 652 c 0,2,3
 450 650 450 650 464 650 c 1,4,5
 476 649 476 649 494 650 c 0,6,7
 510 650 510 650 516 652 c 0,8,9
 522 653 522 653 526 654 c 2,10,-1
 533 657 l 2,11,12
 548 663 548 663 563.5 655.5 c 128,-1,13
 579 648 579 648 585 632.5 c 128,-1,14
 591 617 591 617 583.5 602 c 128,-1,15
 576 587 576 587 561 581 c 2,16,-1
 554 578 l 1,17,18
 544 575 544 575 532 572 c 0,19,20
 520 570 520 570 497 569 c 0,21,22
 475 568 475 568 460 569 c 0,23,24
 451 569 451 569 426 570 c 1,25,26
 425 565 425 565 425 560 c 0,27,28
 424 548 424 548 423 532 c 0,29,30
 422 517 422 517 421 498 c 1,31,32
 421 476 421 476 419 448 c 1,33,34
 416 424 416 424 417 380 c 1,35,36
 417 334 417 334 416 310 c 256,37,38
 415 286 415 286 413 265 c 0,39,40
 411 243 411 243 409 232 c 0,41,42
 407 220 407 220 400 191 c 0,43,44
 392 158 392 158 353 84 c 0,45,46
 338 54 338 54 329.5 39.5 c 128,-1,47
 321 25 321 25 306.5 9 c 128,-1,48
 292 -7 292 -7 276 -15 c 0,49,50
 244 -29 244 -29 215 -27 c 0,51,52
 189 -25 189 -25 161 -11 c 0,53,54
 136 2 136 2 116 16 c 1,55,56
 90 36 90 36 78 63 c 0,57,58
 69 84 69 84 63 112 c 0,59,60
 58 139 58 139 55 171 c 0,61,62
 51 204 51 204 54 238 c 0,63,64
 57 270 57 270 60 281 c 1,65,-1
 61 290 l 1,66,67
 65 306 65 306 79 315.5 c 128,-1,68
 93 325 93 325 109 321.5 c 128,-1,69
 125 318 125 318 134.5 304 c 128,-1,70
 144 290 144 290 141 274 c 2,71,-1
 139 265 l 2,72,73
 138 258 138 258 135 231 c 0,74,75
 133 205 133 205 135 179 c 0,76,77
 138 151 138 151 142 129 c 1,78,79
 147 108 147 108 152 95 c 0,80,81
 155 88 155 88 164 82 c 0,82,83
 179 71 179 71 197 62 c 0,84,85
 212 55 212 55 222 54 c 0,86,87
 229 53 229 53 241 58 c 1,88,89
 255 70 255 70 281 121 c 0,90,91
 315 187 315 187 321 210 c 0,92,93
 327 236 327 236 328.5 245 c 128,-1,94
 330 254 330 254 332 273 c 0,95,96
 334 291 334 291 335 312 c 0,97,98
 336 335 336 335 336 380 c 0,99,100
 335 428 335 428 338 455 c 0,101,102
 340 480 340 480 340 499 c 0,103,104
 341 520 341 520 342 538 c 0,105,106
 343 554 343 554 344 567 c 0,107,108
 344 570 344 570 345 573 c 1,109,110
 327 573 327 573 311 574 c 0,111,112
 269 575 269 575 239 575 c 1,113,114
 212 576 212 576 204 575 c 1,115,116
 201 576 201 576 196 578 c 128,-1,117
 191 580 191 580 179.5 587 c 128,-1,118
 168 594 168 594 161.5 601.5 c 128,-1,119
 155 609 155 609 154.5 620.5 c 128,-1,120
 154 632 154 632 166 643 c 1,121,122
 174 652 174 652 179.5 655.5 c 128,-1,123
 185 659 185 659 187 658.5 c 128,-1,124
 189 658 189 658 190.5 657 c 128,-1,125
 192 656 192 656 193 656 c 0,126,127
 208 659 208 659 222 660 c 0,128,129
 235 661 235 661 251 662 c 0,130,131
 269 664 269 664 295 663 c 0,132,133
 317 662 317 662 336 663 c 0,134,135
 364 664 364 664 385 656 c 0,136,137
 390 655 390 655 395 652 c 1,0,1
EndSplineSet
Validated: 33
EndChar

StartChar: K
Encoding: 75 75 46
Width: 544
Flags: W
LayerCount: 2
Fore
SplineSet
119.5 714 m 128,-1,1
 136 713 136 713 147 700.5 c 128,-1,2
 158 688 158 688 157 671 c 2,3,-1
 156 656 l 2,4,5
 155 640 155 640 150 564 c 0,6,7
 145 489 145 489 142 406 c 0,8,9
 142 403 142 403 142 399 c 1,10,11
 182 434 182 434 223 468 c 0,12,13
 276 512 276 512 311 538 c 0,14,15
 344 563 344 563 361 576 c 1,16,17
 375 588 375 588 382 599 c 1,18,19
 395 615 395 615 406 625 c 0,20,21
 411 629 411 629 413 633 c 2,22,-1
 417 639 l 2,23,24
 427 653 427 653 443.5 656 c 128,-1,25
 460 659 460 659 473.5 649.5 c 128,-1,26
 487 640 487 640 490 623.5 c 128,-1,27
 493 607 493 607 484 594 c 2,28,-1
 479 586 l 2,29,30
 471 575 471 575 461 566 c 0,31,32
 455 561 455 561 447 550 c 0,33,34
 434 532 434 532 413 515 c 1,35,36
 395 499 395 499 359 473 c 0,37,38
 326 448 326 448 275 406 c 0,39,40
 230 369 230 369 186 329 c 1,41,42
 193 317 193 317 206 297 c 0,43,44
 232 258 232 258 268 219 c 1,45,46
 307 179 307 179 343 144 c 0,47,48
 382 107 382 107 390 98 c 0,49,50
 397 90 397 90 408 78 c 0,51,52
 421 64 421 64 430 50 c 2,53,-1
 438 39 l 2,54,55
 448 25 448 25 445 8.5 c 128,-1,56
 442 -8 442 -8 428.5 -18 c 128,-1,57
 415 -28 415 -28 398.5 -25 c 128,-1,58
 382 -22 382 -22 372 -8 c 2,59,-1
 364 3 l 2,60,61
 357 13 357 13 347 24 c 0,62,63
 335 38 335 38 329 45 c 0,64,65
 324 51 324 51 288 85 c 0,66,67
 250 122 250 122 210 163 c 0,68,69
 168 207 168 207 138 253 c 0,70,71
 137 255 137 255 136 257 c 1,72,73
 135 231 135 231 136 206 c 0,74,75
 137 166 137 166 139 134 c 0,76,77
 142 101 142 101 143 70 c 0,78,79
 145 39 145 39 146 19 c 2,80,-1
 147 -2 l 2,81,82
 148 -19 148 -19 137 -31.5 c 128,-1,83
 126 -44 126 -44 109.5 -45 c 128,-1,84
 93 -46 93 -46 80.5 -35 c 128,-1,85
 68 -24 68 -24 66 -8 c 1,86,-1
 65 13 l 2,87,88
 64 35 64 35 62 66 c 0,89,90
 61 96 61 96 59 128 c 0,91,92
 56 162 56 162 55 203 c 0,93,94
 54 245 54 245 56 287 c 1,95,96
 49 304 49 304 57 320 c 1,97,98
 59 356 59 356 61 410 c 0,99,100
 64 493 64 493 70 570 c 0,101,102
 75 646 75 646 75 661 c 2,103,-1
 76 676 l 2,104,105
 77 693 77 693 90 704 c 128,-1,0
 103 715 103 715 119.5 714 c 128,-1,1
EndSplineSet
Validated: 33
EndChar

StartChar: L
Encoding: 76 76 47
Width: 476
Flags: W
LayerCount: 2
Fore
SplineSet
104.5 682.5 m 128,-1,1
 121 684 121 684 134 673 c 128,-1,2
 147 662 147 662 148 645 c 1,3,-1
 148 637 l 1,4,5
 149 628 149 628 154 515 c 1,6,7
 158 401 158 401 155 343 c 0,8,9
 152 287 152 287 149 251.5 c 128,-1,10
 146 216 146 216 143 186 c 0,11,12
 140 158 140 158 139 143 c 256,13,14
 138 128 138 128 136 111 c 0,15,16
 135 99 135 99 135 84 c 1,17,18
 160 85 160 85 190 91 c 0,19,20
 234 100 234 100 276 102 c 0,21,22
 315 104 315 104 329.5 104.5 c 128,-1,23
 344 105 344 105 355 106 c 256,24,25
 366 107 366 107 373 107 c 2,26,-1
 380 107 l 1,27,28
 397 108 397 108 409.5 97 c 128,-1,29
 422 86 422 86 423 69.5 c 128,-1,30
 424 53 424 53 413 40.5 c 128,-1,31
 402 28 402 28 385 27 c 1,32,-1
 378 26 l 1,33,34
 370 26 370 26 359 25 c 0,35,36
 349 25 349 25 334 24 c 128,-1,37
 319 23 319 23 280 21 c 0,38,39
 244 20 244 20 207 12 c 0,40,41
 163 3 163 3 127 3 c 1,42,43
 127 3 127 3 126 2 c 0,44,45
 118 1 118 1 110 1 c 128,-1,46
 102 1 102 1 87.5 3 c 128,-1,47
 73 5 73 5 63.5 17 c 128,-1,48
 54 29 54 29 53 49 c 0,49,50
 53 57 53 57 53.5 78.5 c 128,-1,51
 54 100 54 100 55 118 c 1,52,53
 57 134 57 134 58 149 c 0,54,55
 59 165 59 165 62 195 c 1,56,57
 66 224 66 224 69 258 c 128,-1,58
 72 292 72 292 74 347 c 1,59,60
 77 401 77 401 73 512 c 0,61,62
 68 623 68 623 68 631 c 2,63,-1
 67 639 l 1,64,65
 66 656 66 656 77 668.5 c 128,-1,0
 88 681 88 681 104.5 682.5 c 128,-1,1
EndSplineSet
Validated: 33
EndChar

StartChar: M
Encoding: 77 77 48
Width: 671
Flags: W
LayerCount: 2
Fore
SplineSet
99.5 -14 m 128,-1,1
 83 -15 83 -15 70.5 -3.5 c 128,-1,2
 58 8 58 8 57 25 c 2,3,-1
 54 108 l 2,4,5
 50 194 50 194 61 314 c 0,6,7
 73 435 73 435 92 510 c 0,8,9
 110 579 110 579 113 594 c 1,10,11
 115 610 115 610 115 617 c 0,12,13
 119 671 119 671 187 609 c 1,14,15
 204 591 204 591 204 591 c 1,16,17
 212 555 212 555 230 507 c 1,18,19
 250 457 250 457 278 384 c 1,20,21
 308 311 308 311 341 218 c 0,22,23
 348 200 348 200 349 196 c 1,24,25
 383 303 383 303 402 367 c 1,26,27
 423 434 423 434 435 460 c 256,28,29
 447 486 447 486 478.5 539.5 c 128,-1,30
 510 593 510 593 523 611 c 1,31,32
 523 611 523 611 524.5 614 c 128,-1,33
 526 617 526 617 527.5 618.5 c 128,-1,34
 529 620 529 620 532 622.5 c 128,-1,35
 535 625 535 625 538 627 c 128,-1,36
 541 629 541 629 545.5 631 c 128,-1,37
 550 633 550 633 556 634 c 0,38,39
 580 638 580 638 593 626 c 128,-1,40
 606 614 606 614 607 600 c 2,41,-1
 609 586 l 1,42,43
 610 565 610 565 609 471 c 1,44,45
 607 379 607 379 608 314 c 0,46,47
 609 247 609 247 606 188 c 0,48,49
 603 134 603 134 606 100 c 0,50,51
 608 72 608 72 611 64 c 2,52,-1
 616 51 l 2,53,54
 622 36 622 36 615 20.5 c 128,-1,55
 608 5 608 5 592.5 -1 c 128,-1,56
 577 -7 577 -7 561.5 -0.5 c 128,-1,57
 546 6 546 6 540 22 c 2,58,-1
 535 35 l 2,59,60
 528 53 528 53 525 95 c 0,61,62
 522 133 522 133 525 192 c 0,63,64
 528 249 528 249 527 313 c 0,65,66
 526 375 526 375 527 462 c 1,67,68
 515 439 515 439 509 426 c 0,69,70
 499 405 499 405 480 343 c 0,71,72
 460 278 460 278 425 168 c 0,73,74
 424 163 424 163 421 150.5 c 128,-1,75
 418 138 418 138 415.5 127 c 128,-1,76
 413 116 413 116 408 100.5 c 128,-1,77
 403 85 403 85 397 75.5 c 128,-1,78
 391 66 391 66 381.5 56.5 c 128,-1,79
 372 47 372 47 360.5 47 c 128,-1,80
 349 47 349 47 333 50 c 1,81,82
 314 57 314 57 307 77 c 0,83,84
 299 98 299 98 265 190 c 0,85,86
 232 282 232 282 203 354 c 0,87,88
 180 412 180 412 163 457 c 1,89,90
 150 395 150 395 142 307 c 0,91,92
 132 192 132 192 135 111 c 2,93,-1
 138 28 l 2,94,95
 139 11 139 11 127.5 -1 c 128,-1,0
 116 -13 116 -13 99.5 -14 c 128,-1,1
EndSplineSet
Validated: 33
EndChar

StartChar: N
Encoding: 78 78 49
Width: 608
Flags: W
LayerCount: 2
Fore
SplineSet
105.5 24 m 128,-1,1
 89 23 89 23 76.5 34 c 128,-1,2
 64 45 64 45 62 61 c 2,3,-1
 57 124 l 2,4,5
 52 190 52 190 53 247 c 0,6,7
 54 306 54 306 67 399 c 0,8,9
 79 491 79 491 86 533 c 0,10,11
 93 576 93 576 101 604 c 0,12,13
 108 630 108 630 111 640 c 0,14,15
 119 663 119 663 131.5 669 c 128,-1,16
 144 675 144 675 157 666.5 c 128,-1,17
 170 658 170 658 182 646 c 128,-1,18
 194 634 194 634 201 623 c 2,19,-1
 209 612 l 1,20,21
 228 570 228 570 273 477 c 1,22,23
 319 385 319 385 345 336 c 0,24,25
 372 286 372 286 386 261.5 c 128,-1,26
 400 237 400 237 422 202 c 0,27,28
 432 186 432 186 440 172 c 1,29,30
 442 193 442 193 444 213 c 0,31,32
 450 280 450 280 460 360 c 0,33,34
 470 438 470 438 472 476 c 0,35,36
 474 515 474 515 474 569 c 0,37,38
 474 624 474 624 474 638 c 0,39,40
 474 649 474 649 473 655 c 1,41,-1
 473 662 l 1,42,43
 471 679 471 679 482 692 c 128,-1,44
 493 705 493 705 509.5 706.5 c 128,-1,45
 526 708 526 708 539 697 c 128,-1,46
 552 686 552 686 553 670 c 1,47,-1
 554 663 l 2,48,49
 555 654 555 654 555 638 c 0,50,51
 555 625 555 625 555 569 c 256,52,53
 555 513 555 513 553 472 c 256,54,55
 551 431 551 431 540 350 c 0,56,57
 530 271 530 271 524 206 c 0,58,59
 518 139 518 139 511 86 c 1,60,61
 509 82 509 82 506 76 c 128,-1,62
 503 70 503 70 495 54.5 c 128,-1,63
 487 39 487 39 478.5 29 c 128,-1,64
 470 19 470 19 459.5 11.5 c 128,-1,65
 449 4 449 4 439 9 c 128,-1,66
 429 14 429 14 422 33 c 0,67,68
 418 41 418 41 415 49 c 0,69,70
 411 57 411 57 408 65 c 0,71,72
 406 71 406 71 401 81 c 0,73,74
 397 89 397 89 387 105 c 0,75,76
 374 124 374 124 352.5 160 c 128,-1,77
 331 196 331 196 316 221.5 c 128,-1,78
 301 247 301 247 274 297 c 0,79,80
 247 348 247 348 201 442 c 0,81,82
 180 484 180 484 165 514 c 1,83,84
 159 473 159 473 147 388 c 0,85,86
 135 299 135 299 134 246 c 0,87,88
 133 192 133 192 138 131 c 2,89,-1
 143 67 l 2,90,91
 144 51 144 51 133 38 c 128,-1,0
 122 25 122 25 105.5 24 c 128,-1,1
EndSplineSet
Validated: 33
EndChar

StartChar: O
Encoding: 79 79 50
Width: 644
Flags: W
LayerCount: 2
Fore
SplineSet
228 518 m 1,0,1
 221 511 221 511 215 504 c 0,2,3
 197 481 197 481 179 446 c 128,-1,4
 161 411 161 411 152 378 c 0,5,6
 142 344 142 344 137 311 c 0,7,8
 133 278 133 278 134 242 c 0,9,10
 136 206 136 206 139 181 c 0,11,12
 142 159 142 159 148 141 c 256,13,14
 154 123 154 123 159 114 c 256,15,16
 164 105 164 105 187 82 c 0,17,18
 209 59 209 59 227.5 49 c 128,-1,19
 246 39 246 39 264 34 c 1,20,21
 283 30 283 30 300 31 c 0,22,23
 313 31 313 31 328 38 c 0,24,25
 347 47 347 47 379 73 c 0,26,27
 411 98 411 98 439 136 c 0,28,29
 467 175 467 175 481 201 c 0,30,31
 494 225 494 225 500 257 c 0,32,33
 507 292 507 292 509 324 c 0,34,35
 511 355 511 355 509 366 c 0,36,37
 506 382 506 382 503 392 c 0,38,39
 501 398 501 398 491 417 c 1,40,41
 478 439 478 439 469 451.5 c 128,-1,42
 460 464 460 464 448 479 c 0,43,44
 438 491 438 491 425 500 c 1,45,46
 409 513 409 513 398 523 c 0,47,48
 390 530 390 530 374 541 c 1,49,50
 360 549 360 549 353 551 c 0,51,52
 342 555 342 555 330 557 c 0,53,54
 319 559 319 559 307 558 c 1,55,56
 293 558 293 558 278 555 c 0,57,58
 277 555 277 555 276 555 c 0,59,60
 266 543 266 543 258 535 c 2,61,-1
 252 529 l 2,62,63
 242 520 242 520 228 518 c 1,0,1
316 639 m 1,64,65
 331 639 331 639 344 637 c 0,66,67
 360 634 360 634 376 629 c 0,68,69
 395 624 395 624 418 608 c 1,70,71
 439 595 439 595 451 584 c 0,72,73
 460 576 460 576 475 564 c 0,74,75
 495 549 495 549 510 530 c 0,76,77
 524 513 524 513 535 497.5 c 128,-1,78
 546 482 546 482 560 458 c 0,79,80
 577 430 577 430 581 413 c 1,81,82
 585 401 585 401 588 382 c 1,83,84
 593 360 593 360 590 319 c 0,85,86
 588 281 588 281 579 240 c 0,87,88
 570 197 570 197 553 164 c 0,89,90
 537 133 537 133 504 88 c 0,91,92
 470 42 470 42 430 9 c 1,93,94
 390 -22 390 -22 363 -35 c 0,95,96
 332 -50 332 -50 302 -50 c 1,97,98
 275 -51 275 -51 246 -45 c 0,99,100
 216 -38 216 -38 187.5 -22 c 128,-1,101
 159 -6 159 -6 129 26 c 1,102,103
 99 56 99 56 89 73 c 0,104,105
 80 90 80 90 71 115 c 0,106,107
 63 140 63 140 59 170 c 0,108,109
 55 198 55 198 53 239 c 1,110,111
 52 282 52 282 57 322 c 1,112,113
 63 361 63 361 74 400 c 0,114,115
 85 441 85 441 107 483 c 0,116,117
 128 525 128 525 152 554 c 0,118,119
 177 585 177 585 212 612 c 0,120,121
 249 640 249 640 262 646 c 1,122,-1
 271 649 l 1,123,124
 296 659 296 659 316 639 c 1,64,65
EndSplineSet
Validated: 33
EndChar

StartChar: P
Encoding: 80 80 51
Width: 529
Flags: W
LayerCount: 2
Fore
SplineSet
144 338 m 1,0,-1
 152 334 l 2,1,2
 155 332 155 332 162 331 c 0,3,4
 171 329 171 329 190 330 c 1,5,6
 210 330 210 330 235 333 c 256,7,8
 260 336 260 336 281 341 c 0,9,10
 300 346 300 346 322 357 c 0,11,12
 345 369 345 369 365 384 c 0,13,14
 380 395 380 395 387 400 c 1,15,16
 389 406 389 406 393 418 c 0,17,18
 397 432 397 432 393 446 c 0,19,20
 388 467 388 467 377 488 c 256,21,22
 366 509 366 509 356 521 c 0,23,24
 348 530 348 530 336 536 c 0,25,26
 320 543 320 543 290 548 c 0,27,28
 257 554 257 554 234 555 c 1,29,30
 212 557 212 557 180 555 c 0,31,32
 161 553 161 553 149 552 c 1,33,34
 148 539 148 539 149 519 c 0,35,36
 151 494 151 494 150 471 c 0,37,38
 150 450 150 450 149 422 c 0,39,40
 148 393 148 393 145 352 c 0,41,42
 145 347 145 347 144 338 c 1,0,-1
69 510 m 0,43,44
 67 539 67 539 68 556 c 0,45,46
 69 579 69 579 76 595 c 0,47,48
 89 623 89 623 121 630 c 0,49,50
 137 633 137 633 175 635 c 0,51,52
 213 638 213 638 240 636 c 0,53,54
 266 634 266 634 303 628 c 0,55,56
 344 621 344 621 370 610 c 1,57,58
 399 596 399 596 418 573 c 0,59,60
 434 553 434 553 449 524 c 0,61,62
 463 496 463 496 471 467 c 0,63,64
 481 432 481 432 471 395 c 1,65,66
 461 363 461 363 448 347 c 1,67,68
 438 337 438 337 413 318 c 1,69,70
 387 300 387 300 359 285 c 0,71,72
 329 270 329 270 301 263 c 0,73,74
 274 256 274 256 244 252 c 0,75,76
 216 249 216 249 191 249 c 0,77,78
 165 248 165 248 148 251 c 0,79,80
 144 252 144 252 138 253 c 1,81,82
 137 240 137 240 137 238 c 0,83,84
 132 166 132 166 136 111 c 0,85,86
 140 54 140 54 142 41 c 2,87,-1
 144 25 l 2,88,89
 147 9 147 9 137 -4.5 c 128,-1,90
 127 -18 127 -18 110.5 -20.5 c 128,-1,91
 94 -23 94 -23 80.5 -13 c 128,-1,92
 67 -3 67 -3 64 13 c 2,93,-1
 62 28 l 2,94,95
 59 45 59 45 55 105 c 0,96,97
 51 166 51 166 56 244 c 0,98,99
 59 278 59 278 61 306 c 0,100,101
 63 337 63 337 65 358 c 0,102,103
 67 397 67 397 68 424 c 0,104,105
 69 452 69 452 69 474 c 1,106,107
 70 492 70 492 69 510 c 0,43,44
EndSplineSet
Validated: 33
EndChar

StartChar: Q
Encoding: 81 81 52
Width: 622
Flags: W
LayerCount: 2
Fore
SplineSet
326 205.5 m 128,-1,1
 338 217 338 217 355 216.5 c 128,-1,2
 372 216 372 216 383 204 c 2,3,-1
 410 176 l 1,4,5
 439 210 439 210 456 240 c 1,6,7
 473 267 473 267 476 305 c 0,8,9
 480 348 480 348 475 372 c 0,10,11
 469 398 469 398 454 431 c 0,12,13
 438 466 438 466 425 490 c 0,14,15
 414 511 414 511 405 521 c 0,16,17
 395 532 395 532 385 539 c 0,18,19
 377 545 377 545 370 548 c 0,20,21
 364 550 364 550 356 551 c 0,22,23
 344 552 344 552 323 552 c 2,24,-1
 300 552 l 2,25,26
 290 552 290 552 280 557 c 1,27,28
 241 537 241 537 221 517 c 0,29,30
 201 496 201 496 178 456 c 0,31,32
 156 416 156 416 145 366 c 0,33,34
 134 313 134 313 134 275 c 0,35,36
 134 238 134 238 145 198 c 0,37,38
 155 160 155 160 177.5 131 c 128,-1,39
 200 102 200 102 218 91 c 1,40,41
 239 80 239 80 254 76 c 0,42,43
 267 72 267 72 287 75 c 0,44,45
 305 78 305 78 335 102 c 0,46,47
 344 109 344 109 354 118 c 1,48,-1
 325 148 l 2,49,50
 313 160 313 160 313.5 177 c 128,-1,0
 314 194 314 194 326 205.5 c 128,-1,1
364 632 m 1,51,52
 383 630 383 630 399.5 623.5 c 128,-1,53
 416 617 416 617 433 604 c 0,54,55
 449 592 449 592 464 576 c 0,56,57
 480 558 480 558 496 529 c 0,58,59
 511 502 511 502 528 464 c 0,60,61
 546 423 546 423 554 389 c 0,62,63
 562 353 562 353 557 298 c 0,64,65
 552 240 552 240 526 198 c 0,66,67
 504 161 504 161 467 118 c 1,68,69
 483 103 483 103 497 90 c 0,70,71
 531 61 531 61 543 50 c 2,72,-1
 555 40 l 2,73,74
 568 29 568 29 569 12.5 c 128,-1,75
 570 -4 570 -4 559.5 -17 c 128,-1,76
 549 -30 549 -30 532 -31 c 128,-1,77
 515 -32 515 -32 503 -22 c 2,78,-1
 490 -11 l 2,79,80
 478 -1 478 -1 444 29 c 0,81,82
 428 43 428 43 411 60 c 1,83,84
 398 48 398 48 385 38 c 0,85,86
 338 1 338 1 299 -5 c 0,87,88
 262 -10 262 -10 233 -2 c 0,89,90
 207 5 207 5 178 21 c 0,91,92
 147 39 147 39 114 81 c 256,93,94
 81 123 81 123 66 177 c 1,95,96
 53 228 53 228 53 276 c 0,97,98
 53 322 53 322 66 382 c 0,99,100
 79 445 79 445 108 495 c 1,101,102
 136 546 136 546 164.5 574.5 c 128,-1,103
 193 603 193 603 239 628 c 0,104,105
 287 653 287 653 307 656 c 2,106,-1
 320 658 l 2,107,108
 334 660 334 660 346.5 652.5 c 128,-1,109
 359 645 359 645 364 632 c 1,51,52
EndSplineSet
Validated: 33
EndChar

StartChar: R
Encoding: 82 82 53
Width: 536
Flags: W
LayerCount: 2
Fore
SplineSet
154 347 m 1,0,1
 175 349 175 349 201 351 c 0,2,3
 241 355 241 355 262 358 c 0,4,5
 280 361 280 361 312 372 c 0,6,7
 343 382 343 382 367 397 c 0,8,9
 387 409 387 409 395 420 c 0,10,11
 402 430 402 430 403 434 c 1,12,13
 403 439 403 439 401 449 c 1,14,15
 396 463 396 463 386 483 c 0,16,17
 374 505 374 505 369 512 c 0,18,19
 365 517 365 517 353 528 c 1,20,21
 342 536 342 536 300 547 c 0,22,23
 248 561 248 561 208 567 c 0,24,25
 171 572 171 572 136 570 c 1,26,27
 135 557 135 557 134 536 c 1,28,29
 134 512 134 512 137 488 c 0,30,31
 141 461 141 461 147 424 c 0,32,33
 153 385 153 385 154 351 c 0,34,35
 154 349 154 349 154 347 c 1,0,1
134.5 -21.5 m 128,-1,37
 118 -24 118 -24 104.5 -14 c 128,-1,38
 91 -4 91 -4 88 12 c 2,39,-1
 83 44 l 2,40,41
 78 79 78 79 77 155 c 0,42,43
 76 228 76 228 75 272 c 0,44,45
 75 281 75 281 75 290 c 0,46,47
 75 322 75 322 73 347 c 1,48,49
 72 377 72 377 67 412 c 0,50,51
 61 448 61 448 57 476 c 0,52,53
 52 507 52 507 53 537 c 256,54,55
 54 567 54 567 57 585 c 0,56,57
 59 598 59 598 59 602 c 0,58,59
 59 615 59 615 63 624.5 c 128,-1,60
 67 634 67 634 73.5 639 c 128,-1,61
 80 644 80 644 87.5 647.5 c 128,-1,62
 95 651 95 651 103 651.5 c 128,-1,63
 111 652 111 652 117 652 c 128,-1,64
 123 652 123 652 128 651.5 c 128,-1,65
 133 651 133 651 133 651 c 1,66,67
 174 654 174 654 220 647 c 0,68,69
 264 641 264 641 321 626 c 0,70,71
 384 609 384 609 407 589 c 0,72,73
 425 573 425 573 435 559 c 0,74,75
 443 548 443 548 457 521 c 0,76,77
 472 494 472 494 478 471 c 0,78,79
 486 443 486 443 483 421 c 0,80,81
 479 399 479 399 461 373 c 0,82,83
 443 348 443 348 409 327 c 1,84,85
 377 309 377 309 338 295 c 0,86,87
 299 282 299 282 274 278 c 0,88,89
 264 277 264 277 252 275 c 1,90,91
 258 270 258 270 264 266 c 0,92,93
 312 228 312 228 347 185 c 0,94,95
 381 143 381 143 398 109 c 0,96,97
 413 79 413 79 419 66 c 2,98,-1
 424 54 l 2,99,100
 431 39 431 39 425 23 c 128,-1,101
 419 7 419 7 404 0.5 c 128,-1,102
 389 -6 389 -6 373 0 c 128,-1,103
 357 6 357 6 350 21 c 2,104,-1
 345 33 l 2,105,106
 340 44 340 44 325 73 c 0,107,108
 312 99 312 99 284 134 c 0,109,110
 255 170 255 170 214 202 c 0,111,112
 182 227 182 227 157 242 c 1,113,114
 157 206 157 206 158 156 c 0,115,116
 159 86 159 86 163 56 c 2,117,-1
 168 24 l 2,118,119
 171 8 171 8 161 -5.5 c 128,-1,36
 151 -19 151 -19 134.5 -21.5 c 128,-1,37
EndSplineSet
Validated: 33
EndChar

StartChar: S
Encoding: 83 83 54
Width: 569
Flags: WO
LayerCount: 2
Fore
SplineSet
94.7471 141.767 m 16,0,1
 118.747 121.767 l 0,2,3
 129.236 121.331 129.236 121.331 200 51 c 0,4,5
 233 19 233 19 256 19 c 0,6,7
 287 20 287 20 307 28 c 0,8,9
 326.545 35.8182 326.545 35.8182 338 46 c 0,10,11
 349 56 349 56 355 65 c 0,12,13
 362 75 362 75 365 85 c 0,14,15
 368 93 368 93 367 111 c 0,16,17
 366 130 366 130 364 138 c 0,18,19
 361 146 361 146 351 160 c 256,20,21
 341 174 341 174 330 184 c 256,22,23
 319 194 319 194 283 212 c 0,24,25
 240 233 240 233 209 252 c 0,26,27
 175 272 175 272 138 310 c 0,28,29
 98 350 98 350 82 390 c 0,30,31
 67 430 67 430 69 459 c 1,32,33
 70 489 70 489 95 539 c 1,34,35
 122 589 122 589 166 621 c 0,36,37
 206 649 206 649 233 663 c 0,38,39
 264 679 264 679 283 680 c 1,40,41
 301 682 301 682 339 672 c 0,42,43
 379 662 379 662 408 638 c 0,44,45
 434 616 434 616 453 587 c 0,46,47
 470 560 470 560 488 513 c 0,48,49
 503.951 470.778 503.951 470.778 510 449 c 2,50,-1
 515 431 l 2,51,52
 519.302 415.514 519.302 415.514 510.5 400.5 c 0,53,54
 502 386 502 386 486 382 c 128,-1,55
 470 378 470 378 455.5 386.5 c 0,56,57
 441.853 394.5 441.853 394.5 437 411 c 2,58,-1
 432 428 l 2,59,60
 426.328 447.284 426.328 447.284 412 484 c 1,61,62
 398 523 398 523 385 543 c 0,63,64
 373 561 373 561 356 576 c 0,65,66
 341 588 341 588 319 594 c 0,67,68
 298 599 298 599 290 600 c 1,69,70
 283 597 283 597 269 591 c 1,71,72
 248 580 248 580 214 555 c 0,73,74
 184 534 184 534 167 501 c 256,75,76
 150 468 150 468 149 456 c 1,77,78
 149 443 149 443 158 419 c 256,79,80
 167 395 167 395 195 367 c 0,81,82
 226 336 226 336 251 321 c 0,83,84
 279 304 279 304 318 284 c 1,85,86
 365 262 365 262 384 245 c 0,87,88
 402 228 402 228 418 206 c 0,89,90
 434 183 434 183 440 164 c 0,91,92
 447 145 447 145 448 114 c 0,93,94
 449 82 449 82 442 59 c 0,95,96
 435 39 435 39 422 20 c 0,97,98
 410 2 410 2 392 -14 c 0,99,100
 373 -31 373 -31 339 -46 c 0,101,102
 304 -61 304 -61 256 -62 c 1,103,104
 209.236 -62 209.236 -62 144 -8 c 0,105,106
 76.1014 48.7192 76.1014 48.7192 72.7471 61.7666 c 1,107,-1
 19.3682 135.417 l 24,108,109
 14.4935 158.716 14.4935 158.716 51.8057 161.859 c 24,110,111
 60.0407 162.553 60.0407 162.553 94.7471 141.767 c 16,0,1
EndSplineSet
Validated: 524321
EndChar

StartChar: T
Encoding: 84 84 55
Width: 677
Flags: W
LayerCount: 2
Fore
SplineSet
53 632.5 m 128,-1,1
 55 649 55 649 68.5 659.5 c 128,-1,2
 82 670 82 670 98 668 c 2,3,-1
 162 660 l 2,4,5
 222 653 222 653 315 658 c 0,6,7
 410 663 410 663 445 667 c 0,8,9
 483 672 483 672 512 673 c 0,10,11
 539 674 539 674 554 674 c 0,12,13
 567 674 567 674 574 674 c 2,14,-1
 582 674 l 1,15,16
 598 675 598 675 610.5 664 c 128,-1,17
 623 653 623 653 624 636.5 c 128,-1,18
 625 620 625 620 614 607.5 c 128,-1,19
 603 595 603 595 586 594 c 1,20,-1
 578 593 l 1,21,22
 569 593 569 593 554 593 c 0,23,24
 540 593 540 593 514 592 c 0,25,26
 489 591 489 591 455 587 c 0,27,28
 428 584 428 584 371 580 c 1,29,-1
 368 570 l 2,30,31
 365 558 365 558 362 537.5 c 128,-1,32
 359 517 359 517 356 400 c 0,33,34
 353 279 353 279 353 167 c 0,35,36
 353 54 353 54 352 26 c 2,37,-1
 351 0 l 2,38,39
 350 -17 350 -17 337.5 -28.5 c 128,-1,40
 325 -40 325 -40 308.5 -39.5 c 128,-1,41
 292 -39 292 -39 280.5 -26.5 c 128,-1,42
 269 -14 269 -14 270 2 c 2,43,-1
 271 29 l 2,44,45
 272 55 272 55 272 167 c 0,46,47
 272 280 272 280 275 401 c 0,48,49
 278 524 278 524 282 550 c 0,50,51
 284 564 284 564 286 575 c 1,52,53
 208 573 208 573 152 580 c 2,54,-1
 89 588 l 2,55,56
 72 590 72 590 61.5 603 c 128,-1,0
 51 616 51 616 53 632.5 c 128,-1,1
EndSplineSet
Validated: 33
EndChar

StartChar: U
Encoding: 85 85 56
Width: 556
Flags: W
LayerCount: 2
Fore
SplineSet
88.5 664 m 128,-1,1
 105 666 105 666 118 656 c 128,-1,2
 131 646 131 646 134 629 c 1,3,-1
 135 618 l 2,4,5
 137 606 137 606 141 570 c 0,6,7
 145 531 145 531 146 454 c 256,8,9
 147 377 147 377 145 334 c 0,10,11
 143 295 143 295 146.5 258.5 c 128,-1,12
 150 222 150 222 159 186.5 c 128,-1,13
 168 151 168 151 175 134 c 0,14,15
 181 117 181 117 189 106 c 1,16,17
 194 97 194 97 216 80 c 0,18,19
 234 65 234 65 244 63 c 0,20,21
 256 61 256 61 271.5 65.5 c 128,-1,22
 287 70 287 70 321 102 c 0,23,24
 356 134 356 134 388 208 c 0,25,26
 420 284 420 284 422 330 c 1,27,28
 423 382 423 382 420 463 c 0,29,30
 416 546 416 546 415 584 c 0,31,32
 414 621 414 621 412 639 c 1,33,-1
 411 659 l 1,34,35
 409 675 409 675 420 688 c 128,-1,36
 431 701 431 701 447.5 702.5 c 128,-1,37
 464 704 464 704 477 693 c 128,-1,38
 490 682 490 682 491 665 c 2,39,-1
 493 646 l 2,40,41
 495 625 495 625 496 586 c 0,42,43
 497 549 497 549 500 467 c 0,44,45
 504 383 504 383 503 327 c 0,46,47
 501 266 501 266 462 176 c 0,48,49
 424 86 424 86 376 42 c 256,50,51
 328 -2 328 -2 294 -12.5 c 128,-1,52
 260 -23 260 -23 229 -17 c 0,53,54
 199 -11 199 -11 164 17 c 0,55,56
 133 42 133 42 120 62 c 0,57,58
 109 80 109 80 100 103 c 0,59,60
 90 126 90 126 80 167 c 128,-1,61
 70 208 70 208 66 250.5 c 128,-1,62
 62 293 62 293 64 338 c 0,63,64
 66 378 66 378 65 453 c 0,65,66
 64 526 64 526 60 561 c 0,67,68
 56 597 56 597 55 608 c 2,69,-1
 53 619 l 2,70,71
 51 635 51 635 61.5 648.5 c 128,-1,0
 72 662 72 662 88.5 664 c 128,-1,1
EndSplineSet
Validated: 33
EndChar

StartChar: V
Encoding: 86 86 57
Width: 635
Flags: W
LayerCount: 2
Fore
SplineSet
79.5 660.5 m 128,-1,1
 95 666 95 666 110.5 659 c 128,-1,2
 126 652 126 652 132 636 c 2,3,-1
 144 601 l 2,4,5
 156 567 156 567 187 485 c 1,6,7
 217 402 217 402 244 317.5 c 128,-1,8
 271 233 271 233 276 215 c 0,9,10
 280 199 280 199 294 162 c 0,11,12
 296 154 296 154 299 146 c 1,13,14
 313 192 313 192 333 260 c 0,15,16
 372 394 372 394 393 450.5 c 128,-1,17
 414 507 414 507 427 535 c 0,18,19
 441 564 441 564 461 596 c 0,20,21
 481 627 481 627 496 646 c 2,22,-1
 510 664 l 2,23,24
 520 677 520 677 536.5 679.5 c 128,-1,25
 553 682 553 682 566.5 671.5 c 128,-1,26
 580 661 580 661 582 644.5 c 128,-1,27
 584 628 584 628 574 615 c 2,28,-1
 560 597 l 2,29,30
 547 580 547 580 529 552 c 0,31,32
 512 525 512 525 501 501 c 0,33,34
 489 475 489 475 469 422 c 128,-1,35
 449 369 449 369 411 238 c 0,36,37
 372 105 372 105 360 60 c 1,38,39
 358 57 358 57 354.5 51.5 c 128,-1,40
 351 46 351 46 342 32.5 c 128,-1,41
 333 19 333 19 324 10 c 128,-1,42
 315 1 315 1 304.5 -5.5 c 128,-1,43
 294 -12 294 -12 284.5 -6 c 128,-1,44
 275 0 275 0 268 18 c 0,45,46
 266 23 266 23 263 29 c 0,47,48
 259 37 259 37 256 45 c 1,49,50
 251 54 251 54 242 73 c 0,51,52
 232 94 232 94 217 134 c 0,53,54
 203 174 203 174 198 193 c 0,55,56
 193 210 193 210 166.5 292.5 c 128,-1,57
 140 375 140 375 110 457 c 256,58,59
 80 539 80 539 68 574 c 2,60,-1
 55 609 l 2,61,62
 50 624 50 624 57 639.5 c 128,-1,0
 64 655 64 655 79.5 660.5 c 128,-1,1
EndSplineSet
Validated: 1
EndChar

StartChar: W
Encoding: 87 87 58
Width: 764
Flags: W
LayerCount: 2
Fore
SplineSet
76 673 m 128,-1,1
 91 680 91 680 107 674.5 c 128,-1,2
 123 669 123 669 130 654 c 2,3,-1
 134 646 l 2,4,5
 140 634 140 634 170 508 c 0,6,7
 199 386 199 386 228 267 c 0,8,9
 251 172 251 172 265 106 c 1,10,11
 287 161 287 161 311 227 c 0,12,13
 343 315 343 315 347 332 c 0,14,15
 353 355 353 355 374 363 c 1,16,17
 390 367 390 367 401.5 366.5 c 128,-1,18
 413 366 413 366 422 356.5 c 128,-1,19
 431 347 431 347 436.5 337.5 c 128,-1,20
 442 328 442 328 446 314 c 128,-1,21
 450 300 450 300 452.5 289.5 c 128,-1,22
 455 279 455 279 456.5 268 c 128,-1,23
 458 257 458 257 459 254 c 0,24,25
 480 184 480 184 490 143 c 1,26,27
 496 156 496 156 503 172 c 0,28,29
 542 265 542 265 564 355 c 0,30,31
 587 450 587 450 607 508 c 0,32,33
 625 561 625 561 628 589 c 0,34,35
 630 609 630 609 629 618 c 2,36,-1
 627 627 l 1,37,38
 622 643 622 643 630.5 657.5 c 128,-1,39
 639 672 639 672 655 676.5 c 128,-1,40
 671 681 671 681 686 672.5 c 128,-1,41
 701 664 701 664 705 649 c 2,42,-1
 708 638 l 2,43,44
 713 620 713 620 708 580 c 0,45,46
 704 543 704 543 683 482 c 0,47,48
 665 427 665 427 643 336 c 0,49,50
 619 239 619 239 578 140 c 0,51,52
 574 131 574 131 565.5 111 c 128,-1,53
 557 91 557 91 554 84 c 128,-1,54
 551 77 551 77 544.5 63.5 c 128,-1,55
 538 50 538 50 534 44 c 128,-1,56
 530 38 530 38 523.5 30.5 c 128,-1,57
 517 23 517 23 510 17 c 1,58,59
 501 11 501 11 484.5 8.5 c 128,-1,60
 468 6 468 6 451 14.5 c 128,-1,61
 434 23 434 23 430 44 c 0,62,63
 427 57 427 57 419 96 c 1,64,65
 411 129 411 129 389 205 c 1,66,67
 388 201 388 201 387 199 c 0,68,69
 354 108 354 108 326 39 c 1,70,71
 326 39 326 39 325 35 c 128,-1,72
 324 31 324 31 322.5 25.5 c 128,-1,73
 321 20 321 20 318.5 12.5 c 128,-1,74
 316 5 316 5 312.5 -3 c 128,-1,75
 309 -11 309 -11 304.5 -19 c 128,-1,76
 300 -27 300 -27 295 -33.5 c 128,-1,77
 290 -40 290 -40 283 -45 c 128,-1,78
 276 -50 276 -50 268.5 -52 c 128,-1,79
 261 -54 261 -54 251.5 -52 c 128,-1,80
 242 -50 242 -50 232 -44 c 0,81,82
 223 -39 223 -39 216.5 -31 c 128,-1,83
 210 -23 210 -23 206.5 -11 c 128,-1,84
 203 1 203 1 201 9.5 c 128,-1,85
 199 18 199 18 196.5 34 c 128,-1,86
 194 50 194 50 192 58 c 0,87,88
 178 129 178 129 149 248 c 256,89,90
 120 367 120 367 91 489 c 0,91,92
 66 595 66 595 60 613 c 1,93,-1
 57 620 l 2,94,95
 50 635 50 635 55.5 650.5 c 128,-1,0
 61 666 61 666 76 673 c 128,-1,1
EndSplineSet
Validated: 33
EndChar

StartChar: X
Encoding: 88 88 59
Width: 666
Flags: W
LayerCount: 2
Fore
SplineSet
98 -38 m 128,-1,1
 83 -31 83 -31 77 -15.5 c 128,-1,2
 71 0 71 0 78 15 c 2,3,-1
 90 41 l 2,4,5
 103 69 103 69 177 176 c 0,6,7
 227 248 227 248 284 314 c 1,8,9
 278 321 278 321 273 329 c 0,10,11
 224 393 224 393 167 463 c 0,12,13
 113 530 113 530 93 545 c 2,14,-1
 69 564 l 2,15,16
 56 574 56 574 53.5 591 c 128,-1,17
 51 608 51 608 61 621 c 128,-1,18
 71 634 71 634 88 636 c 128,-1,19
 105 638 105 638 118 628 c 2,20,-1
 142 610 l 2,21,22
 170 588 170 588 230 514 c 0,23,24
 288 443 288 443 337 378 c 0,25,26
 338 376 338 376 339 375 c 1,27,28
 340 376 340 376 341 377 c 0,29,30
 428 468 428 468 460 502 c 0,31,32
 490 534 490 534 503 553 c 0,33,34
 515 572 515 572 522 590 c 0,35,36
 529 609 529 609 531 615 c 0,37,38
 532 619 532 619 532 621 c 2,39,-1
 532 628 l 2,40,41
 532 644 532 644 544 656 c 128,-1,42
 556 668 556 668 572.5 668 c 128,-1,43
 589 668 589 668 601 656 c 128,-1,44
 613 644 613 644 613 628 c 2,45,-1
 613 621 l 2,46,47
 613 610 613 610 610 596 c 0,48,49
 607 584 607 584 598 560 c 0,50,51
 588 535 588 535 571 509 c 256,52,53
 554 483 554 483 519 447 c 0,54,55
 487 413 487 413 399 321 c 0,56,57
 393 315 393 315 387 308 c 1,58,59
 408 279 408 279 427 250 c 0,60,61
 466 189 466 189 481 162 c 0,62,63
 495 138 495 138 512 114 c 0,64,65
 530 89 530 89 538 80 c 0,66,67
 548 67 548 67 554 57 c 2,68,-1
 558 50 l 2,69,70
 566 35 566 35 561 19 c 128,-1,71
 556 3 556 3 541.5 -5.5 c 128,-1,72
 527 -14 527 -14 511 -9 c 128,-1,73
 495 -4 495 -4 487 10 c 2,74,-1
 483 17 l 2,75,76
 481 22 481 22 474 29 c 1,77,78
 465 41 465 41 446 67 c 0,79,80
 427 94 427 94 411 122 c 0,81,82
 397 146 397 146 358 206 c 0,83,84
 346 226 346 226 332 246 c 1,85,86
 285 190 285 190 244 130 c 0,87,88
 174 29 174 29 164 7 c 2,89,-1
 152 -19 l 2,90,91
 145 -34 145 -34 129 -39.5 c 128,-1,0
 113 -45 113 -45 98 -38 c 128,-1,1
EndSplineSet
Validated: 1
EndChar

StartChar: Y
Encoding: 89 89 60
Width: 626
Flags: W
LayerCount: 2
Fore
SplineSet
294.5 -52.5 m 128,-1,1
 279 -58 279 -58 264 -50.5 c 128,-1,2
 249 -43 249 -43 243 -28 c 2,3,-1
 238 -15 l 1,4,5
 232 4 232 4 230 37 c 0,6,7
 229 65 229 65 227 130 c 0,8,9
 225 197 225 197 230 244 c 0,10,11
 234 289 234 289 236 304 c 0,12,13
 238 318 238 318 239 331 c 0,14,15
 240 342 240 342 240 351 c 0,16,17
 240 352 240 352 240 354 c 0,18,19
 239 356 239 356 237 359 c 0,20,21
 229 370 229 370 209.5 400.5 c 128,-1,22
 190 431 190 431 165 483 c 0,23,24
 141 531 141 531 126 556 c 1,25,26
 112 577 112 577 98 590 c 0,27,28
 75 611 75 611 65 629 c 2,29,-1
 58 642 l 2,30,31
 50 656 50 656 54.5 672.5 c 128,-1,32
 59 689 59 689 73.5 697 c 128,-1,33
 88 705 88 705 104.5 700 c 128,-1,34
 121 695 121 695 129 681 c 2,35,-1
 136 668 l 2,36,37
 139 662 139 662 152 650 c 0,38,39
 175 630 175 630 195 599 c 0,40,41
 212 571 212 571 237 519 c 0,42,43
 261 470 261 470 278 443 c 0,44,45
 285 433 285 433 290 424 c 1,46,47
 308 446 308 446 350 491 c 1,48,49
 399 547 399 547 443 595 c 0,50,51
 486 642 486 642 493 651 c 2,52,-1
 501 662 l 2,53,54
 510 675 510 675 527 678 c 128,-1,55
 544 681 544 681 557.5 671 c 128,-1,56
 571 661 571 661 573.5 644.5 c 128,-1,57
 576 628 576 628 566 615 c 1,58,-1
 558 603 l 2,59,60
 549 590 549 590 503 540 c 0,61,62
 459 492 459 492 410 437 c 0,63,64
 361 383 361 383 346 364 c 2,65,-1
 330 344 l 2,66,67
 326 339 326 339 321 335 c 1,68,69
 320 329 320 329 320 322 c 1,70,71
 318 309 318 309 317 294 c 1,72,73
 315 280 315 280 310 236 c 0,74,75
 306 194 306 194 308 132 c 0,76,77
 310 68 310 68 311 41 c 0,78,79
 312 20 312 20 315 12 c 2,80,-1
 319 -1 l 1,81,82
 325 -16 325 -16 317.5 -31.5 c 128,-1,0
 310 -47 310 -47 294.5 -52.5 c 128,-1,1
EndSplineSet
Validated: 33
EndChar

StartChar: Z
Encoding: 90 90 61
Width: 719
Flags: W
LayerCount: 2
Fore
SplineSet
54 582 m 128,-1,1
 50 598 50 598 59 612.5 c 128,-1,2
 68 627 68 627 84 631 c 2,3,-1
 123 640 l 1,4,5
 166 651 166 651 236 654 c 0,6,7
 307 657 307 657 412 644.5 c 128,-1,8
 517 632 517 632 556 621 c 0,9,10
 592 610 592 610 601 608 c 0,11,12
 608 606 608 606 618 604 c 0,13,14
 630 601 630 601 639 597 c 0,15,16
 653 592 653 592 660 581.5 c 128,-1,17
 667 571 667 571 667 560 c 128,-1,18
 667 549 667 549 665.5 540.5 c 128,-1,19
 664 532 664 532 661 528 c 0,20,21
 657 521 657 521 653 515.5 c 128,-1,22
 649 510 649 510 642 504 c 128,-1,23
 635 498 635 498 631 495 c 128,-1,24
 627 492 627 492 615.5 484.5 c 128,-1,25
 604 477 604 477 599 475 c 1,26,27
 556 446 556 446 513 419 c 0,28,29
 474 394 474 394 406 335 c 0,30,31
 338 275 338 275 282 212 c 0,32,33
 229 151 229 151 213 118 c 0,34,35
 210 113 210 113 208 108 c 1,36,37
 230 108 230 108 261 110 c 0,38,39
 335 115 335 115 394 113 c 1,40,41
 452 110 452 110 501 106 c 0,42,43
 542 103 542 103 552 105 c 2,44,-1
 567 108 l 2,45,46
 584 111 584 111 598 101.5 c 128,-1,47
 612 92 612 92 615 75.5 c 128,-1,48
 618 59 618 59 608.5 45 c 128,-1,49
 599 31 599 31 583 28 c 2,50,-1
 568 25 l 2,51,52
 547 21 547 21 494 25 c 0,53,54
 447 29 447 29 391 32 c 0,55,56
 337 34 337 34 266 29 c 0,57,58
 189 24 189 24 164 28 c 0,59,60
 142 31 142 31 123.5 51 c 128,-1,61
 105 71 105 71 115 99 c 0,62,63
 121 115 121 115 140 154 c 0,64,65
 161 196 161 196 221 265 c 0,66,67
 280 333 280 333 353 396 c 0,68,69
 425 459 425 459 470 487 c 0,70,71
 509 512 509 512 549 538 c 1,72,73
 546 539 546 539 534 543 c 0,74,75
 501 552 501 552 402.5 564 c 128,-1,76
 304 576 304 576 240 573 c 0,77,78
 177 570 177 570 142 562 c 2,79,-1
 103 552 l 2,80,81
 87 548 87 548 72.5 557 c 128,-1,0
 58 566 58 566 54 582 c 128,-1,1
EndSplineSet
Validated: 33
EndChar

StartChar: bracketleft
Encoding: 91 91 62
Width: 372
Flags: W
LayerCount: 2
Fore
SplineSet
319 709.5 m 128,-1,1
 317 693 317 693 304 682.5 c 128,-1,2
 291 672 291 672 275 673 c 1,3,-1
 261 675 l 2,4,5
 250 676 250 676 225 675 c 0,6,7
 199 673 199 673 192 672 c 0,8,9
 186 671 186 671 176 669 c 1,10,11
 167 666 167 666 162 663 c 2,12,-1
 153 659 l 1,13,14
 152 656 152 656 152 653 c 0,15,16
 147 633 147 633 146 604 c 0,17,18
 145 572 145 572 147 534 c 0,19,20
 148 496 148 496 150 458 c 0,21,22
 151 420 151 420 151.5 401 c 128,-1,23
 152 382 152 382 153 337 c 0,24,25
 153 292 153 292 153 258 c 0,26,27
 154 224 154 224 152 181 c 0,28,29
 150 139 150 139 149 123 c 0,30,31
 148 108 148 108 147 89 c 1,32,33
 147 68 147 68 146 53 c 256,34,35
 145 38 145 38 143 21 c 0,36,37
 141 6 141 6 140 -7 c 0,38,39
 138 -24 138 -24 136 -32 c 0,40,41
 136 -34 136 -34 136 -40 c 0,42,43
 136 -50 136 -50 135 -61 c 0,44,45
 135 -66 135 -66 135 -70 c 1,46,47
 144 -70 144 -70 153 -69 c 0,48,49
 179 -67 179 -67 194 -66 c 0,50,51
 207 -66 207 -66 218 -65 c 0,52,53
 227 -64 227 -64 232 -63 c 0,54,55
 242 -61 242 -61 258 -60 c 1,56,-1
 271 -60 l 1,57,58
 288 -59 288 -59 300.5 -70 c 128,-1,59
 313 -81 313 -81 314 -97.5 c 128,-1,60
 315 -114 315 -114 304 -127 c 128,-1,61
 293 -140 293 -140 276 -141 c 1,62,-1
 263 -141 l 1,63,64
 252 -142 252 -142 247 -143 c 0,65,66
 238 -145 238 -145 224 -146 c 0,67,68
 211 -147 211 -147 197 -147 c 1,69,70
 184 -148 184 -148 160 -150 c 0,71,72
 134 -152 134 -152 112 -152 c 0,73,74
 110 -152 110 -152 106 -152 c 128,-1,75
 102 -152 102 -152 91.5 -149.5 c 128,-1,76
 81 -147 81 -147 73.5 -143 c 128,-1,77
 66 -139 66 -139 59.5 -128.5 c 128,-1,78
 53 -118 53 -118 53 -104 c 2,79,-1
 53 -90 l 2,80,81
 53 -81 53 -81 54 -73 c 0,82,83
 54 -66 54 -66 54 -57 c 0,84,85
 55 -48 55 -48 55 -38 c 0,86,87
 55 -25 55 -25 57 -15 c 0,88,89
 58 -11 58 -11 59 1 c 0,90,91
 61 15 61 15 63 31 c 0,92,93
 64 45 64 45 65 58 c 256,94,95
 66 71 66 71 66 90 c 0,96,97
 67 111 67 111 68 129 c 0,98,99
 69 144 69 144 71 185 c 0,100,101
 73 225 73 225 72 257 c 0,102,103
 72 289 72 289 71 338 c 0,104,105
 71 381 71 381 71 399 c 0,106,107
 70 418 70 418 68.5 455 c 128,-1,108
 67 492 67 492 66 531 c 0,109,110
 64 571 64 571 65 606 c 0,111,112
 66 644 66 644 73 672 c 0,113,114
 76 685 76 685 78 691 c 128,-1,115
 80 697 80 697 87.5 708 c 128,-1,116
 95 719 95 719 107 726 c 2,117,-1
 124 735 l 2,118,119
 135 741 135 741 153 746 c 0,120,121
 168 751 168 751 181 753 c 0,122,123
 192 754 192 754 221 755 c 0,124,125
 252 757 252 757 269 755 c 2,126,-1
 283 754 l 2,127,128
 299 752 299 752 310 739 c 128,-1,0
 321 726 321 726 319 709.5 c 128,-1,1
EndSplineSet
Validated: 33
EndChar

StartChar: backslash
Encoding: 92 92 63
Width: 473
Flags: W
LayerCount: 2
Fore
SplineSet
81 693 m 128,-1,1
 97 698 97 698 112 690.5 c 128,-1,2
 127 683 127 683 132 667 c 2,3,-1
 147 621 l 2,4,5
 162 576 162 576 191 497 c 256,6,7
 220 418 220 418 245 355 c 0,8,9
 271 290 271 290 293 222 c 0,10,11
 315 155 315 155 324 128 c 1,12,13
 331 103 331 103 337 89 c 0,14,15
 345 73 345 73 364 32 c 1,16,17
 386 -11 386 -11 392 -27 c 0,18,19
 398 -41 398 -41 402 -51 c 0,20,21
 406 -59 406 -59 412 -72 c 2,22,-1
 417 -83 l 2,23,24
 424 -98 424 -98 418 -114 c 128,-1,25
 412 -130 412 -130 397 -137 c 128,-1,26
 382 -144 382 -144 366.5 -138 c 128,-1,27
 351 -132 351 -132 344 -117 c 2,28,-1
 339 -106 l 2,29,30
 333 -94 333 -94 329 -85 c 0,31,32
 323 -73 323 -73 317 -57 c 0,33,34
 312 -43 312 -43 292 -3 c 0,35,36
 271 39 271 39 263 56 c 0,37,38
 255 74 255 74 246 104 c 0,39,40
 238 130 238 130 216 197 c 0,41,42
 195 262 195 262 170 325 c 0,43,44
 145 389 145 389 115 469 c 256,45,46
 85 549 85 549 70 596 c 2,47,-1
 55 642 l 2,48,49
 50 658 50 658 57.5 673 c 128,-1,0
 65 688 65 688 81 693 c 128,-1,1
EndSplineSet
Validated: 1
EndChar

StartChar: bracketright
Encoding: 93 93 64
Width: 393
Flags: W
LayerCount: 2
Fore
SplineSet
71.5 730.5 m 128,-1,1
 74 747 74 747 87.5 757 c 128,-1,2
 101 767 101 767 118 764 c 2,3,-1
 154 759 l 1,4,5
 187 753 187 753 198 753 c 0,6,7
 210 752 210 752 234 751 c 0,8,9
 259 749 259 749 273 748 c 0,10,11
 285 747 285 747 291 747 c 0,12,13
 306 747 306 747 321 735.5 c 128,-1,14
 336 724 336 724 339 707 c 1,15,16
 342 702 342 702 341 691 c 128,-1,17
 340 680 340 680 339.5 677 c 128,-1,18
 339 674 339 674 336 661.5 c 128,-1,19
 333 649 333 649 331 643 c 0,20,21
 322 604 322 604 318 563 c 0,22,23
 314 520 314 520 311 477 c 256,24,25
 308 434 308 434 305 393 c 0,26,27
 302 353 302 353 300 317 c 0,28,29
 298 282 298 282 299 252 c 1,30,31
 299 219 299 219 300 188 c 1,32,33
 300 153 300 153 301 117 c 0,34,35
 302 76 302 76 301 58 c 0,36,37
 300 41 300 41 300 29 c 2,38,-1
 300 4 l 2,39,40
 300 -9 300 -9 299 -23 c 0,41,42
 298 -35 298 -35 298 -43 c 1,43,44
 297 -50 297 -50 297 -57 c 0,45,46
 297 -86 297 -86 274 -104 c 1,47,48
 262 -112 262 -112 250 -117 c 0,49,50
 241 -120 241 -120 226 -124 c 0,51,52
 212 -127 212 -127 194 -130 c 256,53,54
 176 -133 176 -133 162 -135 c 0,55,56
 147 -137 147 -137 135 -137 c 1,57,58
 124 -138 124 -138 115 -138 c 2,59,-1
 94 -138 l 2,60,61
 77 -138 77 -138 65 -126 c 128,-1,62
 53 -114 53 -114 53 -97.5 c 128,-1,63
 53 -81 53 -81 65 -69 c 128,-1,64
 77 -57 77 -57 94 -57 c 2,65,-1
 115 -57 l 2,66,67
 122 -57 122 -57 131 -56 c 0,68,69
 139 -56 139 -56 151 -54 c 1,70,71
 164 -53 164 -53 180 -50 c 0,72,73
 197 -47 197 -47 208 -45 c 0,74,75
 213 -44 213 -44 217 -42 c 1,76,77
 217 -40 217 -40 217 -38 c 0,78,79
 217 -30 217 -30 218 -17 c 0,80,81
 219 -6 219 -6 219 4 c 2,82,-1
 219 29 l 2,83,84
 219 43 219 43 220 62 c 0,85,86
 221 77 221 77 220 115 c 0,87,88
 219 155 219 155 218.5 186.5 c 128,-1,89
 218 218 218 218 218 250 c 0,90,91
 217 284 217 284 219 321 c 256,92,93
 221 358 221 358 224 399 c 256,94,95
 227 440 227 440 230 483 c 256,96,97
 233 526 233 526 238 571 c 1,98,99
 242 617 242 617 252 660 c 0,100,101
 253 664 253 664 254 668 c 1,102,103
 243 669 243 669 229 670 c 0,104,105
 205 671 205 671 193 672 c 0,106,107
 179 673 179 673 141 679 c 2,108,-1
 105 684 l 2,109,110
 89 687 89 687 79 700.5 c 128,-1,0
 69 714 69 714 71.5 730.5 c 128,-1,1
EndSplineSet
Validated: 33
EndChar

StartChar: asciicircum
Encoding: 94 94 65
Width: 431
Flags: W
LayerCount: 2
Fore
SplineSet
71 348 m 128,-1,1
 57 357 57 357 53.5 373.5 c 128,-1,2
 50 390 50 390 59 404 c 2,3,-1
 70 421 l 2,4,5
 80 436 80 436 107 478 c 0,6,7
 133 518 133 518 147.5 542.5 c 128,-1,8
 162 567 162 567 169 581 c 0,9,10
 177 597 177 597 183 606 c 0,11,12
 188 613 188 613 195 623 c 0,13,14
 205 638 205 638 217.5 642 c 128,-1,15
 230 646 230 646 240.5 641 c 128,-1,16
 251 636 251 636 260.5 627.5 c 128,-1,17
 270 619 270 619 274.5 612.5 c 128,-1,18
 279 606 279 606 280 605 c 0,19,20
 288 585 288 585 301 544 c 0,21,22
 311 510 311 510 319 493 c 0,23,24
 328 474 328 474 341 448 c 0,25,26
 356 419 356 419 362 402 c 0,27,28
 366 391 366 391 369 386 c 2,29,-1
 373 379 l 2,30,31
 381 364 381 364 377 348 c 128,-1,32
 373 332 373 332 358.5 323.5 c 128,-1,33
 344 315 344 315 327.5 319.5 c 128,-1,34
 311 324 311 324 303 338 c 2,35,-1
 299 346 l 2,36,37
 293 356 293 356 286 373 c 1,38,39
 282 386 282 386 269 411 c 0,40,41
 255 439 255 439 245 459 c 0,42,43
 236 479 236 479 225 514 c 1,44,45
 221 508 221 508 217 501 c 0,46,47
 202 475 202 475 175 434 c 0,48,49
 149 393 149 393 138 376 c 2,50,-1
 127 360 l 2,51,52
 118 346 118 346 101.5 342.5 c 128,-1,0
 85 339 85 339 71 348 c 128,-1,1
EndSplineSet
Validated: 33
EndChar

StartChar: underscore
Encoding: 95 95 66
Width: 627
Flags: W
LayerCount: 2
Fore
SplineSet
53 -34.5 m 128,-1,1
 52 -18 52 -18 63.5 -5.5 c 128,-1,2
 75 7 75 7 91 8 c 2,3,-1
 100 9 l 2,4,5
 108 9 108 9 122 9 c 1,6,7
 135 10 135 10 162 10 c 2,8,-1
 200 10 l 2,9,10
 211 10 211 10 235 10.5 c 128,-1,11
 259 11 259 11 277 12 c 0,12,13
 297 14 297 14 309 14 c 0,14,15
 322 14 322 14 337 14 c 0,16,17
 349 14 349 14 355 14 c 0,18,19
 360 14 360 14 372 15 c 0,20,21
 387 16 387 16 403 17 c 0,22,23
 419 17 419 17 426 17 c 0,24,25
 430 17 430 17 439 19 c 0,26,27
 453 21 453 21 465 21 c 1,28,29
 476 22 476 22 490 22 c 2,30,-1
 534 22 l 2,31,32
 551 22 551 22 562.5 10 c 128,-1,33
 574 -2 574 -2 574 -18.5 c 128,-1,34
 574 -35 574 -35 562.5 -47 c 128,-1,35
 551 -59 551 -59 534 -59 c 2,36,-1
 490 -59 l 2,37,38
 478 -59 478 -59 469 -60 c 0,39,40
 461 -60 461 -60 451 -62 c 0,41,42
 436 -64 436 -64 426 -64 c 0,43,44
 420 -64 420 -64 405 -64 c 1,45,46
 392 -65 392 -65 380 -66 c 0,47,48
 365 -67 365 -67 356 -67 c 0,49,50
 348 -67 348 -67 334 -67 c 0,51,52
 323 -67 323 -67 312 -67 c 0,53,54
 300 -67 300 -67 282 -68 c 0,55,56
 262 -70 262 -70 237 -70.5 c 128,-1,57
 212 -71 212 -71 200 -71 c 2,58,-1
 162 -71 l 2,59,60
 136 -71 136 -71 124 -71 c 0,61,62
 112 -72 112 -72 104 -72 c 2,63,-1
 96 -73 l 1,64,65
 79 -74 79 -74 66.5 -62.5 c 128,-1,0
 54 -51 54 -51 53 -34.5 c 128,-1,1
EndSplineSet
Validated: 33
EndChar

StartChar: grave
Encoding: 96 96 67
Width: 350
Flags: W
LayerCount: 2
Fore
SplineSet
294 550 m 1,0,1
 304 525 304 525 286 505 c 0,2,3
 275 493 275 493 258 492.5 c 128,-1,4
 241 492 241 492 229 503 c 2,5,-1
 222 510 l 2,6,7
 215 517 215 517 208 524 c 2,8,-1
 193 539 l 2,9,10
 184 548 184 548 171 560 c 0,11,12
 161 570 161 570 150 579 c 0,13,14
 136 590 136 590 121 602 c 0,15,16
 108 613 108 613 101 619 c 0,17,18
 99 621 99 621 90 625 c 2,19,-1
 76 632 l 2,20,21
 61 639 61 639 55.5 654.5 c 128,-1,22
 50 670 50 670 57 685 c 128,-1,23
 64 700 64 700 80 706 c 1,24,25
 84 711 84 711 90 714 c 2,26,-1
 101 720 l 2,27,28
 115 727 115 727 127.5 731 c 128,-1,29
 140 735 140 735 154 737 c 0,30,31
 170 739 170 739 187 731 c 128,-1,32
 204 723 204 723 211 706 c 0,33,34
 215 698 215 698 224 680 c 0,35,36
 232 664 232 664 236 659 c 0,37,38
 242 650 242 650 246 644 c 0,39,40
 251 638 251 638 259 628 c 0,41,42
 270 613 270 613 278 594 c 0,43,44
 285 578 285 578 287 573 c 2,45,-1
 290 565 l 1,46,47
 294 558 294 558 294 550 c 1,0,1
EndSplineSet
Validated: 33
EndChar

StartChar: a
Encoding: 97 97 68
Width: 527
Flags: W
LayerCount: 2
Fore
SplineSet
296 382 m 1,0,1
 290 379 290 379 283 375 c 0,2,3
 256 362 256 362 236 346 c 1,4,5
 215 331 215 331 192 303 c 0,6,7
 170 277 170 277 154 239 c 0,8,9
 138 200 138 200 135 180 c 1,10,11
 133 158 133 158 135 132 c 0,12,13
 138 105 138 105 143 89 c 0,14,15
 149 72 149 72 155 64 c 1,16,17
 155 64 155 64 155 63 c 1,18,19
 161 65 161 65 169 67 c 0,20,21
 181 71 181 71 201 82 c 0,22,23
 222 93 222 93 233 103 c 128,-1,24
 244 113 244 113 250 122 c 0,25,26
 257 131 257 131 266 152 c 1,27,28
 276 172 276 172 279 186 c 0,29,30
 283 203 283 203 284 216 c 0,31,32
 286 232 286 232 290 254 c 0,33,34
 293 275 293 275 296 299 c 1,35,36
 295 325 295 325 295 351 c 1,37,38
 296 368 296 368 296 382 c 1,0,1
375 441 m 0,39,40
 383 422 383 422 383 417 c 2,41,-1
 383 403 l 2,42,43
 383 394 383 394 382 380 c 0,44,45
 382 369 382 369 382 359 c 0,46,47
 382 348 382 348 382 336 c 0,48,49
 382 322 382 322 378 295 c 0,50,51
 378 291 378 291 378 288 c 0,52,53
 380 257 380 257 384 225 c 0,54,55
 385 220 385 220 385 215 c 0,56,57
 389 191 389 191 396 168 c 0,58,59
 405 139 405 139 415 115 c 0,60,61
 426 89 426 89 433 69 c 1,62,63
 441 50 441 50 446 37 c 0,64,65
 449 30 449 30 455 22 c 2,66,-1
 466 9 l 2,67,68
 476 -3 476 -3 474.5 -20 c 128,-1,69
 473 -37 473 -37 460 -47.5 c 128,-1,70
 447 -58 447 -58 430 -56 c 128,-1,71
 413 -54 413 -54 403 -42 c 2,72,-1
 392 -29 l 2,73,74
 378 -12 378 -12 371 7 c 0,75,76
 366 19 366 19 358 39 c 0,77,78
 350 58 350 58 340 84 c 0,79,80
 336 93 336 93 333 103 c 1,81,82
 324 86 324 86 316 75 c 0,83,84
 306 60 306 60 287 43 c 256,85,86
 268 26 268 26 240 11 c 0,87,88
 212 -5 212 -5 192 -11 c 0,89,90
 175 -16 175 -16 163 -18 c 0,91,92
 139 -23 139 -23 117 -10 c 0,93,94
 99 0 99 0 86 21 c 0,95,96
 76 37 76 37 67 62 c 0,97,98
 58 88 58 88 55 124 c 0,99,100
 51 160 51 160 55 190 c 0,101,102
 59 221 59 221 80 270 c 0,103,104
 100 319 100 319 130 355 c 0,105,106
 159 390 159 390 187 411 c 0,107,108
 213 431 213 431 246.5 447.5 c 128,-1,109
 280 464 280 464 295 469 c 1,110,111
 314 474 314 474 326 474 c 2,112,-1
 332 474 l 2,113,114
 345 474 345 474 357.5 464.5 c 128,-1,115
 370 455 370 455 375 441 c 0,39,40
EndSplineSet
Validated: 33
EndChar

StartChar: b
Encoding: 98 98 69
Width: 507
Flags: W
LayerCount: 2
Fore
SplineSet
147 332 m 1,0,1
 147 310 147 310 147 293 c 0,2,3
 148 261 148 261 147 241 c 0,4,5
 146 222 146 222 144 206 c 0,6,7
 143 190 143 190 139 159 c 0,8,9
 136 131 136 131 136 120 c 0,10,11
 136 111 136 111 138 104 c 0,12,13
 139 103 139 103 141 101 c 0,14,15
 144 98 144 98 150 97 c 0,16,17
 160 95 160 95 184 96 c 0,18,19
 209 97 209 97 245 105.5 c 128,-1,20
 281 114 281 114 305 125 c 0,21,22
 327 136 327 136 349 155 c 1,23,24
 367 169 367 169 370 181 c 0,25,26
 374 195 374 195 372 206 c 0,27,28
 370 221 370 221 364 234 c 0,29,30
 359 245 359 245 329 279 c 256,31,32
 299 313 299 313 284 321 c 1,33,34
 268 331 268 331 248 336 c 1,35,36
 226 343 226 343 206 345 c 0,37,38
 192 347 192 347 174 341 c 0,39,40
 160 336 160 336 147 332 c 1,0,1
150 418 m 1,41,42
 185 430 185 430 217 425 c 1,43,44
 243 422 243 422 270 414 c 0,45,46
 299 406 299 406 324 392 c 0,47,48
 351 377 351 377 390 333 c 0,49,50
 428 289 428 289 438 266 c 0,51,52
 448 244 448 244 452 220 c 0,53,54
 457 190 457 190 448 158 c 1,55,56
 437 123 437 123 402 93 c 0,57,58
 371 67 371 67 338 52 c 0,59,60
 307 37 307 37 264 27 c 256,61,62
 221 17 221 17 188 15 c 0,63,64
 152 13 152 13 132 18 c 0,65,66
 106 24 106 24 88 40 c 0,67,68
 68 57 68 57 61 81 c 0,69,70
 55 99 55 99 55 119 c 0,71,72
 55 136 55 136 59 169 c 0,73,74
 62 199 62 199 64 213 c 1,75,76
 65 228 65 228 66 245 c 256,77,78
 67 262 67 262 66 292 c 0,79,80
 66 311 66 311 66 334 c 1,81,82
 63 339 63 339 61 344 c 0,83,84
 54 365 54 365 68 383 c 1,85,86
 69 416 69 416 69 446 c 0,87,88
 69 482 69 482 63 541 c 1,89,90
 58 601 58 601 55 632 c 2,91,-1
 53 663 l 2,92,93
 52 679 52 679 63 692 c 128,-1,94
 74 705 74 705 90.5 706 c 128,-1,95
 107 707 107 707 120 696 c 128,-1,96
 133 685 133 685 134 669 c 2,97,-1
 136 638 l 2,98,99
 138 608 138 608 144 548 c 0,100,101
 150 486 150 486 150 446 c 0,102,103
 150 433 150 433 150 418 c 1,41,42
EndSplineSet
Validated: 33
EndChar

StartChar: c
Encoding: 99 99 70
Width: 540
Flags: W
LayerCount: 2
Fore
SplineSet
477 358.5 m 128,-1,1
 466 346 466 346 449 345.5 c 128,-1,2
 432 345 432 345 420 356 c 2,3,-1
 395 378 l 2,4,5
 377 394 377 394 341 406 c 0,6,7
 306 418 306 418 292 416 c 0,8,9
 275 413 275 413 251 402 c 0,10,11
 224 389 224 389 198 372 c 0,12,13
 172 356 172 356 160 344 c 1,14,15
 152 338 152 338 145 318 c 0,16,17
 136 291 136 291 135 284 c 0,18,19
 134 279 134 279 134 268 c 1,20,21
 136 253 136 253 137 240 c 256,22,23
 138 227 138 227 139 219 c 0,24,25
 140 213 140 213 142 202 c 0,26,27
 143 194 143 194 145 188 c 256,28,29
 147 182 147 182 152 172 c 0,30,31
 157 161 157 161 164 150 c 0,32,33
 169 141 169 141 172 138 c 0,34,35
 177 132 177 132 187 122 c 0,36,37
 195 115 195 115 205 108 c 1,38,39
 212 105 212 105 231 105 c 0,40,41
 259 105 259 105 275 109 c 0,42,43
 296 114 296 114 322 119 c 0,44,45
 345 124 345 124 357 128 c 0,46,47
 370 132 370 132 377 135 c 256,48,49
 384 138 384 138 389 141 c 0,50,51
 389 142 389 142 390 142 c 1,52,53
 390 143 390 143 391 144 c 2,54,-1
 393 150 l 2,55,56
 398 166 398 166 413 173.5 c 128,-1,57
 428 181 428 181 444 175.5 c 128,-1,58
 460 170 460 170 467.5 155 c 128,-1,59
 475 140 475 140 470 124 c 2,60,-1
 468 118 l 2,61,62
 463 106 463 106 455 94 c 0,63,64
 445 81 445 81 431 72 c 0,65,66
 422 66 422 66 410 61 c 0,67,68
 399 56 399 56 382 51 c 0,69,70
 365 45 365 45 338 40 c 0,71,72
 314 35 314 35 293 30 c 0,73,74
 268 24 268 24 231 24 c 0,75,76
 186 25 186 25 163 39 c 0,77,78
 145 50 145 50 130 64 c 0,79,80
 118 76 118 76 112 83 c 0,81,82
 103 93 103 93 94 109 c 0,83,84
 86 123 86 123 79 136 c 1,85,86
 73 150 73 150 69 161 c 0,87,88
 65 173 65 173 62 188 c 0,89,90
 59 202 59 202 59 212 c 1,91,92
 58 219 58 219 57 232 c 0,93,94
 55 245 55 245 54 262 c 0,95,96
 52 284 52 284 55 300 c 0,97,98
 58 313 58 313 69 345 c 0,99,100
 83 383 83 383 105 404 c 0,101,102
 122 420 122 420 154 440 c 0,103,104
 185 460 185 460 216 475 c 0,105,106
 250 491 250 491 280 496 c 0,107,108
 313 501 313 501 367 483 c 0,109,110
 419 466 419 466 449 438 c 1,111,-1
 474 416 l 2,112,113
 486 405 486 405 487 388 c 128,-1,0
 488 371 488 371 477 358.5 c 128,-1,1
EndSplineSet
Validated: 33
EndChar

StartChar: d
Encoding: 100 100 71
Width: 520
Flags: W
LayerCount: 2
Fore
SplineSet
358 419 m 1,0,1
 355 446 355 446 353 471 c 0,2,3
 347 538 347 538 340 585 c 0,4,5
 333 638 333 638 338 683 c 256,6,7
 343 728 343 728 348 744 c 2,8,-1
 351 755 l 1,9,10
 357 771 357 771 372 778.5 c 128,-1,11
 387 786 387 786 402.5 781 c 128,-1,12
 418 776 418 776 426 760.5 c 128,-1,13
 434 745 434 745 428 730 c 1,14,-1
 425 718 l 2,15,16
 422 709 422 709 418 675 c 0,17,18
 414 639 414 639 421 596 c 1,19,20
 427 547 427 547 433 478 c 0,21,22
 437 434 437 434 444 387 c 0,23,24
 447 365 447 365 451 343 c 0,25,26
 463 270 463 270 466 240 c 0,27,28
 470 203 470 203 458 163 c 256,29,30
 446 123 446 123 422 91 c 0,31,32
 400 62 400 62 383 47 c 0,33,34
 364 30 364 30 323 15 c 0,35,36
 283 0 283 0 253 1 c 0,37,38
 226 1 226 1 214 4 c 0,39,40
 199 7 199 7 160 27 c 0,41,42
 121 48 121 48 98 68 c 0,43,44
 71 93 71 93 60 128 c 0,45,46
 50 161 50 161 55 197 c 0,47,48
 59 231 59 231 75 260 c 0,49,50
 92 291 92 291 137 329 c 0,51,52
 181 366 181 366 231 388 c 1,53,54
 280 411 280 411 312 417 c 0,55,56
 338 422 338 422 358 419 c 1,0,1
370 333 m 1,57,58
 362 333 362 333 356 335 c 2,59,-1
 345 339 l 1,60,61
 339 340 339 340 327 337 c 0,62,63
 305 333 305 333 264 315 c 0,64,65
 225 297 225 297 189 267 c 0,66,67
 156 239 156 239 147 222 c 256,68,69
 138 205 138 205 135 186 c 0,70,71
 132 168 132 168 137 152 c 0,72,73
 141 138 141 138 152 129 c 0,74,75
 168 115 168 115 198 99 c 0,76,77
 221 86 221 86 230 83 c 1,78,79
 237 82 237 82 254 82 c 0,80,81
 269 82 269 82 296 91 c 1,82,83
 322 101 322 101 329 107 c 0,84,85
 340 117 340 117 357 140 c 0,86,87
 372 161 372 161 380 186 c 256,88,89
 388 211 388 211 386 232 c 0,90,91
 383 259 383 259 371 329 c 0,92,93
 371 330 371 330 371 331 c 0,94,95
 370 332 370 332 370 333 c 1,57,58
EndSplineSet
Validated: 33
EndChar

StartChar: e
Encoding: 101 101 72
Width: 603
Flags: W
LayerCount: 2
Fore
SplineSet
161 318 m 0,0,1
 180 316 180 316 208 312 c 0,2,3
 243 307 243 307 293.5 310 c 128,-1,4
 344 313 344 313 375 320 c 0,5,6
 400 326 400 326 414 333 c 1,7,8
 413 337 413 337 413 341 c 0,9,10
 412 350 412 350 404 367 c 0,11,12
 396 383 396 383 389 391 c 0,13,14
 380 400 380 400 372 406 c 128,-1,15
 364 412 364 412 351 419 c 1,16,17
 339 424 339 424 330 427 c 1,18,19
 322 428 322 428 299 425 c 0,20,21
 274 422 274 422 248 408 c 1,22,23
 221 392 221 392 198 370 c 0,24,25
 176 350 176 350 162 320 c 0,26,27
 161 319 161 319 161 318 c 0,0,1
65 291 m 1,28,29
 65 302 65 302 69 309 c 0,30,31
 70 311 70 311 71 313 c 0,32,33
 79 335 79 335 89 355 c 0,34,35
 110 399 110 399 142 429 c 0,36,37
 172 458 172 458 209 478 c 0,38,39
 248 500 248 500 289 505 c 0,40,41
 330 511 330 511 351 505 c 0,42,43
 367 501 367 501 387 491 c 0,44,45
 406 482 406 482 420 471.5 c 128,-1,46
 434 461 434 461 448 446 c 0,47,48
 464 429 464 429 477 401 c 256,49,50
 490 373 490 373 493 351 c 0,51,52
 495 334 495 334 496 322 c 0,53,54
 497 288 497 288 458 265 c 0,55,56
 434 251 434 251 394 241 c 0,57,58
 356 232 356 232 298 229 c 128,-1,59
 240 226 240 226 197 232 c 0,60,61
 159 237 159 237 136 240 c 1,62,63
 133 215 133 215 135 200 c 1,64,65
 138 186 138 186 156 166 c 0,66,67
 178 141 178 141 202 125 c 0,68,69
 228 107 228 107 236 103 c 0,70,71
 243 99 243 99 256 95 c 0,72,73
 267 92 267 92 291 91 c 1,74,75
 317 91 317 91 344 97 c 0,76,77
 369 102 369 102 407 120 c 1,78,79
 448 141 448 141 463 148 c 0,80,81
 480 157 480 157 488 161 c 1,82,-1
 495 163 l 1,83,84
 510 169 510 169 525.5 162.5 c 128,-1,85
 541 156 541 156 547 140.5 c 128,-1,86
 553 125 553 125 546.5 109.5 c 128,-1,87
 540 94 540 94 525 88 c 1,88,-1
 518 86 l 2,89,90
 514 84 514 84 500 77 c 1,91,92
 485 68 485 68 442 48 c 1,93,94
 396 25 396 25 360 17 c 0,95,96
 325 10 325 10 290 10 c 0,97,98
 254 11 254 11 232 18 c 0,99,100
 212 24 212 24 198 31 c 0,101,102
 185 38 185 38 156 58 c 0,103,104
 125 79 125 79 96 111 c 0,105,106
 62 149 62 149 55 187 c 0,107,108
 49 220 49 220 59 268 c 0,109,110
 62 280 62 280 65 291 c 1,28,29
EndSplineSet
Validated: 33
EndChar

StartChar: f
Encoding: 102 102 73
Width: 583
Flags: W
LayerCount: 2
Fore
SplineSet
53 337 m 128,-1,1
 53 354 53 354 65 365.5 c 128,-1,2
 77 377 77 377 94 377 c 2,3,-1
 109 377 l 2,4,5
 124 377 124 377 190 378 c 0,6,7
 197 378 197 378 204 378 c 1,8,9
 204 392 204 392 204 404 c 0,10,11
 202 442 202 442 202.5 470 c 128,-1,12
 203 498 203 498 203 510 c 0,13,14
 204 524 204 524 205 539 c 0,15,16
 207 560 207 560 211 578 c 128,-1,17
 215 596 215 596 222 612 c 0,18,19
 228 626 228 626 235 639 c 0,20,21
 243 655 243 655 253 666.5 c 128,-1,22
 263 678 263 678 282 692 c 0,23,24
 303 708 303 708 323 715.5 c 128,-1,25
 343 723 343 723 361 725 c 0,26,27
 380 727 380 727 405.5 722.5 c 128,-1,28
 431 718 431 718 452 708 c 256,29,30
 473 698 473 698 487.5 684 c 128,-1,31
 502 670 502 670 512 652 c 0,32,33
 518 641 518 641 521 635 c 2,34,-1
 525 628 l 2,35,36
 533 614 533 614 529 597.5 c 128,-1,37
 525 581 525 581 510.5 573 c 128,-1,38
 496 565 496 565 479.5 569.5 c 128,-1,39
 463 574 463 574 455 588 c 1,40,-1
 451 594 l 1,41,42
 447 602 447 602 440 614 c 0,43,44
 437 620 437 620 431.5 625.5 c 128,-1,45
 426 631 426 631 416 635 c 1,46,47
 406 641 406 641 391.5 643.5 c 128,-1,48
 377 646 377 646 370 645 c 0,49,50
 362 644 362 644 352.5 640 c 128,-1,51
 343 636 343 636 331 628 c 1,52,53
 319 618 319 618 315 613.5 c 128,-1,54
 311 609 311 609 307 601 c 0,55,56
 301 591 301 591 296 580 c 0,57,58
 292 570 292 570 289.5 559 c 128,-1,59
 287 548 287 548 286 534 c 0,60,61
 285 515 285 515 284 505 c 0,62,63
 284 495 284 495 283.5 469 c 128,-1,64
 283 443 283 443 284 408 c 0,65,66
 285 395 285 395 285 380 c 1,67,68
 294 380 294 380 303 380 c 0,69,70
 351 382 351 382 383 383.5 c 128,-1,71
 415 385 415 385 431 385 c 1,72,73
 445 386 445 386 453 387 c 2,74,-1
 463 388 l 2,75,76
 479 390 479 390 492.5 379.5 c 128,-1,77
 506 369 506 369 508 352.5 c 128,-1,78
 510 336 510 336 499.5 323 c 128,-1,79
 489 310 489 310 472 308 c 1,80,-1
 463 306 l 1,81,82
 452 305 452 305 434 304 c 0,83,84
 418 304 418 304 386 302.5 c 128,-1,85
 354 301 354 301 306 299 c 0,86,87
 296 299 296 299 285 299 c 1,88,89
 284 246 284 246 284 212 c 0,90,91
 285 177 285 177 291 116 c 0,92,93
 297 51 297 51 298 12 c 2,94,-1
 299 -25 l 2,95,96
 300 -42 300 -42 288 -54 c 128,-1,97
 276 -66 276 -66 259.5 -66.5 c 128,-1,98
 243 -67 243 -67 231 -55.5 c 128,-1,99
 219 -44 219 -44 218 -27 c 2,100,-1
 217 10 l 2,101,102
 216 46 216 46 210 108 c 0,103,104
 204 172 204 172 203 211 c 0,105,106
 203 245 203 245 204 297 c 1,107,108
 197 297 197 297 190 297 c 0,109,110
 124 296 124 296 109 296 c 2,111,-1
 94 296 l 2,112,113
 77 296 77 296 65 308 c 128,-1,0
 53 320 53 320 53 337 c 128,-1,1
EndSplineSet
Validated: 33
EndChar

StartChar: g
Encoding: 103 103 74
Width: 533
Flags: W
LayerCount: 2
Fore
SplineSet
386 366 m 1,0,1
 386 366 386 366 383 366 c 0,2,3
 370 365 370 365 352 361 c 0,4,5
 333 357 333 357 322 353 c 0,6,7
 309 348 309 348 285 336 c 0,8,9
 263 326 263 326 247 314 c 0,10,11
 229 301 229 301 214 285 c 0,12,13
 198 269 198 269 187 251 c 0,14,15
 175 233 175 233 169 216 c 1,16,17
 163 203 163 203 162 193 c 1,18,19
 162 181 162 181 163 176 c 256,20,21
 164 171 164 171 168 158 c 0,22,23
 171 149 171 149 173 144 c 0,24,25
 174 143 174 143 176 142 c 0,26,27
 182 139 182 139 188 138 c 0,28,29
 193 137 193 137 207 139 c 0,30,31
 226 143 226 143 242 150 c 0,32,33
 260 158 260 158 267 161 c 0,34,35
 274 165 274 165 283 171 c 0,36,37
 292 178 292 178 301 186 c 0,38,39
 311 195 311 195 318 202 c 0,40,41
 323 208 323 208 337 229 c 256,42,43
 351 250 351 250 353 256 c 0,44,45
 357 264 357 264 366 280 c 0,46,47
 371 290 371 290 377 304 c 1,48,49
 377 326 377 326 379 339 c 0,50,51
 380 351 380 351 386 366 c 1,0,1
451 421 m 1,52,53
 466 411 466 411 473.5 400 c 128,-1,54
 481 389 481 389 481 383 c 2,55,-1
 480 377 l 1,56,57
 480 368 480 368 478 354.5 c 128,-1,58
 476 341 476 341 473 328 c 256,59,60
 470 315 470 315 458 287 c 1,61,62
 459 262 459 262 462 237 c 0,63,64
 465 207 465 207 468 179 c 0,65,66
 471 149 471 149 472 124 c 0,67,68
 472 100 472 100 472 88 c 0,69,70
 472 75 472 75 471 53 c 0,71,72
 470 30 470 30 466 2 c 0,73,74
 462 -27 462 -27 459 -38 c 0,75,76
 456 -48 456 -48 452 -63 c 0,77,78
 447 -79 447 -79 441 -96 c 1,79,80
 433 -114 433 -114 425 -127 c 0,81,82
 415 -144 415 -144 395 -158 c 1,83,84
 378 -168 378 -168 363 -175 c 1,85,86
 349 -180 349 -180 334 -185 c 0,87,88
 321 -189 321 -189 314 -191 c 0,89,90
 305 -194 305 -194 282 -197 c 0,91,92
 258 -200 258 -200 240 -200 c 0,93,94
 222 -199 222 -199 202 -194 c 0,95,96
 184 -190 184 -190 173 -186 c 0,97,98
 161 -181 161 -181 146 -171 c 256,99,100
 131 -161 131 -161 118 -148 c 0,101,102
 106 -136 106 -136 89 -116 c 0,103,104
 71 -95 71 -95 65 -87 c 2,105,-1
 60 -80 l 2,106,107
 51 -66 51 -66 54 -49.5 c 128,-1,108
 57 -33 57 -33 70.5 -23.5 c 128,-1,109
 84 -14 84 -14 100.5 -17 c 128,-1,110
 117 -20 117 -20 127 -34 c 2,111,-1
 131 -40 l 2,112,113
 135 -45 135 -45 150 -63 c 0,114,115
 165 -80 165 -80 175 -90 c 0,116,117
 183 -98 183 -98 191 -103 c 0,118,119
 199 -109 199 -109 203 -110 c 0,120,121
 209 -112 209 -112 221 -116 c 1,122,123
 233 -118 233 -118 243 -119 c 1,124,125
 254 -119 254 -119 270 -117 c 256,126,127
 286 -115 286 -115 291 -113 c 0,128,129
 297 -111 297 -111 310 -107 c 0,130,131
 322 -104 322 -104 333 -99 c 0,132,133
 341 -96 341 -96 350 -90 c 0,134,135
 355 -87 355 -87 356 -84 c 1,136,137
 361 -78 361 -78 365 -66 c 1,138,139
 371 -53 371 -53 374 -40 c 0,140,141
 378 -26 378 -26 381 -17 c 0,142,143
 383 -10 383 -10 386 13 c 0,144,145
 390 38 390 38 391 57 c 1,146,147
 391 77 391 77 391 88 c 256,148,149
 391 99 391 99 391 122 c 0,150,151
 391 140 391 140 389 161 c 1,152,153
 382 153 382 153 377 147 c 0,154,155
 369 138 369 138 356 127 c 1,156,157
 343 114 343 114 329 105 c 0,158,159
 315 95 315 95 305 90 c 256,160,161
 295 85 295 85 274 75 c 1,162,163
 250 65 250 65 222 60 c 0,164,165
 190 54 190 54 170 59 c 0,166,167
 151 63 151 63 135 73 c 0,168,169
 115 85 115 85 105 101 c 0,170,171
 97 113 97 113 91 133 c 0,172,173
 85 151 85 151 83 163 c 0,174,175
 81 176 81 176 82 197 c 0,176,177
 83 220 83 220 93 247 c 1,178,179
 103 270 103 270 118 295 c 0,180,181
 134 320 134 320 155 341 c 0,182,183
 176 363 176 363 198 379 c 0,184,185
 222 396 222 396 251 410 c 0,186,187
 277 422 277 422 292 428 c 0,188,189
 309 435 309 435 334 440 c 0,190,191
 361 446 361 446 382 447 c 1,192,193
 405 447 405 447 418 443 c 2,194,-1
 425 441 l 2,195,196
 444 436 444 436 451 421 c 1,52,53
EndSplineSet
Validated: 33
EndChar

StartChar: h
Encoding: 104 104 75
Width: 486
Flags: W
LayerCount: 2
Fore
SplineSet
131.5 694.5 m 128,-1,1
 148 693 148 693 158.5 679.5 c 128,-1,2
 169 666 169 666 167 650 c 2,3,-1
 165 633 l 2,4,5
 164 617 164 617 160 532 c 0,6,7
 156 445 156 445 150 350 c 0,8,9
 148 329 148 329 147 309 c 1,10,11
 158 317 158 317 170 324 c 0,12,13
 204 346 204 346 233 355 c 0,14,15
 265 366 265 366 298 365 c 0,16,17
 342 364 342 364 379 320 c 0,18,19
 409 284 409 284 422 243 c 0,20,21
 433 205 433 205 434 161 c 0,22,23
 434 120 434 120 430.5 92 c 128,-1,24
 427 64 427 64 422 46 c 0,25,26
 417 29 417 29 411 14 c 0,27,28
 406 0 406 0 403 -7 c 0,29,30
 402 -8 402 -8 402 -12 c 2,31,-1
 401 -20 l 2,32,33
 399 -37 399 -37 385.5 -47 c 128,-1,34
 372 -57 372 -57 355.5 -55 c 128,-1,35
 339 -53 339 -53 329 -39.5 c 128,-1,36
 319 -26 319 -26 321 -10 c 2,37,-1
 322 0 l 2,38,39
 324 14 324 14 329 25 c 0,40,41
 331 31 331 31 336 43 c 0,42,43
 340 54 340 54 344 68 c 0,44,45
 347 81 347 81 350 103 c 128,-1,46
 353 125 353 125 353 160 c 1,47,48
 352 193 352 193 344 220 c 0,49,50
 337 245 337 245 317 268 c 0,51,52
 304 284 304 284 296 284 c 0,53,54
 277 284 277 284 259 279 c 1,55,56
 239 272 239 272 213 256 c 0,57,58
 188 240 188 240 178 228 c 0,59,60
 168 215 168 215 165 209 c 0,61,62
 162 202 162 202 158 181 c 0,63,64
 153 157 153 157 148 111 c 128,-1,65
 143 65 143 65 142 42 c 0,66,67
 142 40 142 40 142.5 37.5 c 128,-1,68
 143 35 143 35 143 27.5 c 128,-1,69
 143 20 143 20 142 13.5 c 128,-1,70
 141 7 141 7 137 0 c 128,-1,71
 133 -7 133 -7 127 -11 c 128,-1,72
 121 -15 121 -15 110 -14.5 c 128,-1,73
 99 -14 99 -14 85 -9 c 1,74,75
 63 1 63 1 56 11 c 128,-1,76
 49 21 49 21 54 27 c 2,77,-1
 59 32 l 1,78,79
 57 49 57 49 56 77 c 0,80,81
 54 108 54 108 58 185 c 1,82,83
 63 260 63 260 69 355 c 256,84,85
 75 450 75 450 79 536 c 0,86,87
 83 623 83 623 85 641 c 2,88,-1
 87 658 l 2,89,90
 88 675 88 675 101.5 685.5 c 128,-1,0
 115 696 115 696 131.5 694.5 c 128,-1,1
EndSplineSet
Validated: 33
EndChar

StartChar: i
Encoding: 105 105 76
Width: 214
Flags: W
LayerCount: 2
Fore
SplineSet
69 597 m 1,0,1
 80 609 80 609 93 613 c 1,2,3
 106 622 106 622 121 620 c 0,4,5
 146 616 146 616 154 591 c 1,6,7
 162 580 162 580 162 565.5 c 128,-1,8
 162 551 162 551 153 540 c 0,9,10
 138 523 138 523 116 526 c 1,11,12
 113 525 113 525 112 525 c 0,13,14
 90 520 90 520 71.5 548 c 128,-1,15
 53 576 53 576 69 597 c 1,0,1
110.5 474 m 128,-1,17
 127 474 127 474 139 462 c 128,-1,18
 151 450 151 450 151 434 c 2,19,-1
 151 416 l 2,20,21
 151 398 151 398 150 364.5 c 128,-1,22
 149 331 149 331 147 284 c 0,23,24
 145 238 145 238 144 185 c 0,25,26
 143 131 143 131 141 115 c 0,27,28
 140 100 140 100 138 79 c 256,29,30
 136 58 136 58 135 48 c 2,31,-1
 134 37 l 2,32,33
 132 21 132 21 119 10 c 128,-1,34
 106 -1 106 -1 89.5 0.5 c 128,-1,35
 73 2 73 2 62.5 15 c 128,-1,36
 52 28 52 28 53 45 c 2,37,-1
 54 55 l 2,38,39
 55 66 55 66 57 87 c 0,40,41
 60 108 60 108 61 122 c 0,42,43
 62 135 62 135 63 187 c 0,44,45
 64 241 64 241 66 288 c 1,46,47
 69 334 69 334 69.5 367 c 128,-1,48
 70 400 70 400 70 416 c 2,49,-1
 70 434 l 2,50,51
 70 450 70 450 82 462 c 128,-1,16
 94 474 94 474 110.5 474 c 128,-1,17
EndSplineSet
Validated: 33
EndChar

StartChar: j
Encoding: 106 106 77
Width: 456
Flags: W
LayerCount: 2
Fore
SplineSet
268 582 m 1,0,1
 255 592 255 592 252 607 c 0,2,3
 249 624 249 624 258 638 c 128,-1,4
 267 652 267 652 284 655 c 1,5,-1
 292 657 l 2,6,7
 306 660 306 660 323 657 c 0,8,9
 327 657 327 657 331 656 c 0,10,11
 350 652 350 652 365 638 c 2,12,-1
 371 632 l 2,13,14
 383 621 383 621 383.5 604 c 128,-1,15
 384 587 384 587 373 575 c 0,16,17
 359 559 359 559 337 562 c 1,18,19
 318 552 318 552 299 557 c 0,20,21
 279 562 279 562 268 582 c 1,0,1
92.5 87.5 m 128,-1,23
 109 88 109 88 121 76.5 c 128,-1,24
 133 65 133 65 134 48 c 1,25,-1
 134 38 l 1,26,27
 135 31 135 31 140 4 c 0,28,29
 145 -22 145 -22 155 -38 c 0,30,31
 166 -57 166 -57 176 -71 c 0,32,33
 182 -80 182 -80 193 -86 c 0,34,35
 201 -91 201 -91 206 -94 c 1,36,37
 212 -94 212 -94 221 -94 c 0,38,39
 226 -94 226 -94 227 -93 c 0,40,41
 235 -87 235 -87 241 -80 c 0,42,43
 250 -70 250 -70 255 -63 c 0,44,45
 259 -58 259 -58 271 -37 c 1,46,47
 282 -20 282 -20 291 30 c 0,48,49
 302 87 302 87 310 129 c 0,50,51
 317 170 317 170 321 207 c 0,52,53
 324 241 324 241 322 257 c 0,54,55
 321 271 321 271 317 283 c 0,56,57
 310 303 310 303 304 333 c 256,58,59
 298 363 298 363 298 395 c 1,60,61
 297 421 297 421 296 429 c 2,62,-1
 295 439 l 1,63,64
 292 456 292 456 302.5 469.5 c 128,-1,65
 313 483 313 483 329.5 485 c 128,-1,66
 346 487 346 487 359.5 477 c 128,-1,67
 373 467 373 467 375 450 c 2,68,-1
 376 440 l 2,69,70
 378 428 378 428 379 397 c 0,71,72
 379 371 379 371 384 348 c 1,73,74
 388 324 388 324 393 310 c 0,75,76
 401 289 401 289 403 265 c 0,77,78
 405 242 405 242 401 199 c 0,79,80
 398 159 398 159 390 115 c 0,81,82
 382 72 382 72 371 15 c 0,83,84
 359 -49 359 -49 341 -78 c 0,85,86
 326 -104 326 -104 319 -113 c 0,87,88
 313 -121 313 -121 304 -132 c 0,89,90
 291 -147 291 -147 275 -159 c 0,91,92
 252 -175 252 -175 221 -175 c 0,93,94
 199 -175 199 -175 188 -173 c 0,95,96
 176 -170 176 -170 152 -157 c 1,97,98
 127 -142 127 -142 110 -119 c 0,99,100
 97 -101 97 -101 84 -78 c 0,101,102
 69 -50 69 -50 61 -13 c 0,103,104
 54 22 54 22 53 36 c 1,105,-1
 53 46 l 2,106,107
 53 62 53 62 64.5 74.5 c 128,-1,22
 76 87 76 87 92.5 87.5 c 128,-1,23
EndSplineSet
Validated: 33
EndChar

StartChar: k
Encoding: 107 107 78
Width: 491
Flags: W
LayerCount: 2
Fore
SplineSet
91.5 698.5 m 128,-1,1
 108 701 108 701 121.5 690.5 c 128,-1,2
 135 680 135 680 137 664 c 2,3,-1
 142 627 l 2,4,5
 147 587 147 587 146 500 c 0,6,7
 145 415 145 415 144 383 c 0,8,9
 144 360 144 360 144 315 c 1,10,11
 160 328 160 328 184 346 c 0,12,13
 185 347 185 347 187 348 c 1,14,15
 193 356 193 356 203 360 c 1,16,17
 263 405 263 405 297 423 c 0,18,19
 336 444 336 444 362 453 c 1,20,-1
 385 460 l 1,21,22
 401 466 401 466 416 458 c 128,-1,23
 431 450 431 450 436.5 434.5 c 128,-1,24
 442 419 442 419 434 404 c 128,-1,25
 426 389 426 389 411 384 c 2,26,-1
 388 376 l 2,27,28
 368 370 368 370 336 352 c 0,29,30
 311 338 311 338 262 303 c 1,31,32
 265 291 265 291 269 278 c 0,33,34
 279 248 279 248 287 226 c 0,35,36
 295 203 295 203 314 150 c 1,37,38
 331 98 331 98 345 65 c 2,39,-1
 359 31 l 2,40,41
 366 16 366 16 359.5 0.5 c 128,-1,42
 353 -15 353 -15 338 -21.5 c 128,-1,43
 323 -28 323 -28 307 -21.5 c 128,-1,44
 291 -15 291 -15 285 0 c 2,45,-1
 271 34 l 2,46,47
 256 69 256 69 237 123 c 0,48,49
 219 176 219 176 211 198 c 0,50,51
 202 220 202 220 193 251 c 1,52,53
 155 221 155 221 143 209 c 1,54,55
 143 197 143 197 143 187 c 0,56,57
 143 157 143 157 143 94 c 0,58,59
 142 29 142 29 141 18 c 0,60,61
 140 8 140 8 137 -4 c 2,62,-1
 135 -16 l 1,63,64
 131 -32 131 -32 117 -41.5 c 128,-1,65
 103 -51 103 -51 87 -47.5 c 128,-1,66
 71 -44 71 -44 61.5 -30 c 128,-1,67
 52 -16 52 -16 55 0 c 2,68,-1
 58 12 l 2,69,70
 60 21 60 21 61 28 c 1,71,72
 61 38 61 38 62 94 c 1,73,74
 62 157 62 157 62 187 c 0,75,76
 62 188 62 188 62 189.5 c 128,-1,77
 62 191 62 191 62 192 c 0,78,79
 53 203 53 203 53 217.5 c 128,-1,80
 53 232 53 232 62 243 c 1,81,82
 62 262 62 262 62 286 c 0,83,84
 63 353 63 353 63 385 c 0,85,86
 64 417 64 417 65 501 c 0,87,88
 66 583 66 583 62 616 c 2,89,-1
 57 653 l 2,90,91
 55 670 55 670 65 683 c 128,-1,0
 75 696 75 696 91.5 698.5 c 128,-1,1
EndSplineSet
Validated: 33
EndChar

StartChar: l
Encoding: 108 108 79
Width: 213
Flags: W
LayerCount: 2
Fore
SplineSet
105.5 691.5 m 128,-1,1
 122 694 122 694 135.5 684 c 128,-1,2
 149 674 149 674 152 658 c 2,3,-1
 155 637 l 2,4,5
 159 613 159 613 158 501 c 0,6,7
 157 393 157 393 159 308 c 0,8,9
 162 221 162 221 160 162 c 256,10,11
 158 103 158 103 152 64 c 0,12,13
 147 27 147 27 141.5 -0.5 c 128,-1,14
 136 -28 136 -28 134 -36 c 2,15,-1
 133 -43 l 1,16,17
 128 -59 128 -59 113.5 -67.5 c 128,-1,18
 99 -76 99 -76 83 -71.5 c 128,-1,19
 67 -67 67 -67 58.5 -52.5 c 128,-1,20
 50 -38 50 -38 54 -22 c 2,21,-1
 56 -15 l 2,22,23
 58 -10 58 -10 62 15 c 0,24,25
 67 40 67 40 72 75 c 256,26,27
 77 110 77 110 79 165 c 0,28,29
 81 221 81 221 78 305 c 1,30,31
 76 392 76 392 77 502 c 0,32,33
 77 607 77 607 75 624 c 2,34,-1
 72 645 l 2,35,36
 69 661 69 661 79 675 c 128,-1,0
 89 689 89 689 105.5 691.5 c 128,-1,1
EndSplineSet
Validated: 33
EndChar

StartChar: m
Encoding: 109 109 80
Width: 749
Flags: W
LayerCount: 2
Fore
SplineSet
90.5 488 m 128,-1,1
 107 489 107 489 120 477.5 c 128,-1,2
 133 466 133 466 134 450 c 2,3,-1
 136 421 l 2,4,5
 137 404 137 404 138 369 c 1,6,7
 143 379 143 379 149 387 c 0,8,9
 190 450 190 450 226 470 c 0,10,11
 259 489 259 489 286 495 c 0,12,13
 316 502 316 502 348 496 c 0,14,15
 362 493 362 493 374 485 c 0,16,17
 402 466 402 466 414 419 c 0,18,19
 418 400 418 400 422 380 c 1,20,21
 441 424 441 424 458 442 c 0,22,23
 486 471 486 471 528 477 c 0,24,25
 568 483 568 483 595 472 c 0,26,27
 617 463 617 463 635 445 c 0,28,29
 645 435 645 435 652 421.5 c 128,-1,30
 659 408 659 408 662.5 399.5 c 128,-1,31
 666 391 666 391 674 366 c 0,32,33
 694 308 694 308 696 256 c 0,34,35
 698 205 698 205 689 162 c 0,36,37
 680 122 680 122 671 96 c 0,38,39
 665 79 665 79 664 53 c 2,40,-1
 662 20 l 2,41,42
 662 4 662 4 649.5 -7.5 c 128,-1,43
 637 -19 637 -19 620 -18.5 c 128,-1,44
 603 -18 603 -18 592 -5.5 c 128,-1,45
 581 7 581 7 581 24 c 1,46,-1
 583 56 l 1,47,48
 584 95 584 95 594 123 c 0,49,50
 602 144 602 144 610 179 c 0,51,52
 617 212 617 212 615 253 c 0,53,54
 614 293 614 293 598 340 c 0,55,56
 585 377 585 377 577 388 c 1,57,58
 571 394 571 394 563 397 c 0,59,60
 557 400 557 400 540 397 c 0,61,62
 525 395 525 395 517 386 c 1,63,64
 504 374 504 374 482 311 c 1,65,66
 457 244 457 244 443 188 c 0,67,68
 429 133 429 133 426 106 c 1,69,70
 424 104 424 104 420 101.5 c 128,-1,71
 416 99 416 99 405 91.5 c 128,-1,72
 394 84 394 84 384 80 c 128,-1,73
 374 76 374 76 364 73.5 c 128,-1,74
 354 71 354 71 348 75.5 c 128,-1,75
 342 80 342 80 342 92 c 256,76,77
 342 104 342 104 344 149 c 1,78,79
 347 193 347 193 349 235 c 0,80,81
 351 274 351 274 347.5 317.5 c 128,-1,82
 344 361 344 361 335 400 c 0,83,84
 332 411 332 411 329 417 c 1,85,86
 316 419 316 419 305 416 c 0,87,88
 289 413 289 413 266 400 c 0,89,90
 247 389 247 389 216 342 c 0,91,92
 184 294 184 294 164 211 c 0,93,94
 146 138 146 138 142 96 c 1,95,96
 140 50 140 50 138 39 c 0,97,98
 130 -4 130 -4 71 72 c 0,99,100
 59 87 59 87 59 87 c 1,101,102
 60 94 60 94 61 101 c 0,103,104
 62 144 62 144 60 189 c 0,105,106
 59 203 59 203 59 220 c 0,107,108
 58 259 58 259 57 313 c 1,109,110
 57 389 57 389 55 416 c 2,111,-1
 53 445 l 2,112,113
 52 461 52 461 63 474 c 128,-1,0
 74 487 74 487 90.5 488 c 128,-1,1
EndSplineSet
Validated: 33
EndChar

StartChar: n
Encoding: 110 110 81
Width: 500
Flags: W
LayerCount: 2
Fore
SplineSet
102.5 517.5 m 128,-1,1
 119 518 119 518 131 506 c 128,-1,2
 143 494 143 494 144 478 c 1,3,-1
 144 450 l 1,4,5
 145 421 145 421 144 336 c 0,6,7
 144 328 144 328 144 320 c 1,8,9
 148 325 148 325 151 330 c 0,10,11
 170 361 170 361 184 380 c 1,12,13
 201 401 201 401 224 419 c 0,14,15
 245 435 245 435 264 445 c 0,16,17
 284 456 284 456 298 459 c 0,18,19
 316 464 316 464 335 461 c 0,20,21
 357 457 357 457 373 443 c 0,22,23
 388 431 388 431 403 401 c 0,24,25
 416 375 416 375 427 334 c 256,26,27
 438 293 438 293 443 252 c 0,28,29
 447 212 447 212 447 177 c 1,30,31
 448 143 448 143 448 111 c 0,32,33
 448 77 448 77 446 54 c 0,34,35
 444 34 444 34 444 24 c 2,36,-1
 443 14 l 1,37,38
 443 -3 443 -3 430.5 -14.5 c 128,-1,39
 418 -26 418 -26 401.5 -25 c 128,-1,40
 385 -24 385 -24 373.5 -11.5 c 128,-1,41
 362 1 362 1 362 17 c 1,42,-1
 363 28 l 1,43,44
 363 40 363 40 365 61 c 0,45,46
 367 80 367 80 367 111 c 256,47,48
 367 142 367 142 366 175 c 0,49,50
 366 207 366 207 362 244 c 0,51,52
 359 278 359 278 349.5 312 c 128,-1,53
 340 346 340 346 330 365 c 0,54,55
 325 376 325 376 321 381 c 1,56,57
 319 381 319 381 318 381 c 0,58,59
 313 380 313 380 302 374 c 0,60,61
 289 367 289 367 273 354 c 0,62,63
 258 343 258 343 249 330 c 1,64,65
 237 315 237 315 219.5 287 c 128,-1,66
 202 259 202 259 191 237 c 0,67,68
 180 214 180 214 164 177 c 0,69,70
 149 143 149 143 143 110 c 0,71,72
 138 86 138 86 136 58 c 0,73,74
 135 49 135 49 135 43 c 0,75,76
 135 35 135 35 135 28 c 1,77,78
 135 28 135 28 113.5 20 c 128,-1,79
 92 12 92 12 74 7.5 c 128,-1,80
 56 3 56 3 53 9 c 0,81,82
 53 10 53 10 53 18 c 0,83,84
 53 23 53 23 54 31 c 0,85,86
 54 32 54 32 54 35 c 128,-1,87
 54 38 54 38 54 39 c 0,88,89
 54 51 54 51 55 63 c 0,90,91
 56 74 56 74 56 87 c 0,92,93
 59 134 59 134 61 193 c 256,94,95
 63 252 63 252 63 336 c 0,96,97
 64 421 64 421 63 448 c 1,98,-1
 63 476 l 1,99,100
 62 493 62 493 74 505 c 128,-1,0
 86 517 86 517 102.5 517.5 c 128,-1,1
EndSplineSet
Validated: 33
EndChar

StartChar: o
Encoding: 111 111 82
Width: 601
Flags: W
LayerCount: 2
Fore
SplineSet
237 381 m 1,0,1
 217 361 217 361 190 328 c 0,2,3
 148 276 148 276 143 262 c 0,4,5
 137 248 137 248 134 200 c 0,6,7
 132 157 132 157 148 127 c 0,8,9
 163 99 163 99 171 90 c 1,10,11
 183 83 183 83 221 69 c 0,12,13
 263 54 263 54 285 57 c 0,14,15
 311 61 311 61 321 66 c 0,16,17
 332 71 332 71 371 106 c 256,18,19
 410 141 410 141 437 185 c 0,20,21
 462 227 462 227 466 262 c 0,22,23
 469 297 469 297 464 307 c 0,24,25
 458 322 458 322 446 337 c 0,26,27
 432 354 432 354 418 367 c 0,28,29
 406 377 406 377 388 385 c 0,30,31
 368 395 368 395 352 398 c 1,32,33
 337 402 337 402 325 402 c 0,34,35
 312 402 312 402 302 401 c 0,36,37
 295 400 295 400 279 393 c 2,38,-1
 258 384 l 2,39,40
 248 380 248 380 237 381 c 1,0,1
375 476 m 1,41,42
 397 470 397 470 422 459 c 0,43,44
 451 446 451 446 472 427 c 0,45,46
 490 410 490 410 508 388 c 0,47,48
 528 364 528 364 539 339 c 0,49,50
 551 310 551 310 546 255 c 0,51,52
 541 201 541 201 506 143 c 0,53,54
 473 88 473 88 425 45 c 128,-1,55
 377 2 377 2 356 -7 c 0,56,57
 335 -17 335 -17 297 -23 c 0,58,59
 255 -30 255 -30 193 -7 c 0,60,61
 135 14 135 14 118 28.5 c 128,-1,62
 101 43 101 43 76 89 c 0,63,64
 49 138 49 138 54 205 c 1,65,66
 57 266 57 266 68 292 c 0,67,68
 78 317 78 317 127 379 c 1,69,70
 176 439 176 439 210 464 c 1,71,72
 248 490 248 490 286 497 c 0,73,74
 287 497 287 497 295 498.5 c 128,-1,75
 303 500 303 500 304.5 500 c 128,-1,76
 306 500 306 500 313 501 c 128,-1,77
 320 502 320 502 323 501.5 c 128,-1,78
 326 501 326 501 331.5 500.5 c 128,-1,79
 337 500 337 500 342 498 c 128,-1,80
 347 496 347 496 352 493 c 2,81,-1
 361 488 l 2,82,83
 369 484 369 484 375 476 c 1,41,42
EndSplineSet
Validated: 33
EndChar

StartChar: p
Encoding: 112 112 83
Width: 510
Flags: W
LayerCount: 2
Fore
SplineSet
166 101 m 0,0,1
 177 97 177 97 188 94 c 0,2,3
 209 88 209 88 227.5 89.5 c 128,-1,4
 246 91 246 91 266 101 c 0,5,6
 286 110 286 110 305 129 c 0,7,8
 326 150 326 150 349 185 c 0,9,10
 370 216 370 216 374 241 c 0,11,12
 378 269 378 269 375 288 c 0,13,14
 372 305 372 305 366 312 c 0,15,16
 360 320 360 320 344 328 c 0,17,18
 328 337 328 337 304 337 c 0,19,20
 280 338 280 338 256 330 c 1,21,22
 230 320 230 320 222 315 c 1,23,24
 214 308 214 308 205 298 c 0,25,26
 199 291 199 291 197 288 c 0,27,28
 195 283 195 283 194 276 c 0,29,30
 192 264 192 264 190 249 c 0,31,32
 188 230 188 230 184 206 c 0,33,34
 180 181 180 181 167 107 c 0,35,36
 167 106 167 106 166.5 104 c 128,-1,37
 166 102 166 102 166 101 c 0,0,1
94.5 -201 m 128,-1,39
 78 -201 78 -201 66 -188.5 c 128,-1,40
 54 -176 54 -176 54 -160 c 2,41,-1
 55 -126 l 2,42,43
 56 -91 56 -91 65 -21 c 0,44,45
 70 17 70 17 77 57 c 1,46,-1
 74 58 l 1,47,48
 59 66 59 66 54.5 82.5 c 128,-1,49
 50 99 50 99 58 113 c 0,50,51
 68 132 68 132 90 134 c 1,52,53
 101 196 101 196 104 218 c 0,54,55
 107 242 107 242 110 260 c 0,56,57
 112 276 112 276 114 289 c 0,58,59
 117 306 117 306 122 319 c 0,60,61
 128 333 128 333 144 351 c 0,62,63
 158 368 158 368 174 380 c 0,64,65
 191 392 191 392 228 406 c 0,66,67
 267 420 267 420 307 418 c 1,68,69
 348 417 348 417 380 401 c 0,70,71
 413 384 413 384 430 362 c 0,72,73
 448 338 448 338 455 302 c 1,74,75
 460 269 460 269 454 229 c 0,76,77
 447 186 447 186 417 141 c 0,78,79
 389 99 389 99 363 72 c 0,80,81
 334 43 334 43 301 28 c 0,82,83
 268 12 268 12 235 9 c 128,-1,84
 202 6 202 6 166 16 c 0,85,86
 160 17 160 17 153 20 c 1,87,88
 149 -7 149 -7 145 -32 c 0,89,90
 137 -97 137 -97 136 -128 c 2,91,-1
 135 -161 l 2,92,93
 135 -178 135 -178 123 -189.5 c 128,-1,38
 111 -201 111 -201 94.5 -201 c 128,-1,39
EndSplineSet
Validated: 33
EndChar

StartChar: q
Encoding: 113 113 84
Width: 544
Flags: W
LayerCount: 2
Fore
SplineSet
368 388 m 1,0,1
 347 386 347 386 313 374 c 0,2,3
 263 357 263 357 226 326 c 0,4,5
 186 292 186 292 160 258 c 0,6,7
 139 230 139 230 135 198 c 0,8,9
 131 165 131 165 144 136 c 0,10,11
 150 123 150 123 155 115 c 1,12,13
 169 117 169 117 194 127 c 0,14,15
 236 143 236 143 268 179 c 0,16,17
 304 218 304 218 330 262 c 1,18,19
 358 307 358 307 374 340 c 0,20,21
 375 341 375 341 375 343 c 0,22,23
 380 357 380 357 382 364 c 1,24,25
 377 373 377 373 370 384 c 1,26,-1
 368 388 l 1,0,1
443 421 m 1,27,28
 450 409 450 409 455 400 c 1,29,30
 477 385 477 385 471 369 c 1,31,32
 471 369 471 369 472 368 c 2,33,-1
 474 361 l 2,34,35
 479 346 479 346 472 331 c 128,-1,36
 465 316 465 316 450 310 c 1,37,38
 436 265 436 265 426 215 c 0,39,40
 425 207 425 207 423 200 c 0,41,42
 412 138 412 138 402 84 c 0,43,44
 391 30 391 30 385 -6 c 0,45,46
 380 -41 380 -41 377 -70 c 1,47,-1
 377 -72 l 1,48,49
 384 -64 384 -64 390 -57 c 0,50,51
 408 -36 408 -36 417 -28 c 2,52,-1
 423 -22 l 2,53,54
 435 -11 435 -11 452 -11.5 c 128,-1,55
 469 -12 469 -12 480.5 -24 c 128,-1,56
 492 -36 492 -36 491 -53 c 128,-1,57
 490 -70 490 -70 478 -81 c 2,58,-1
 472 -87 l 2,59,60
 467 -92 467 -92 451 -111 c 0,61,62
 434 -130 434 -130 405 -169 c 1,63,64
 400 -174 400 -174 393 -183.5 c 128,-1,65
 386 -193 386 -193 383.5 -196.5 c 128,-1,66
 381 -200 381 -200 376.5 -205.5 c 128,-1,67
 372 -211 372 -211 368.5 -214.5 c 128,-1,68
 365 -218 365 -218 361 -221 c 0,69,70
 336 -240 336 -240 312.5 -220.5 c 128,-1,71
 289 -201 289 -201 289 -184 c 0,72,73
 289 -173 289 -173 290 -157.5 c 128,-1,74
 291 -142 291 -142 292 -118 c 1,75,76
 294 -96 294 -96 297 -64 c 1,77,78
 299 -31 299 -31 305 7 c 1,79,80
 312 44 312 44 322 99 c 0,81,82
 324 111 324 111 327 123 c 1,83,84
 282 75 282 75 224 51 c 0,85,86
 206 44 206 44 198 41.5 c 128,-1,87
 190 39 190 39 175.5 35 c 128,-1,88
 161 31 161 31 150 32 c 128,-1,89
 139 33 139 33 127 37 c 0,90,91
 112 42 112 42 100.5 54 c 128,-1,92
 89 66 89 66 83 76.5 c 128,-1,93
 77 87 77 87 70 104 c 0,94,95
 48 153 48 153 54 207 c 0,96,97
 61 261 61 261 96 308 c 0,98,99
 127 348 127 348 174 388 c 0,100,101
 222 428 222 428 286 451 c 1,102,103
 354 474 354 474 388 467 c 2,104,-1
 411 462 l 2,105,106
 425 459 425 459 434 447.5 c 128,-1,107
 443 436 443 436 443 421 c 1,27,28
EndSplineSet
Validated: 33
EndChar

StartChar: r
Encoding: 114 114 85
Width: 436
Flags: W
LayerCount: 2
Fore
SplineSet
108.5 528 m 128,-1,1
 125 530 125 530 138.5 520 c 128,-1,2
 152 510 152 510 154 493 c 2,3,-1
 158 467 l 2,4,5
 161 446 161 446 159 394 c 1,6,7
 172 404 172 404 196 419 c 0,8,9
 238 445 238 445 261 448 c 0,10,11
 279 450 279 450 301 448 c 0,12,13
 325 446 325 446 337 442 c 0,14,15
 347 438 347 438 356 433 c 2,16,-1
 363 429 l 2,17,18
 377 421 377 421 381.5 405 c 128,-1,19
 386 389 386 389 378 374.5 c 128,-1,20
 370 360 370 360 354 355 c 128,-1,21
 338 350 338 350 323 358 c 1,22,-1
 317 362 l 2,23,24
 314 364 314 364 310 365 c 0,25,26
 305 366 305 366 295 367 c 0,27,28
 282 368 282 368 272 367 c 1,29,30
 262 364 262 364 238 349.5 c 128,-1,31
 214 335 214 335 206 328 c 1,32,33
 203 323 203 323 197 312 c 0,34,35
 189 296 189 296 180 269 c 0,36,37
 177 260 177 260 174 252 c 0,38,39
 168 233 168 233 162 215 c 0,40,41
 155 191 155 191 147 151 c 1,42,43
 146 127 146 127 144 109 c 0,44,45
 141 73 141 73 139 60 c 0,46,47
 138 49 138 49 137 29.5 c 128,-1,48
 136 10 136 10 136 2 c 1,49,50
 132 -14 132 -14 114 -11.5 c 128,-1,51
 96 -9 96 -9 75 1 c 2,52,-1
 53 12 l 1,53,54
 52 36 52 36 56 79 c 0,55,56
 59 119 59 119 67 161 c 1,57,58
 68 180 68 180 69 203 c 0,59,60
 70 228 70 228 72 262 c 0,61,62
 74 299 74 299 76 347 c 0,63,64
 80 434 80 434 77 456 c 2,65,-1
 74 482 l 2,66,67
 72 499 72 499 82 512.5 c 128,-1,0
 92 526 92 526 108.5 528 c 128,-1,1
EndSplineSet
Validated: 33
EndChar

StartChar: s
Encoding: 115 115 86
Width: 532
Flags: W
LayerCount: 2
Fore
SplineSet
457.5 348 m 128,-1,1
 443 340 443 340 427 345.5 c 128,-1,2
 411 351 411 351 403 365 c 2,3,-1
 386 398 l 2,4,5
 372 425 372 425 365 432 c 0,6,7
 361 436 361 436 351 440 c 0,8,9
 340 445 340 445 329 445 c 0,10,11
 313 445 313 445 297 443 c 0,12,13
 282 441 282 441 272 438 c 0,14,15
 265 435 265 435 245 422 c 0,16,17
 223 407 223 407 214 397 c 0,18,19
 205 388 205 388 202 380 c 0,20,21
 198 372 198 372 198 365 c 0,22,23
 198 359 198 359 199 353 c 1,24,25
 201 348 201 348 203 344 c 1,26,27
 206 341 206 341 212 336 c 0,28,29
 222 327 222 327 235 319 c 0,30,31
 250 310 250 310 268 300 c 0,32,33
 284 291 284 291 306 282 c 1,34,35
 331 273 331 273 349 267 c 0,36,37
 373 259 373 259 396 245 c 0,38,39
 425 228 425 228 442 194 c 0,40,41
 457 164 457 164 458 140 c 0,42,43
 459 119 459 119 455 102 c 0,44,45
 451 83 451 83 439 65 c 0,46,47
 428 49 428 49 406 31 c 0,48,49
 387 15 387 15 367 2 c 256,50,51
 347 -11 347 -11 331 -18 c 0,52,53
 313 -26 313 -26 293 -29 c 0,54,55
 271 -33 271 -33 247 -31 c 1,56,57
 224 -28 224 -28 210 -23 c 0,58,59
 198 -18 198 -18 175 -7 c 0,60,61
 151 5 151 5 128 21 c 0,62,63
 102 39 102 39 87 58 c 1,64,65
 72 75 72 75 64 90 c 2,66,-1
 58 101 l 2,67,68
 50 115 50 115 54.5 131.5 c 128,-1,69
 59 148 59 148 73.5 156 c 128,-1,70
 88 164 88 164 104.5 159 c 128,-1,71
 121 154 121 154 129 140 c 2,72,-1
 135 129 l 2,73,74
 139 121 139 121 149 110 c 0,75,76
 158 99 158 99 174 88 c 0,77,78
 193 75 193 75 211 66 c 0,79,80
 231 56 231 56 238 53 c 0,81,82
 243 51 243 51 257 50 c 1,83,84
 268 48 268 48 278 50 c 0,85,86
 289 52 289 52 298 56 c 0,87,88
 309 61 309 61 324 71 c 0,89,90
 339 80 339 80 354 93 c 0,91,92
 367 103 367 103 372 110 c 1,93,94
 375 116 375 116 376 120 c 0,95,96
 377 126 377 126 377 136 c 1,97,98
 376 143 376 143 369 159 c 1,99,100
 363 170 363 170 354 176 c 0,101,102
 339 185 339 185 323 190 c 0,103,104
 303 197 303 197 277 207 c 0,105,106
 249 218 249 218 228 230 c 0,107,108
 209 240 209 240 193 250 c 0,109,110
 175 262 175 262 160 274 c 0,111,112
 142 289 142 289 135 300 c 256,113,114
 128 311 128 311 122 329 c 0,115,116
 116 349 116 349 117 370 c 256,117,118
 118 391 118 391 128 412 c 0,119,120
 137 433 137 433 154 452 c 0,121,122
 170 469 170 469 199 489 c 0,123,124
 229 509 229 509 247 515 c 0,125,126
 264 520 264 520 286 523 c 256,127,128
 308 526 308 526 329 526 c 0,129,130
 356 526 356 526 381 516 c 0,131,132
 408 505 408 505 424 488 c 0,133,134
 439 472 439 472 458 435 c 2,135,-1
 475 403 l 2,136,137
 482 388 482 388 477 372 c 128,-1,0
 472 356 472 356 457.5 348 c 128,-1,1
EndSplineSet
Validated: 33
EndChar

StartChar: t
Encoding: 116 116 87
Width: 455
Flags: W
LayerCount: 2
Fore
SplineSet
53 427.5 m 128,-1,1
 53 444 53 444 65 456 c 128,-1,2
 77 468 77 468 94 468 c 2,3,-1
 165 468 l 1,4,-1
 170 468 l 1,5,6
 175 520 175 520 177 566 c 2,7,-1
 179 620 l 2,8,9
 180 637 180 637 192.5 648.5 c 128,-1,10
 205 660 205 660 221.5 659 c 128,-1,11
 238 658 238 658 249.5 645.5 c 128,-1,12
 261 633 261 633 260 617 c 2,13,-1
 258 563 l 2,14,15
 256 517 256 517 251 467 c 1,16,17
 259 467 259 467 267 466 c 0,18,19
 312 465 312 465 339 463 c 2,20,-1
 365 461 l 2,21,22
 381 459 381 459 392 446.5 c 128,-1,23
 403 434 403 434 402 417.5 c 128,-1,24
 401 401 401 401 388 390 c 128,-1,25
 375 379 375 379 359 380 c 2,26,-1
 333 382 l 2,27,28
 308 384 308 384 264 385 c 0,29,30
 254 386 254 386 244 386 c 1,31,32
 241 340 241 340 237 280 c 0,33,34
 230 177 230 177 228 130 c 0,35,36
 226 82 226 82 225 66.5 c 128,-1,37
 224 51 224 51 222 32 c 0,38,39
 219 12 219 12 216 -7 c 2,40,-1
 213 -25 l 2,41,42
 211 -42 211 -42 197 -51.5 c 128,-1,43
 183 -61 183 -61 167 -58.5 c 128,-1,44
 151 -56 151 -56 141 -42.5 c 128,-1,45
 131 -29 131 -29 133 -12 c 2,46,-1
 136 6 l 2,47,48
 139 23 139 23 141 41 c 0,49,50
 143 58 143 58 144 73 c 0,51,52
 145 87 145 87 147 133 c 0,53,54
 149 181 149 181 156 285 c 0,55,56
 160 342 160 342 163 387 c 1,57,-1
 94 387 l 2,58,59
 77 387 77 387 65 399 c 128,-1,0
 53 411 53 411 53 427.5 c 128,-1,1
EndSplineSet
Validated: 33
EndChar

StartChar: u
Encoding: 117 117 88
Width: 558
Flags: W
LayerCount: 2
Fore
SplineSet
457 299 m 1,0,1
 456 291 456 291 456 284 c 0,2,3
 454 261 454 261 453 228 c 0,4,5
 452 213 452 213 452 197 c 0,6,7
 450 144 450 144 450 133 c 0,8,9
 450 128 450 128 454 116 c 0,10,11
 457 107 457 107 464 100 c 2,12,-1
 476 86 l 2,13,14
 487 74 487 74 486.5 57 c 128,-1,15
 486 40 486 40 473.5 29 c 128,-1,16
 461 18 461 18 444.5 18.5 c 128,-1,17
 428 19 428 19 416 31 c 1,18,-1
 404 45 l 2,19,20
 386 65 386 65 377 91 c 0,21,22
 370 112 370 112 369 129 c 1,23,24
 354 106 354 106 339 89 c 0,25,26
 309 53 309 53 282 35 c 0,27,28
 252 16 252 16 234 12 c 1,29,30
 217 10 217 10 189 15 c 1,31,32
 163 21 163 21 142 33 c 1,33,34
 120 47 120 47 102 74 c 0,35,36
 86 99 86 99 71 149 c 0,37,38
 57 197 57 197 54 283 c 0,39,40
 51 365 51 365 55 403 c 0,41,42
 58 437 58 437 60 455 c 2,43,-1
 62 471 l 2,44,45
 64 488 64 488 77 498.5 c 128,-1,46
 90 509 90 509 106.5 507 c 128,-1,47
 123 505 123 505 133.5 492 c 128,-1,48
 144 479 144 479 143 463 c 2,49,-1
 141 446 l 2,50,51
 139 429 139 429 136 395 c 0,52,53
 133 363 133 363 135 285 c 1,54,55
 138 210 138 210 149 171 c 0,56,57
 160 133 160 133 170 118 c 0,58,59
 178 106 178 106 184 102 c 0,60,61
 193 97 193 97 206 94 c 0,62,63
 214 93 214 93 220 92 c 1,64,65
 226 95 226 95 237 103 c 0,66,67
 254 114 254 114 277 141 c 0,68,69
 301 169 301 169 325 213 c 0,70,71
 335 230 335 230 344 248 c 0,72,73
 359 279 359 279 374 312 c 0,74,75
 376 316 376 316 378 321 c 1,76,77
 382 348 382 348 389 383 c 1,78,79
 402 438 402 438 414 471 c 1,80,81
 414 475 414 475 415 479.5 c 128,-1,82
 416 484 416 484 420 495 c 128,-1,83
 424 506 424 506 431 512 c 128,-1,84
 438 518 438 518 451 518 c 128,-1,85
 464 518 464 518 482 507 c 0,86,87
 499 496 499 496 504 483 c 128,-1,88
 509 470 509 470 505 463 c 2,89,-1
 500 455 l 1,90,91
 497 423 497 423 486 380 c 1,92,93
 476 345 476 345 457 299 c 1,0,1
EndSplineSet
Validated: 33
EndChar

StartChar: v
Encoding: 118 118 89
Width: 541
Flags: W
LayerCount: 2
Fore
SplineSet
202 49 m 0,0,1
 201 58 201 58 195.5 81.5 c 128,-1,2
 190 105 190 105 166 163 c 0,3,4
 141 224 141 224 121 264 c 0,5,6
 100 308 100 308 81 362 c 0,7,8
 64 413 64 413 59 428 c 2,9,-1
 55 442 l 2,10,11
 50 458 50 458 57.5 473 c 128,-1,12
 65 488 65 488 81 493 c 128,-1,13
 97 498 97 498 112 490 c 128,-1,14
 127 482 127 482 132 467 c 2,15,-1
 137 453 l 2,16,17
 141 439 141 439 158 388 c 0,18,19
 175 339 175 339 194 300 c 0,20,21
 215 257 215 257 241 194 c 0,22,23
 245 183 245 183 249 173 c 1,24,25
 257 193 257 193 266 215 c 0,26,27
 300 302 300 302 317 329 c 0,28,29
 332 354 332 354 349 378 c 0,30,31
 364 400 364 400 382 426 c 0,32,33
 397 448 397 448 401 462 c 0,34,35
 406 477 406 477 407 482 c 2,36,-1
 408 490 l 2,37,38
 410 506 410 506 423.5 516.5 c 128,-1,39
 437 527 437 527 453.5 524.5 c 128,-1,40
 470 522 470 522 480.5 508.5 c 128,-1,41
 491 495 491 495 488 479 c 2,42,-1
 487 471 l 2,43,44
 486 460 486 460 479 437 c 1,45,46
 470 412 470 412 449 380 c 0,47,48
 431 353 431 353 415 331 c 0,49,50
 400 310 400 310 385 287 c 0,51,52
 372 266 372 266 341 185 c 0,53,54
 308 101 308 101 294 67 c 1,55,56
 294 67 294 67 268 41 c 1,57,58
 214 -6 214 -6 202 49 c 0,0,1
EndSplineSet
Validated: 33
EndChar

StartChar: w
Encoding: 119 119 90
Width: 651
Flags: W
LayerCount: 2
Fore
SplineSet
87 475.5 m 128,-1,1
 103 478 103 478 117 468 c 128,-1,2
 131 458 131 458 133 442 c 2,3,-1
 141 397 l 2,4,5
 148 354 148 354 162 285 c 0,6,7
 176 220 176 220 195 151 c 1,8,9
 221 199 221 199 231 224 c 0,10,11
 245 257 245 257 267 312 c 1,12,13
 291 368 291 368 299 387 c 1,14,15
 299 387 299 387 299 388.5 c 128,-1,16
 299 390 299 390 299.5 391.5 c 128,-1,17
 300 393 300 393 300.5 395 c 128,-1,18
 301 397 301 397 302.5 399.5 c 128,-1,19
 304 402 304 402 306 405 c 128,-1,20
 308 408 308 408 311 410 c 128,-1,21
 314 412 314 412 317.5 414 c 128,-1,22
 321 416 321 416 326.5 417.5 c 128,-1,23
 332 419 332 419 338 420 c 0,24,25
 363 423 363 423 375 411.5 c 128,-1,26
 387 400 387 400 386 387 c 1,27,-1
 386 374 l 1,28,29
 387 357 387 357 393 304 c 0,30,31
 399 253 399 253 406 211 c 0,32,33
 411 183 411 183 417 160 c 1,34,35
 445 228 445 228 467 293 c 0,36,37
 490 358 490 358 497 379 c 0,38,39
 506 404 506 404 515 422 c 1,40,-1
 523 436 l 2,41,42
 532 450 532 450 548 454.5 c 128,-1,43
 564 459 564 459 578.5 450.5 c 128,-1,44
 593 442 593 442 597.5 426 c 128,-1,45
 602 410 602 410 594 395 c 1,46,-1
 586 382 l 2,47,48
 580 371 580 371 574 354 c 0,49,50
 567 332 567 332 544 266 c 0,51,52
 520 199 520 199 491.5 129 c 128,-1,53
 463 59 463 59 456 45 c 0,54,55
 453 38 453 38 441 28.5 c 128,-1,56
 429 19 429 19 411 14.5 c 128,-1,57
 393 10 393 10 376 30 c 0,58,59
 365 43 365 43 357 67 c 0,60,61
 351 85 351 85 343 119 c 0,62,63
 335 152 335 152 327 196 c 0,64,65
 324 212 324 212 321 230 c 1,66,67
 312 208 312 208 306 193 c 0,68,69
 291 158 291 158 254 91 c 0,70,71
 251 87 251 87 246.5 80.5 c 128,-1,72
 242 74 242 74 230 58 c 128,-1,73
 218 42 218 42 206 32 c 128,-1,74
 194 22 194 22 181 14 c 128,-1,75
 168 6 168 6 157.5 12.5 c 128,-1,76
 147 19 147 19 141 41 c 0,77,78
 140 47 140 47 119 121 c 0,79,80
 98 197 98 197 83 268 c 256,81,82
 68 339 68 339 61 384 c 2,83,-1
 54 429 l 2,84,85
 51 445 51 445 61 459 c 128,-1,0
 71 473 71 473 87 475.5 c 128,-1,1
EndSplineSet
Validated: 33
EndChar

StartChar: x
Encoding: 120 120 91
Width: 559
Flags: W
LayerCount: 2
Fore
SplineSet
71 -3 m 128,-1,1
 57 6 57 6 53.5 22.5 c 128,-1,2
 50 39 50 39 59 53 c 2,3,-1
 80 85 l 2,4,5
 102 119 102 119 172 202 c 0,6,7
 196 230 196 230 217 253 c 1,8,9
 196 280 196 280 169 312 c 0,10,11
 109 385 109 385 90 404 c 2,12,-1
 70 425 l 2,13,14
 58 437 58 437 58.5 454 c 128,-1,15
 59 471 59 471 70.5 482.5 c 128,-1,16
 82 494 82 494 99 494 c 128,-1,17
 116 494 116 494 128 482 c 2,18,-1
 148 461 l 2,19,20
 169 439 169 439 231 364 c 0,21,22
 253 338 253 338 271 315 c 1,23,24
 276 321 276 321 281 326 c 0,25,26
 321 370 321 370 356 406 c 256,27,28
 391 442 391 442 409 461 c 0,29,30
 425 479 425 479 428 483 c 2,31,-1
 433 490 l 2,32,33
 443 504 443 504 459.5 506.5 c 128,-1,34
 476 509 476 509 489.5 499.5 c 128,-1,35
 503 490 503 490 506 473.5 c 128,-1,36
 509 457 509 457 499 443 c 2,37,-1
 495 437 l 2,38,39
 488 428 488 428 468 406 c 0,40,41
 450 387 450 387 414 350 c 0,42,43
 380 314 380 314 341 272 c 0,44,45
 332 262 332 262 321 250 c 1,46,47
 324 247 324 247 327 243 c 0,48,49
 360 198 360 198 381 168 c 0,50,51
 403 137 403 137 410 123 c 0,52,53
 417 111 417 111 427 91 c 0,54,55
 435 74 435 74 441 68 c 1,56,57
 453 52 453 52 457 38 c 0,58,59
 459 34 459 34 461 29 c 2,60,-1
 465 22 l 1,61,62
 472 7 472 7 466.5 -9 c 128,-1,63
 461 -25 461 -25 446.5 -32.5 c 128,-1,64
 432 -40 432 -40 416 -34.5 c 128,-1,65
 400 -29 400 -29 392 -14 c 1,66,-1
 389 -7 l 1,67,68
 384 2 384 2 380 13 c 0,69,70
 379 15 379 15 377 17 c 0,71,72
 367 30 367 30 355 54 c 0,73,74
 345 74 345 74 339 85 c 0,75,76
 334 94 334 94 315 121 c 256,77,78
 296 148 296 148 267 188 c 1,79,80
 252 170 252 170 234 149 c 0,81,82
 167 70 167 70 148 41 c 2,83,-1
 127 9 l 2,84,85
 118 -5 118 -5 101.5 -8.5 c 128,-1,0
 85 -12 85 -12 71 -3 c 128,-1,1
EndSplineSet
Validated: 33
EndChar

StartChar: y
Encoding: 121 121 92
Width: 618
Flags: W
LayerCount: 2
Fore
SplineSet
198 -199.5 m 128,-1,1
 182 -195 182 -195 173.5 -180.5 c 128,-1,2
 165 -166 165 -166 169 -150 c 2,3,-1
 184 -94 l 2,4,5
 200 -33 200 -33 264 94 c 0,6,7
 265 97 265 97 265 97 c 1,8,9
 261 103 261 103 250.5 119 c 128,-1,10
 240 135 240 135 234 145 c 0,11,12
 188 214 188 214 161 251 c 0,13,14
 134 287 134 287 113 313 c 0,15,16
 91 340 91 340 79 359 c 0,17,18
 68 378 68 378 62 390 c 2,19,-1
 57 401 l 2,20,21
 50 416 50 416 55.5 432 c 128,-1,22
 61 448 61 448 76 455 c 128,-1,23
 91 462 91 462 107 456 c 128,-1,24
 123 450 123 450 130 435 c 2,25,-1
 135 425 l 2,26,27
 139 416 139 416 148 402 c 0,28,29
 157 387 157 387 176 364 c 0,30,31
 198 337 198 337 226 299 c 0,32,33
 255 261 255 261 302 189 c 0,34,35
 305 184 305 184 309 179 c 1,36,37
 351 257 351 257 397 326 c 0,38,39
 467 433 467 433 481 450 c 2,40,-1
 494 466 l 2,41,42
 505 479 505 479 521.5 480.5 c 128,-1,43
 538 482 538 482 551 471.5 c 128,-1,44
 564 461 564 461 565.5 444 c 128,-1,45
 567 427 567 427 557 414 c 2,46,-1
 544 399 l 2,47,48
 532 385 532 385 465 282 c 0,49,50
 411 200 411 200 361 105 c 1,51,52
 368 94 368 94 366.5 79.5 c 128,-1,53
 365 65 365 65 355 55 c 256,54,55
 345 45 345 45 330 44 c 1,56,57
 276 -65 276 -65 263 -114 c 2,58,-1
 247 -171 l 2,59,60
 243 -187 243 -187 228.5 -195.5 c 128,-1,0
 214 -204 214 -204 198 -199.5 c 128,-1,1
EndSplineSet
Validated: 1
EndChar

StartChar: z
Encoding: 122 122 93
Width: 608
Flags: W
LayerCount: 2
Fore
SplineSet
74 401 m 128,-1,1
 67 416 67 416 73 432 c 128,-1,2
 79 448 79 448 94 454 c 2,3,-1
 111 462 l 2,4,5
 131 471 131 471 172 482 c 0,6,7
 215 493 215 493 301 497 c 0,8,9
 385 500 385 500 419 497 c 0,10,11
 452 494 452 494 470 491 c 0,12,13
 493 487 493 487 509 480 c 0,14,15
 522 474 522 474 529 470 c 0,16,17
 546 461 546 461 552 448.5 c 128,-1,18
 558 436 558 436 554 422.5 c 128,-1,19
 550 409 550 409 547 403 c 128,-1,20
 544 397 544 397 541 392 c 0,21,22
 526 370 526 370 483 337 c 0,23,24
 446 309 446 309 377 247 c 1,25,26
 306 185 306 185 273 159 c 1,27,28
 242 133 242 133 211 106 c 1,29,30
 187 87 187 87 171 73 c 1,31,32
 207 72 207 72 257 74 c 1,33,34
 316 75 316 75 363 78 c 0,35,36
 409 80 409 80 433 81 c 0,37,38
 456 81 456 81 464 82 c 1,39,-1
 473 82 l 1,40,41
 489 83 489 83 502 71.5 c 128,-1,42
 515 60 515 60 515.5 43.5 c 128,-1,43
 516 27 516 27 505 14.5 c 128,-1,44
 494 2 494 2 477 1 c 1,45,-1
 469 1 l 1,46,47
 460 0 460 0 436 0 c 0,48,49
 412 -1 412 -1 366 -3 c 256,50,51
 320 -5 320 -5 260 -7 c 0,52,53
 198 -9 198 -9 156 -7 c 0,54,55
 107 -5 107 -5 86 5 c 0,56,57
 77 9 77 9 68 19 c 128,-1,58
 59 29 59 29 54 45 c 128,-1,59
 49 61 49 61 60 78 c 0,60,61
 69 93 69 93 81 103 c 0,62,63
 89 110 89 110 107 125 c 0,64,65
 126 141 126 141 158 168 c 0,66,67
 191 196 191 196 222 221 c 0,68,69
 253 247 253 247 323 308 c 0,70,71
 394 371 394 371 434 401 c 0,72,73
 441 407 441 407 448 412 c 1,74,75
 433 414 433 414 412 416 c 0,76,77
 383 419 383 419 304 416 c 0,78,79
 227 413 227 413 193 404 c 0,80,81
 158 394 158 394 144 388 c 2,82,-1
 127 380 l 2,83,84
 112 374 112 374 96.5 380 c 128,-1,0
 81 386 81 386 74 401 c 128,-1,1
EndSplineSet
Validated: 33
EndChar

StartChar: braceleft
Encoding: 123 123 94
Width: 453
Flags: W
LayerCount: 2
Fore
SplineSet
385 684.5 m 128,-1,1
 388 668 388 668 378 654 c 128,-1,2
 368 640 368 640 352 638 c 1,3,-1
 339 635 l 2,4,5
 329 633 329 633 320.5 630 c 128,-1,6
 312 627 312 627 296 619 c 1,7,8
 279 609 279 609 274 605 c 0,9,10
 267 600 267 600 260 594 c 0,11,12
 251 585 251 585 241 577 c 0,13,14
 236 572 236 572 231 565 c 0,15,16
 224 554 224 554 218 541 c 0,17,18
 214 534 214 534 213 518 c 0,19,20
 213 502 213 502 217 491 c 0,21,22
 223 476 223 476 229 467 c 0,23,24
 238 454 238 454 245 443 c 256,25,26
 252 432 252 432 258 422 c 0,27,28
 265 410 265 410 269 396 c 0,29,30
 275 376 275 376 272 355 c 0,31,32
 269 338 269 338 264 325 c 0,33,34
 258 311 258 311 245 298 c 0,35,36
 235 287 235 287 223 279.5 c 128,-1,37
 211 272 211 272 194 265 c 0,38,39
 192 264 192 264 189 263 c 1,40,41
 215 249 215 249 227 236 c 0,42,43
 237 224 237 224 245 208 c 1,44,45
 255 191 255 191 257 172 c 0,46,47
 260 151 260 151 252 129 c 0,48,49
 245 111 245 111 235 98 c 0,50,51
 229 90 229 90 223 81 c 1,52,53
 217 74 217 74 211 61 c 0,54,55
 203 46 203 46 197 34 c 0,56,57
 194 29 194 29 192 19 c 0,58,59
 190 7 190 7 191 -6 c 256,60,61
 192 -19 192 -19 192 -26 c 1,62,63
 193 -28 193 -28 195 -32 c 0,64,65
 199 -39 199 -39 204 -44 c 0,66,67
 212 -52 212 -52 234 -70 c 0,68,69
 256 -87 256 -87 266 -94 c 0,70,71
 272 -98 272 -98 282 -100 c 1,72,73
 294 -104 294 -104 300 -104 c 0,74,75
 310 -104 310 -104 315 -104 c 1,76,77
 317 -103 317 -103 319 -102 c 0,78,79
 334 -96 334 -96 348 -95 c 2,80,-1
 356 -94 l 2,81,82
 373 -92 373 -92 386 -103 c 128,-1,83
 399 -114 399 -114 400.5 -130.5 c 128,-1,84
 402 -147 402 -147 391.5 -160 c 128,-1,85
 381 -173 381 -173 365 -175 c 2,86,-1
 356 -176 l 2,87,88
 353 -176 353 -176 349 -178 c 0,89,90
 333 -184 333 -184 320 -184 c 1,91,92
 312 -185 312 -185 299 -185 c 0,93,94
 283 -184 283 -184 261 -179 c 0,95,96
 239 -173 239 -173 222 -162 c 0,97,98
 209 -153 209 -153 183 -133 c 0,99,100
 157 -112 157 -112 146 -101 c 0,101,102
 133 -87 133 -87 123 -70 c 0,103,104
 113 -51 113 -51 112 -36 c 0,105,106
 111 -28 111 -28 110 -10 c 0,107,108
 109 13 109 13 113 33 c 0,109,110
 117 55 117 55 125 72 c 0,111,112
 131 83 131 83 139 98 c 0,113,114
 148 116 148 116 157 128 c 1,115,116
 164 139 164 139 171 148 c 0,117,118
 174 151 174 151 176 157 c 0,119,120
 177 160 177 160 177 161 c 0,121,122
 176 166 176 166 174 171 c 1,123,124
 170 177 170 177 166 182 c 0,125,126
 162 186 162 186 149 192 c 0,127,128
 129 202 129 202 102 213 c 0,129,130
 100 214 100 214 97 216 c 128,-1,131
 94 218 94 218 85.5 223.5 c 128,-1,132
 77 229 77 229 70.5 235 c 128,-1,133
 64 241 64 241 58.5 249.5 c 128,-1,134
 53 258 53 258 52.5 266 c 128,-1,135
 52 274 52 274 58.5 283 c 128,-1,136
 65 292 65 292 79 300 c 0,137,138
 87 305 87 305 106 315 c 0,139,140
 126 325 126 325 139 330 c 0,141,142
 150 334 150 334 164 340 c 0,143,144
 173 344 173 344 178 347 c 256,145,146
 183 350 183 350 187 354 c 0,147,148
 189 356 189 356 190 357 c 0,149,150
 191 360 191 360 192 367 c 0,151,152
 192 370 192 370 192 371 c 0,153,154
 190 377 190 377 187 382 c 0,155,156
 183 389 183 389 177 399 c 0,157,158
 170 409 170 409 162 422 c 0,159,160
 150 439 150 439 141 462 c 0,161,162
 131 488 131 488 133 521 c 1,163,164
 134 555 134 555 145 577 c 0,165,166
 153 594 153 594 163 609 c 0,167,168
 174 626 174 626 188 638 c 0,169,170
 197 646 197 646 205 653 c 0,171,172
 215 662 215 662 225 670 c 0,173,174
 235 677 235 677 256 689 c 0,175,176
 278 701 278 701 293 706.5 c 128,-1,177
 308 712 308 712 325 715 c 2,178,-1
 338 717 l 2,179,180
 354 720 354 720 368 710.5 c 128,-1,0
 382 701 382 701 385 684.5 c 128,-1,1
EndSplineSet
Validated: 33
EndChar

StartChar: bar
Encoding: 124 124 95
Width: 194
Flags: W
LayerCount: 2
Fore
SplineSet
101.5 741.5 m 128,-1,1
 118 741 118 741 129.5 729 c 128,-1,2
 141 717 141 717 141 700 c 2,3,-1
 141 672 l 1,4,5
 140 643 140 643 139 575 c 1,6,7
 139 506 139 506 137 451 c 0,8,9
 135 398 135 398 134 354 c 1,10,11
 134 309 134 309 134 266 c 1,12,13
 135 224 135 224 137 172 c 0,14,15
 140 117 140 117 139 88 c 0,16,17
 138 61 138 61 137 40 c 0,18,19
 136 22 136 22 135 1 c 0,20,21
 135 -18 135 -18 136 -39 c 256,22,23
 137 -60 137 -60 139 -74 c 1,24,25
 140 -90 140 -90 140 -110 c 0,26,27
 140 -128 140 -128 140 -134 c 0,28,29
 140 -139 140 -139 141 -147 c 1,30,31
 141 -157 141 -157 140 -167 c 1,32,-1
 140 -175 l 1,33,34
 139 -192 139 -192 126.5 -203.5 c 128,-1,35
 114 -215 114 -215 97.5 -214 c 128,-1,36
 81 -213 81 -213 69.5 -200 c 128,-1,37
 58 -187 58 -187 59 -171 c 2,38,-1
 60 -163 l 2,39,40
 60 -157 60 -157 60 -151 c 0,41,42
 59 -141 59 -141 59 -135 c 0,43,44
 59 -128 59 -128 59 -110 c 0,45,46
 59 -94 59 -94 58 -82 c 0,47,48
 56 -67 56 -67 55 -43 c 256,49,50
 54 -19 54 -19 54 3 c 0,51,52
 55 25 55 25 56 46 c 0,53,54
 57 65 57 65 58 91 c 256,55,56
 59 117 59 117 56 168 c 1,57,58
 54 222 54 222 53 266 c 0,59,60
 53 309 53 309 53.5 354.5 c 128,-1,61
 54 400 54 400 56 454 c 256,62,63
 58 508 58 508 58 576 c 0,64,65
 59 644 59 644 60 673 c 1,66,-1
 60 702 l 2,67,68
 60 718 60 718 72.5 730 c 128,-1,0
 85 742 85 742 101.5 741.5 c 128,-1,1
EndSplineSet
Validated: 33
EndChar

StartChar: braceright
Encoding: 125 125 96
Width: 465
Flags: W
LayerCount: 2
Fore
SplineSet
57.5 664 m 128,-1,1
 53 680 53 680 61 695 c 128,-1,2
 69 710 69 710 85 714 c 1,3,-1
 107 721 l 2,4,5
 137 730 137 730 168 725 c 0,6,7
 198 721 198 721 218 711 c 0,8,9
 236 701 236 701 253 686 c 0,10,11
 268 672 268 672 291 644 c 0,12,13
 314 615 314 615 329 586 c 256,14,15
 344 557 344 557 348 544 c 0,16,17
 351 531 351 531 353 516 c 128,-1,18
 355 501 355 501 355 490 c 256,19,20
 355 479 355 479 352 466 c 0,21,22
 349 452 349 452 341 435 c 0,23,24
 335 421 335 421 329 411 c 1,25,26
 326 403 326 403 324 399 c 0,27,28
 323 395 323 395 322 390 c 0,29,30
 321 386 321 386 321 376 c 0,31,32
 321 367 321 367 322 361 c 0,33,34
 323 357 323 357 324 354 c 0,35,36
 326 351 326 351 331 345 c 0,37,38
 335 339 335 339 338 338 c 0,39,40
 343 335 343 335 353 331 c 0,41,42
 371 325 371 325 383 320 c 1,43,44
 396 313 396 313 406.5 296 c 128,-1,45
 417 279 417 279 409 258 c 256,46,47
 401 237 401 237 380 226 c 0,48,49
 375 224 375 224 364 216 c 0,50,51
 350 206 350 206 340 200 c 0,52,53
 334 196 334 196 327 188 c 1,54,55
 320 182 320 182 315 170 c 0,56,57
 311 161 311 161 310 152 c 0,58,59
 310 146 310 146 311 143 c 0,60,61
 314 138 314 138 319 131 c 0,62,63
 328 119 328 119 337 106 c 256,64,65
 346 93 346 93 352 85 c 0,66,67
 361 73 361 73 367 61 c 0,68,69
 373 47 373 47 377 33 c 0,70,71
 381 15 381 15 375 -14 c 0,72,73
 370 -38 370 -38 364 -51 c 1,74,75
 358 -67 358 -67 347.5 -81.5 c 128,-1,76
 337 -96 337 -96 319 -112 c 0,77,78
 304 -125 304 -125 292 -134 c 0,79,80
 279 -143 279 -143 265 -150 c 128,-1,81
 251 -157 251 -157 235 -163 c 0,82,83
 218 -169 218 -169 201 -172 c 0,84,85
 187 -175 187 -175 172 -177 c 0,86,87
 155 -179 155 -179 141 -179 c 0,88,89
 129 -179 129 -179 116 -179 c 0,90,91
 103 -178 103 -178 94 -177 c 2,92,-1
 88 -176 l 2,93,94
 71 -174 71 -174 61 -160 c 128,-1,95
 51 -146 51 -146 53.5 -130 c 128,-1,96
 56 -114 56 -114 69.5 -103.5 c 128,-1,97
 83 -93 83 -93 99 -96 c 2,98,-1
 106 -97 l 2,99,100
 110 -98 110 -98 120 -98 c 0,101,102
 131 -98 131 -98 141 -98 c 0,103,104
 150 -98 150 -98 161 -97 c 0,105,106
 174 -95 174 -95 187 -93 c 0,107,108
 197 -91 197 -91 208 -87 c 256,109,110
 219 -83 219 -83 227.5 -78.5 c 128,-1,111
 236 -74 236 -74 244 -68 c 0,112,113
 254 -61 254 -61 267 -50 c 0,114,115
 277 -42 277 -42 282 -35 c 256,116,117
 287 -28 287 -28 289 -22 c 0,118,119
 292 -14 292 -14 295 3 c 0,120,121
 297 11 297 11 297 16 c 0,122,123
 296 21 296 21 294 25 c 0,124,125
 291 31 291 31 287 37 c 0,126,127
 280 46 280 46 271 59 c 0,128,129
 263 71 263 71 254 82 c 0,130,131
 243 96 243 96 237 109 c 0,132,133
 229 127 229 127 229 154 c 1,134,135
 230 180 230 180 242 205 c 0,136,137
 253 228 253 228 268 244 c 0,138,139
 285 261 285 261 296 268 c 1,140,141
 281 277 281 277 267 295 c 0,142,143
 255 311 255 311 250 323 c 0,144,145
 245 333 245 333 243 346 c 0,146,147
 241 358 241 358 240 375 c 0,148,149
 240 391 240 391 242 404 c 0,150,151
 244 416 244 416 248 426 c 0,152,153
 251 436 251 436 257 448 c 0,154,155
 262 456 262 456 267 469 c 1,156,157
 272 478 272 478 273 483 c 0,158,159
 274 489 274 489 274 492 c 0,160,161
 274 496 274 496 273 505 c 256,162,163
 272 514 272 514 270 521 c 256,164,165
 268 528 268 528 257 549 c 0,166,167
 246 571 246 571 228 593 c 0,168,169
 209 616 209 616 198 626 c 0,170,171
 189 634 189 634 180 639 c 0,172,173
 173 643 173 643 157 645 c 0,174,175
 143 647 143 647 129 643 c 2,176,-1
 107 637 l 2,177,178
 92 632 92 632 77 640 c 128,-1,0
 62 648 62 648 57.5 664 c 128,-1,1
EndSplineSet
Validated: 33
EndChar

StartChar: asciitilde
Encoding: 126 126 97
Width: 699
Flags: W
LayerCount: 2
Fore
SplineSet
78 165 m 128,-1,1
 63 171 63 171 56.5 186.5 c 128,-1,2
 50 202 50 202 56 218 c 1,3,-1
 60 227 l 2,4,5
 64 236 64 236 74 258 c 0,6,7
 87 286 87 286 116 311 c 0,8,9
 143 335 143 335 178 350 c 128,-1,10
 213 365 213 365 239 366 c 0,11,12
 264 366 264 366 279 361 c 0,13,14
 290 358 290 358 309 349 c 0,15,16
 329 339 329 339 343 330 c 1,17,18
 358 319 358 319 375 297 c 0,19,20
 387 282 387 282 391 277 c 1,21,22
 398 272 398 272 410 261 c 0,23,24
 419 253 419 253 428 248 c 0,25,26
 437 244 437 244 446 242 c 256,27,28
 455 240 455 240 459 240 c 256,29,30
 463 240 463 240 470 242 c 0,31,32
 482 245 482 245 494 250 c 0,33,34
 504 254 504 254 510 258 c 1,35,36
 514 262 514 262 523 275 c 0,37,38
 536 294 536 294 546 311.5 c 128,-1,39
 556 329 556 329 561 338 c 0,40,41
 564 344 564 344 565 348 c 2,42,-1
 567 356 l 1,43,44
 572 371 572 371 586.5 379.5 c 128,-1,45
 601 388 601 388 617 383.5 c 128,-1,46
 633 379 633 379 641.5 364 c 128,-1,47
 650 349 650 349 645 333 c 2,48,-1
 643 326 l 2,49,50
 640 314 640 314 633 301 c 0,51,52
 627 290 627 290 615.5 270.5 c 128,-1,53
 604 251 604 251 590 230 c 0,54,55
 573 203 573 203 557 192 c 0,56,57
 543 183 543 183 525 175 c 0,58,59
 507 168 507 168 490 164 c 0,60,61
 470 159 470 159 457 159 c 0,62,63
 447 159 447 159 430 163 c 0,64,65
 411 167 411 167 393 176 c 0,66,67
 374 185 374 185 357 200 c 0,68,69
 343 212 343 212 335 219 c 0,70,71
 326 228 326 228 311 247 c 0,72,73
 302 260 302 260 296 264 c 0,74,75
 289 269 289 269 275 275 c 0,76,77
 261 282 261 282 254 284 c 0,78,79
 250 285 250 285 241 285 c 0,80,81
 231 284 231 284 210 275 c 0,82,83
 186 265 186 265 169 250 c 0,84,85
 153 236 153 236 147 223 c 0,86,87
 138 204 138 204 135 196 c 2,88,-1
 131 187 l 2,89,90
 125 172 125 172 109 165.5 c 128,-1,0
 93 159 93 159 78 165 c 128,-1,1
EndSplineSet
Validated: 33
EndChar

StartChar: exclamdown
Encoding: 161 161 98
Width: 263
Flags: W
LayerCount: 2
Fore
SplineSet
167 234 m 1,0,1
 167 234 167 234 167 232 c 0,2,3
 167 221 167 221 166 207 c 1,4,5
 164 194 164 194 163 183 c 0,6,7
 162 175 162 175 161 165 c 1,8,9
 161 152 161 152 159 135 c 0,10,11
 157 121 157 121 156 104 c 0,12,13
 155 88 155 88 156 75 c 0,14,15
 157 56 157 56 156 37 c 0,16,17
 155 22 155 22 155 11 c 0,18,19
 155 -2 155 -2 155 -19 c 0,20,21
 155 -30 155 -30 155 -47 c 0,22,23
 155 -58 155 -58 155 -78 c 0,24,25
 156 -98 156 -98 157 -109 c 0,26,27
 159 -137 159 -137 143 -159 c 0,28,29
 129 -177 129 -177 99 -172.5 c 128,-1,30
 69 -168 69 -168 62 -145 c 0,31,32
 57 -131 57 -131 55 -119 c 0,33,34
 54 -107 54 -107 53 -94 c 0,35,36
 53 -82 53 -82 53 -70 c 1,37,38
 54 -59 54 -59 55 -42 c 0,39,40
 57 -24 57 -24 59 -3 c 0,41,42
 61 19 61 19 63 39 c 0,43,44
 65 57 65 57 67 78 c 256,45,46
 69 99 69 99 72 123 c 128,-1,47
 75 147 75 147 78 169 c 256,48,49
 81 191 81 191 83 213 c 0,50,51
 84 226 84 226 86 239 c 0,52,53
 86 241 86 241 86 242 c 2,54,-1
 85 248 l 2,55,56
 82 265 82 265 93 279 c 1,57,58
 98 294 98 294 111.5 302 c 128,-1,59
 125 310 125 310 139 307 c 0,60,61
 156 304 156 304 165.5 290 c 128,-1,62
 175 276 175 276 172 260 c 2,63,-1
 169 242 l 2,64,65
 168 239 168 239 167 234 c 1,0,1
123 471 m 1,66,67
 137 479 137 479 152 481 c 0,68,69
 166 482 166 482 183 475.5 c 128,-1,70
 200 469 200 469 207 450 c 0,71,72
 215 430 215 430 206 405 c 0,73,74
 196 377 196 377 166 366 c 1,75,76
 139 355 139 355 112 364 c 0,77,78
 87 372 87 372 75 388 c 0,79,80
 63 405 63 405 66.5 425.5 c 128,-1,81
 70 446 70 446 84 457 c 0,82,83
 102 471 102 471 123 471 c 1,66,67
EndSplineSet
Validated: 33
EndChar

StartChar: cent
Encoding: 162 162 99
Width: 511
Flags: W
LayerCount: 2
Fore
SplineSet
280.5 635.5 m 128,-1,1
 297 635 297 635 309 623 c 128,-1,2
 321 611 321 611 320 594 c 1,3,-1
 320 574 l 1,4,5
 319 552 319 552 308 458 c 0,6,7
 307 448 307 448 306 438 c 1,8,9
 345 437 345 437 371 427 c 0,10,11
 400 416 400 416 425 395 c 2,12,-1
 444 379 l 2,13,14
 457 368 457 368 458.5 351 c 128,-1,15
 460 334 460 334 449 321.5 c 128,-1,16
 438 309 438 309 421 307.5 c 128,-1,17
 404 306 404 306 392 317 c 1,18,-1
 372 333 l 2,19,20
 358 345 358 345 343 351 c 0,21,22
 328 356 328 356 298 357 c 1,23,24
 294 314 294 314 292 270 c 0,25,26
 286 172 286 172 285 113 c 0,27,28
 285 105 285 105 285 97 c 1,29,30
 290 100 290 100 296 104 c 0,31,32
 314 117 314 117 335 135 c 0,33,34
 357 153 357 153 363 159 c 0,35,36
 365 161 365 161 366 163 c 2,37,-1
 370 172 l 1,38,39
 378 187 378 187 393.5 193 c 128,-1,40
 409 199 409 199 424 191.5 c 128,-1,41
 439 184 439 184 445 168.5 c 128,-1,42
 451 153 451 153 444 138 c 2,43,-1
 440 129 l 2,44,45
 432 113 432 113 420 101 c 0,46,47
 412 93 412 93 387 73 c 1,48,49
 363 52 363 52 341 37 c 0,50,51
 316 20 316 20 292 13 c 0,52,53
 289 12 289 12 285 11 c 1,54,55
 285 3 285 3 285 -6 c 0,56,57
 287 -69 287 -69 286 -82 c 1,58,-1
 286 -93 l 1,59,60
 285 -110 285 -110 273 -121.5 c 128,-1,61
 261 -133 261 -133 244.5 -132.5 c 128,-1,62
 228 -132 228 -132 216 -119.5 c 128,-1,63
 204 -107 204 -107 205 -91 c 1,64,-1
 205 -79 l 1,65,66
 206 -70 206 -70 204 -8 c 0,67,68
 204 6 204 6 204 21 c 1,69,70
 175 30 175 30 147 46 c 0,71,72
 109 67 109 67 93 85 c 0,73,74
 74 106 74 106 60 155 c 0,75,76
 46 206 46 206 59 258 c 0,77,78
 72 307 72 307 103 345 c 0,79,80
 133 381 133 381 176 405 c 0,81,82
 211 425 211 425 223 430 c 1,83,84
 225 449 225 449 228 468 c 0,85,86
 239 557 239 557 239 576 c 2,87,-1
 239 596 l 1,88,89
 240 613 240 613 252 624.5 c 128,-1,0
 264 636 264 636 280.5 635.5 c 128,-1,1
204 108 m 1,90,91
 204 112 204 112 204 116 c 0,92,93
 206 175 206 175 211 274 c 0,94,95
 212 305 212 305 214 334 c 1,96,97
 185 317 185 317 165 293 c 0,98,99
 146 270 146 270 138 238 c 0,100,101
 130 207 130 207 138.5 177 c 128,-1,102
 147 147 147 147 153 139 c 1,103,104
 161 131 161 131 186 117 c 0,105,106
 195 112 195 112 204 108 c 1,90,91
EndSplineSet
Validated: 33
EndChar

